<?xml version="1.0" encoding="UTF-8"?><svg id="_레이어_2" xmlns="http://www.w3.org/2000/svg" viewBox="0 0 168 160"><defs><style>.cls-1{fill:#fff;}.cls-1,.cls-2{stroke:#000;stroke-width:2px;}.cls-2{fill:#000;}</style></defs><path class="cls-2" d="M130.12,64.27c-1.9,1.68-3.79,2.94-3.79,5.68,0,2.74,2.31,3.58,4.42,4.63,8.62,3.37,23.55,14.54,23.54,32.21-.02,21.04-14.14,46.91-56.43,46.88-7.15,0-13.68-.22-19.99-.65-6.31-.22-12.62-.43-19.15-.44-7.15,0-14.52.2-21.67.4-7.16.41-14.31.62-21.67.61-6.52,0-13.88-3.8-13.88-11.16.01-13.05,13.68.22,14.97-34.71l2.36-60.6C20.11,15.37,2,29.87,2.01,15.35c0-8,8.64-11.78,15.16-11.77,7.79,0,15.57.43,23.36.65,7.79.43,15.57.85,23.36.86,5.05,0,9.89-.41,14.73-.83,4.84-.21,9.89-.62,14.73-.62,38.51.03,48.38,18.35,48.37,34.55,0,9.68-4.01,19.99-11.59,26.08ZM68.9,54.97c0,8.21-.43,12.2,6.09,12.21,12.62.01,15.58-8.83,15.59-20.4,0-9.47-3.14-21.26-14.71-21.26-7.79,0-6.95,6.31-6.95,12.41v17.04ZM68.85,106.31c-.02,24.41,3.98,25.04,10.5,25.05,11.99,0,16.21-8.19,16.22-19.14.01-12.84-3.77-24.2-18.5-24.21-6.52,0-8,3.36-8.21,7.78v10.52Z"/><path class="cls-1" d="M138.14,69.55c-1.9,1.68-3.79,2.94-3.79,5.68,0,2.74,2.31,3.58,4.42,4.63,8.62,3.37,23.55,14.54,23.54,32.21-.02,21.04-14.14,46.91-56.43,46.88-7.15,0-13.68-.22-19.99-.65-6.31-.22-12.62-.43-19.15-.44-7.15,0-14.52.2-21.67.4-7.16.41-14.31.62-21.67.61-6.52,0-13.88-3.8-13.88-11.16.01-13.05,13.68.22,14.97-34.71l2.36-60.6c1.29-31.77-16.82-17.27-16.81-31.79,0-8,8.64-11.78,15.16-11.77,7.79,0,15.57.43,23.36.65,7.79.43,15.57.85,23.36.86,5.05,0,9.89-.41,14.73-.83,4.84-.21,9.89-.62,14.73-.62,38.51.03,48.38,18.35,48.37,34.55,0,9.68-4.01,19.99-11.59,26.08ZM76.91,60.24c0,8.21-.43,12.2,6.09,12.21,12.62.01,15.58-8.83,15.59-20.4,0-9.47-3.14-21.26-14.71-21.26-7.79,0-6.95,6.31-6.95,12.41v17.04ZM76.87,111.59c-.02,24.41,3.98,25.04,10.5,25.05,11.99,0,16.21-8.19,16.22-19.14.01-12.84-3.77-24.2-18.5-24.21-6.52,0-8,3.36-8.21,7.78v10.52Z"/></svg>