<?xml version="1.0" encoding="UTF-8"?>
<svg xmlns="http://www.w3.org/2000/svg" version="1.1" viewBox="0 0 224 193">
  <defs>
    <style>
      .cls-1 {
        stroke-miterlimit: 10;
        stroke-width: 1.6px;
      }

      .cls-1, .cls-2, .cls-3, .cls-4 {
        fill: #fff;
      }

      .cls-1, .cls-2, .cls-5, .cls-6, .cls-7, .cls-8, .cls-4 {
        stroke: #000;
      }

      .cls-2, .cls-5, .cls-6, .cls-7, .cls-4 {
        stroke-width: 1.6px;
      }

      .cls-2, .cls-6 {
        stroke-linecap: round;
      }

      .cls-2, .cls-7, .cls-8, .cls-4 {
        stroke-miterlimit: 10;
      }

      .cls-5, .cls-6 {
        stroke-linejoin: round;
      }

      .cls-5, .cls-6, .cls-7 {
        fill: none;
      }

      .cls-8 {
        fill: #ffc931;
        stroke-width: 1.8px;
      }

      .cls-9 {
        fill: #040000;
      }
    </style>
  </defs>
  <!-- Generator: Adobe Illustrator 28.6.0, SVG Export Plug-In . SVG Version: 1.2.0 Build 709)  -->
  <g>
    <g id="_레이어_3">
      <path class="cls-9" d="M154.8,77.6c1.6-.5,3.2-1,4.6-1.5,6.9-2.7,13.3-7.4,17.1-12.4,1.4-1.4,9.1-14.5,6.7-26.1-1.4-6.7-5.9-11.6-13.4-14.4-7.7-1.8-15-1.6-21.8.7-2.8-3.6-7-5.9-12.4-6.8-9.9-.3-18.6,3-25.6,9.9-11.1,10.9-15.6,28.3-16.2,39-18.2.6-31.7,4.2-31.8,4.3-.3,0-33.1,9.6-37.9,46.7-.6,39.3,27.4,45,36.6,46.8.8.2,1.6.3,2.1.5.9.2,2.9.4,5.8.4,6.6,0,17.5-.2,29.7-.6,13.9-.4,28.2-.9,37.9-.7s39.4-7.2,43-41.7c1.2-11.1-3.4-23.1-12.8-33.7-3.5-3.9-7.4-7.4-11.5-10.3h0Z"/>
      <path class="cls-4" d="M109.4,78.4c-.1-14.9,9.3-51.2,40.7-50.2,22.9,3.7,14.3,33.3,12.8,35.6-3.3,6.6-9.8,13.9-19.6,17.5"/>
      <path class="cls-8" d="M142.2,74.9c17,.2,48.1,24.9,45.4,51.5-3.7,35.1-34.5,40.7-41.7,40.6-21.7-.3-67.9,2.3-73.1,1-6.9-1.7-38.4-4.4-37.8-46.1,4.7-36.6,37-45.5,37-45.5,0,0,17-4.6,38.8-4.3,12.1.2,31.5,2.8,31.5,2.8h0Z"/>
      <path d="M132.4,168c49.3-58.7,7.8-90.8,7.8-90.8,0,0,14.1,1.3,14,1.3,6.3,6.5,35.6,35.7-8.8,88.5"/>
      <path class="cls-2" d="M134.6,79.7c-2-8.6,13.1-54.4,51.5-45.4,23.4,8.9,8.3,36.3,6.1,38.4-3.6,4.6-9.6,9.2-16.8,12.1-6,2.4-16.8,4.8-26.5,2.3"/>
      <ellipse class="cls-1" cx="63.7" cy="110.7" rx="23.6" ry="9.7" transform="translate(-60.3 141.5) rotate(-74)"/>
      <ellipse cx="68" cy="108.4" rx="17.6" ry="7" transform="translate(-55 143.9) rotate(-74)"/>
      <ellipse class="cls-1" cx="80.6" cy="111" rx="23.6" ry="9.7" transform="translate(-48.2 157.9) rotate(-74)"/>
      <ellipse cx="84.9" cy="108.6" rx="17.6" ry="7" transform="translate(-42.9 160.4) rotate(-74)"/>
      <path class="cls-6" d="M48.4,132.6s-7,0-7,4.8,15.2,6.1,15.2,6.1c0,0,11.2.1,17.6-2.3"/>
      <path class="cls-5" d="M85.7,132.3s-18.6,1.6-7.5,16.9"/>
      <polyline class="cls-3" points="62 100.7 67.4 100 64.5 93.8 62 100.7"/>
      <polyline class="cls-3" points="79 100.9 84.4 100.3 81.4 94.1 79 100.9"/>
      <path class="cls-7" d="M148,71.4s6.4-22.9,31.9-31.1"/>
      <path d="M100.9,167.6c49.3-58.7,9.7-95,9.7-95,0,0,18.3.9,18.2.9,6.3,6.5,31,41.5-13.4,94.3"/>
    </g>
  </g>
</svg>