<?xml version="1.0" encoding="UTF-8"?><svg id="_레이어_2" xmlns="http://www.w3.org/2000/svg" viewBox="0 0 171 70"><defs><style>.cls-1{fill:#000;stroke-width:0px;}.cls-2{fill:#fff;stroke:#000;stroke-miterlimit:10;stroke-width:1.3px;}</style></defs><path class="cls-1" d="M139.76,8.72c-11.79,0-21.89,6.81-26.88,16.66-4.99-9.84-15.09-16.66-26.88-16.66-9.56,0-17.98,4.52-23.52,11.45-5.54-6.92-13.96-11.45-23.52-11.45-16.7,0-30.24,13.54-30.24,30.24s13.54,30.24,30.24,30.24c9.56,0,17.98-4.52,23.52-11.45,5.54,6.92,13.96,11.45,23.52,11.45,11.79,0,21.89-6.81,26.88-16.66,4.99,9.84,15.09,16.66,26.88,16.66,16.7,0,30.24-13.54,30.24-30.24s-13.54-30.24-30.24-30.24Z"/><path class="cls-2" d="M133.04,2c-11.79,0-21.89,6.81-26.88,16.66-4.99-9.84-15.09-16.66-26.88-16.66-9.56,0-17.98,4.52-23.52,11.45-5.54-6.92-13.96-11.45-23.52-11.45C15.54,2,2,15.54,2,32.24s13.54,30.24,30.24,30.24c9.56,0,17.98-4.52,23.52-11.45,5.54,6.92,13.96,11.45,23.52,11.45,11.79,0,21.89-6.81,26.88-16.66,4.99,9.84,15.09,16.66,26.88,16.66,16.7,0,30.24-13.54,30.24-30.24s-13.54-30.24-30.24-30.24Z"/></svg>