<svg width="172" height="128" viewBox="0 0 172 128" fill="none" xmlns="http://www.w3.org/2000/svg">
<path d="M142.61 63.6968C132.587 58.7359 121.119 60.2876 112.736 66.5568C112.637 56.0899 106.916 46.0305 96.892 41.0696C88.7507 37.0402 79.6992 37.36 72.0752 40.8989C70.2764 32.6682 65.0298 25.3001 56.8885 21.2708C42.6922 14.2447 25.4702 20.0633 18.4441 34.2595C11.418 48.4558 17.2366 65.6778 31.4328 72.7039C39.5742 76.7333 48.6257 76.4136 56.2496 72.8746C58.0484 81.1054 63.2951 88.4734 71.4364 92.5028C81.46 97.4637 92.9281 95.912 101.31 89.6428C101.41 100.11 107.131 110.169 117.155 115.13C131.351 122.156 148.573 116.337 155.599 102.141C162.625 87.9449 156.807 70.7229 142.61 63.6968Z" fill="black"/>
<path d="M139.724 55.1539C129.7 50.1929 118.232 51.7446 109.85 58.0138C109.75 47.5469 104.029 37.4876 94.0053 32.5266C85.864 28.4973 76.8125 28.817 69.1885 32.356C67.4012 24.1591 62.1431 16.7572 54.0017 12.7278C39.8055 5.7017 22.5835 11.5203 15.5573 25.7166C8.53124 39.9129 14.3498 57.1349 28.5461 64.161C36.6874 68.1903 45.739 67.8706 53.3629 64.3316C55.1617 72.5624 60.4084 79.9304 68.5497 83.9598C78.5733 88.9207 90.0414 87.369 98.4238 81.0998C98.5229 91.5668 104.244 101.626 114.268 106.587C128.464 113.613 145.686 107.795 152.712 93.5982C159.739 79.402 153.943 62.1912 139.724 55.1539Z" fill="white" stroke="black" stroke-miterlimit="10"/>
</svg>
