<?xml version="1.0" encoding="UTF-8"?><svg id="_레이어_2" xmlns="http://www.w3.org/2000/svg" viewBox="0 0 166 167"><defs><style>.cls-1{fill:#fff;}.cls-1,.cls-2{stroke:#000;stroke-width:2px;}.cls-2{fill:#000;}</style></defs><path class="cls-2" d="M94.56,14.29c28.2,0,32.19-4.21,35.56-4.21,11.99,0,17.04,20.62,17.04,29.88,0,6.94-2.74,15.15-10.94,15.15-16.62,0-3.16-20.2-43.14-20.2-23.36,0-21.04,4.21-21.04,28.41,0,12.2.63,12.62,13.47,12.62,15.99,0,4-23.36,18.94-23.36,12.21,0,13.05,23.78,13.05,31.98,0,8.63-1.47,33.88-14.1,33.88s0-22.09-21.25-22.09c-8.84,0-8.63,8-8.63,14.73,0,30.72,2.1,29.25,24.2,29.25,43.14,0,30.93-29.67,48.19-29.67,6.73,0,10.1,7.58,10.1,13.47,0,14.31-11.36,39.98-19.78,39.98-1.47,0-4.84-.63-9.26-1.26-4.63-.42-10.52-1.05-17.68-1.05H22.81c-13.89,0-14.1-6.31-14.1-9.05,0-11.57,14.31-2.31,15.78-24.62,2.53-38.3,2.74-34.51.63-72.59-1.47-32.19-17.47-15.57-17.47-30.51,0-12.84,17.68-10.73,26.3-10.73h60.6Z"/><path class="cls-1" d="M101.56,9.29c28.2,0,32.19-4.21,35.56-4.21,11.99,0,17.04,20.62,17.04,29.88,0,6.94-2.74,15.15-10.94,15.15-16.62,0-3.16-20.2-43.14-20.2-23.36,0-21.04,4.21-21.04,28.41,0,12.2.63,12.62,13.47,12.62,15.99,0,4-23.36,18.94-23.36,12.21,0,13.05,23.78,13.05,31.98,0,8.63-1.47,33.88-14.1,33.88s0-22.09-21.25-22.09c-8.84,0-8.63,8-8.63,14.73,0,30.72,2.1,29.25,24.2,29.25,43.14,0,30.93-29.67,48.19-29.67,6.73,0,10.1,7.58,10.1,13.47,0,14.31-11.36,39.98-19.78,39.98-1.47,0-4.84-.63-9.26-1.26-4.63-.42-10.52-1.05-17.68-1.05H29.81c-13.89,0-14.1-6.31-14.1-9.05,0-11.57,14.31-2.31,15.78-24.62,2.53-38.3,2.74-34.51.63-72.59-1.47-32.19-17.47-15.57-17.47-30.51,0-12.84,17.68-10.73,26.3-10.73h60.6Z"/></svg>