<?xml version="1.0" encoding="UTF-8"?><svg id="_레이어_2" xmlns="http://www.w3.org/2000/svg" viewBox="0 0 4402 4416"><defs><style>.cls-1{fill:none;stroke:#000;stroke-miterlimit:10;stroke-width:1.01px;}</style></defs><rect class="cls-1" x="1" y="1" width="440.27" height="441.9"/><rect class="cls-1" x="441.27" y="1" width="440.27" height="441.9"/><rect class="cls-1" x="881.55" y="1" width="440.27" height="441.9"/><rect class="cls-1" x="1321.82" y="1" width="440.27" height="441.9"/><rect class="cls-1" x="1762.09" y="1" width="440.27" height="441.9"/><rect class="cls-1" x="2202.37" y="1" width="440.27" height="441.9"/><rect class="cls-1" x="2642.64" y="1" width="440.27" height="441.9"/><rect class="cls-1" x="3082.91" y="1" width="440.27" height="441.9"/><rect class="cls-1" x="3523.19" y="1" width="440.27" height="441.9"/><rect class="cls-1" x="3963.46" y="1" width="440.27" height="441.9"/><rect class="cls-1" x="1" y="442.9" width="440.27" height="441.9"/><rect class="cls-1" x="441.27" y="442.9" width="440.27" height="441.9"/><rect class="cls-1" x="881.55" y="442.9" width="440.27" height="441.9"/><rect class="cls-1" x="1321.82" y="442.9" width="440.27" height="441.9"/><rect class="cls-1" x="1762.09" y="442.9" width="440.27" height="441.9"/><rect class="cls-1" x="2202.37" y="442.9" width="440.27" height="441.9"/><rect class="cls-1" x="2642.64" y="442.9" width="440.27" height="441.9"/><rect class="cls-1" x="3082.91" y="442.9" width="440.27" height="441.9"/><rect class="cls-1" x="3523.19" y="442.9" width="440.27" height="441.9"/><rect class="cls-1" x="3963.46" y="442.9" width="440.27" height="441.9"/><rect class="cls-1" x="1" y="884.8" width="440.27" height="441.9"/><rect class="cls-1" x="441.27" y="884.8" width="440.27" height="441.9"/><rect class="cls-1" x="881.55" y="884.8" width="440.27" height="441.9"/><rect class="cls-1" x="1321.82" y="884.8" width="440.27" height="441.9"/><rect class="cls-1" x="1762.09" y="884.8" width="440.27" height="441.9"/><rect class="cls-1" x="2202.37" y="884.8" width="440.27" height="441.9"/><rect class="cls-1" x="2642.64" y="884.8" width="440.27" height="441.9"/><rect class="cls-1" x="3082.91" y="884.8" width="440.27" height="441.9"/><rect class="cls-1" x="3523.19" y="884.8" width="440.27" height="441.9"/><rect class="cls-1" x="3963.46" y="884.8" width="440.27" height="441.9"/><rect class="cls-1" x="1" y="1326.7" width="440.27" height="441.9"/><rect class="cls-1" x="441.27" y="1326.7" width="440.27" height="441.9"/><rect class="cls-1" x="881.55" y="1326.7" width="440.27" height="441.9"/><rect class="cls-1" x="1321.82" y="1326.7" width="440.27" height="441.9"/><rect class="cls-1" x="1762.09" y="1326.7" width="440.27" height="441.9"/><rect class="cls-1" x="2202.37" y="1326.7" width="440.27" height="441.9"/><rect class="cls-1" x="2642.64" y="1326.7" width="440.27" height="441.9"/><rect class="cls-1" x="3082.91" y="1326.7" width="440.27" height="441.9"/><rect class="cls-1" x="3523.19" y="1326.7" width="440.27" height="441.9"/><rect class="cls-1" x="3963.46" y="1326.7" width="440.27" height="441.9"/><rect class="cls-1" x="1" y="1768.6" width="440.27" height="441.9"/><rect class="cls-1" x="441.27" y="1768.6" width="440.27" height="441.9"/><rect class="cls-1" x="881.55" y="1768.6" width="440.27" height="441.9"/><rect class="cls-1" x="1321.82" y="1768.6" width="440.27" height="441.9"/><rect class="cls-1" x="1762.09" y="1768.6" width="440.27" height="441.9"/><rect class="cls-1" x="2202.37" y="1768.6" width="440.27" height="441.9"/><rect class="cls-1" x="2642.64" y="1768.6" width="440.27" height="441.9"/><rect class="cls-1" x="3082.91" y="1768.6" width="440.27" height="441.9"/><rect class="cls-1" x="3523.19" y="1768.6" width="440.27" height="441.9"/><rect class="cls-1" x="3963.46" y="1768.6" width="440.27" height="441.9"/><rect class="cls-1" x="1" y="2210.5" width="440.27" height="441.9"/><rect class="cls-1" x="441.27" y="2210.5" width="440.27" height="441.9"/><rect class="cls-1" x="881.55" y="2210.5" width="440.27" height="441.9"/><rect class="cls-1" x="1321.82" y="2210.5" width="440.27" height="441.9"/><rect class="cls-1" x="1762.09" y="2210.5" width="440.27" height="441.9"/><rect class="cls-1" x="2202.37" y="2210.5" width="440.27" height="441.9"/><rect class="cls-1" x="2642.64" y="2210.5" width="440.27" height="441.9"/><rect class="cls-1" x="3082.91" y="2210.5" width="440.27" height="441.9"/><rect class="cls-1" x="3523.19" y="2210.5" width="440.27" height="441.9"/><rect class="cls-1" x="3963.46" y="2210.5" width="440.27" height="441.9"/><rect class="cls-1" x="1" y="2652.4" width="440.27" height="441.9"/><rect class="cls-1" x="441.27" y="2652.4" width="440.27" height="441.9"/><rect class="cls-1" x="881.55" y="2652.4" width="440.27" height="441.9"/><rect class="cls-1" x="1321.82" y="2652.4" width="440.27" height="441.9"/><rect class="cls-1" x="1762.09" y="2652.4" width="440.27" height="441.9"/><rect class="cls-1" x="2202.37" y="2652.4" width="440.27" height="441.9"/><rect class="cls-1" x="2642.64" y="2652.4" width="440.27" height="441.9"/><rect class="cls-1" x="3082.91" y="2652.4" width="440.27" height="441.9"/><rect class="cls-1" x="3523.19" y="2652.4" width="440.27" height="441.9"/><rect class="cls-1" x="3963.46" y="2652.4" width="440.27" height="441.9"/><rect class="cls-1" x="1" y="3094.3" width="440.27" height="441.9"/><rect class="cls-1" x="441.27" y="3094.3" width="440.27" height="441.9"/><rect class="cls-1" x="881.55" y="3094.3" width="440.27" height="441.9"/><rect class="cls-1" x="1321.82" y="3094.3" width="440.27" height="441.9"/><rect class="cls-1" x="1762.09" y="3094.3" width="440.27" height="441.9"/><rect class="cls-1" x="2202.37" y="3094.3" width="440.27" height="441.9"/><rect class="cls-1" x="2642.64" y="3094.3" width="440.27" height="441.9"/><rect class="cls-1" x="3082.91" y="3094.3" width="440.27" height="441.9"/><rect class="cls-1" x="3523.19" y="3094.3" width="440.27" height="441.9"/><rect class="cls-1" x="3963.46" y="3094.3" width="440.27" height="441.9"/><rect class="cls-1" x="1" y="3536.2" width="440.27" height="441.9"/><rect class="cls-1" x="441.27" y="3536.2" width="440.27" height="441.9"/><rect class="cls-1" x="881.55" y="3536.2" width="440.27" height="441.9"/><rect class="cls-1" x="1321.82" y="3536.2" width="440.27" height="441.9"/><rect class="cls-1" x="1762.09" y="3536.2" width="440.27" height="441.9"/><rect class="cls-1" x="2202.37" y="3536.2" width="440.27" height="441.9"/><rect class="cls-1" x="2642.64" y="3536.2" width="440.27" height="441.9"/><rect class="cls-1" x="3082.91" y="3536.2" width="440.27" height="441.9"/><rect class="cls-1" x="3523.19" y="3536.2" width="440.27" height="441.9"/><rect class="cls-1" x="3963.46" y="3536.2" width="440.27" height="441.9"/><rect class="cls-1" x="1" y="3978.1" width="440.27" height="441.9"/><rect class="cls-1" x="441.27" y="3978.1" width="440.27" height="441.9"/><rect class="cls-1" x="881.55" y="3978.1" width="440.27" height="441.9"/><rect class="cls-1" x="1321.82" y="3978.1" width="440.27" height="441.9"/><rect class="cls-1" x="1762.09" y="3978.1" width="440.27" height="441.9"/><rect class="cls-1" x="2202.37" y="3978.1" width="440.27" height="441.9"/><rect class="cls-1" x="2642.64" y="3978.1" width="440.27" height="441.9"/><rect class="cls-1" x="3082.91" y="3978.1" width="440.27" height="441.9"/><rect class="cls-1" x="3523.19" y="3978.1" width="440.27" height="441.9"/><rect class="cls-1" x="3963.46" y="3978.1" width="440.27" height="441.9"/></svg>