<?xml version="1.0" encoding="UTF-8"?><svg id="_레이어_2" xmlns="http://www.w3.org/2000/svg" viewBox="0 0 4390.05 4416.24"><defs><style>.cls-1{fill:none;stroke:#000;stroke-miterlimit:10;stroke-width:.6px;}</style></defs><rect class="cls-1" x=".3" y=".3" width="365.79" height="367.97"/><rect class="cls-1" x="366.09" y=".3" width="365.79" height="367.97"/><rect class="cls-1" x="731.87" y=".3" width="365.79" height="367.97"/><rect class="cls-1" x="1097.66" y=".3" width="365.79" height="367.97"/><rect class="cls-1" x="1463.45" y=".3" width="365.79" height="367.97"/><rect class="cls-1" x="1829.23" y=".3" width="365.79" height="367.97"/><rect class="cls-1" x="2195.03" y=".3" width="365.79" height="367.97"/><rect class="cls-1" x="2560.82" y=".3" width="365.79" height="367.97"/><rect class="cls-1" x="2926.6" y=".3" width="365.79" height="367.97"/><rect class="cls-1" x="3292.39" y=".3" width="365.79" height="367.97"/><rect class="cls-1" x="3658.18" y=".3" width="365.79" height="367.97"/><rect class="cls-1" x="4023.96" y=".3" width="365.79" height="367.97"/><rect class="cls-1" x=".3" y="368.27" width="365.79" height="367.97"/><rect class="cls-1" x="366.09" y="368.27" width="365.79" height="367.97"/><rect class="cls-1" x="731.87" y="368.27" width="365.79" height="367.97"/><rect class="cls-1" x="1097.66" y="368.27" width="365.79" height="367.97"/><rect class="cls-1" x="1463.45" y="368.27" width="365.79" height="367.97"/><rect class="cls-1" x="1829.23" y="368.27" width="365.79" height="367.97"/><rect class="cls-1" x="2195.03" y="368.27" width="365.79" height="367.97"/><rect class="cls-1" x="2560.82" y="368.27" width="365.79" height="367.97"/><rect class="cls-1" x="2926.6" y="368.27" width="365.79" height="367.97"/><rect class="cls-1" x="3292.39" y="368.27" width="365.79" height="367.97"/><rect class="cls-1" x="3658.18" y="368.27" width="365.79" height="367.97"/><rect class="cls-1" x="4023.96" y="368.27" width="365.79" height="367.97"/><rect class="cls-1" x=".3" y="736.24" width="365.79" height="367.97"/><rect class="cls-1" x="366.09" y="736.24" width="365.79" height="367.97"/><rect class="cls-1" x="731.87" y="736.24" width="365.79" height="367.97"/><rect class="cls-1" x="1097.66" y="736.24" width="365.79" height="367.97"/><rect class="cls-1" x="1463.45" y="736.24" width="365.79" height="367.97"/><rect class="cls-1" x="1829.23" y="736.24" width="365.79" height="367.97"/><rect class="cls-1" x="2195.03" y="736.24" width="365.79" height="367.97"/><rect class="cls-1" x="2560.82" y="736.24" width="365.79" height="367.97"/><rect class="cls-1" x="2926.6" y="736.24" width="365.79" height="367.97"/><rect class="cls-1" x="3292.39" y="736.24" width="365.79" height="367.97"/><rect class="cls-1" x="3658.18" y="736.24" width="365.79" height="367.97"/><rect class="cls-1" x="4023.96" y="736.24" width="365.79" height="367.97"/><rect class="cls-1" x=".3" y="1104.21" width="365.79" height="367.97"/><rect class="cls-1" x="366.09" y="1104.21" width="365.79" height="367.97"/><rect class="cls-1" x="731.87" y="1104.21" width="365.79" height="367.97"/><rect class="cls-1" x="1097.66" y="1104.21" width="365.79" height="367.97"/><rect class="cls-1" x="1463.45" y="1104.21" width="365.79" height="367.97"/><rect class="cls-1" x="1829.23" y="1104.21" width="365.79" height="367.97"/><rect class="cls-1" x="2195.03" y="1104.21" width="365.79" height="367.97"/><rect class="cls-1" x="2560.82" y="1104.21" width="365.79" height="367.97"/><rect class="cls-1" x="2926.6" y="1104.21" width="365.79" height="367.97"/><rect class="cls-1" x="3292.39" y="1104.21" width="365.79" height="367.97"/><rect class="cls-1" x="3658.18" y="1104.21" width="365.79" height="367.97"/><rect class="cls-1" x="4023.96" y="1104.21" width="365.79" height="367.97"/><rect class="cls-1" x=".3" y="1472.18" width="365.79" height="367.97"/><rect class="cls-1" x="366.09" y="1472.18" width="365.79" height="367.97"/><rect class="cls-1" x="731.87" y="1472.18" width="365.79" height="367.97"/><rect class="cls-1" x="1097.66" y="1472.18" width="365.79" height="367.97"/><rect class="cls-1" x="1463.45" y="1472.18" width="365.79" height="367.97"/><rect class="cls-1" x="1829.23" y="1472.18" width="365.79" height="367.97"/><rect class="cls-1" x="2195.03" y="1472.18" width="365.79" height="367.97"/><rect class="cls-1" x="2560.82" y="1472.18" width="365.79" height="367.97"/><rect class="cls-1" x="2926.6" y="1472.18" width="365.79" height="367.97"/><rect class="cls-1" x="3292.39" y="1472.18" width="365.79" height="367.97"/><rect class="cls-1" x="3658.18" y="1472.18" width="365.79" height="367.97"/><rect class="cls-1" x="4023.96" y="1472.18" width="365.79" height="367.97"/><rect class="cls-1" x=".3" y="1840.15" width="365.79" height="367.97"/><rect class="cls-1" x="366.09" y="1840.15" width="365.79" height="367.97"/><rect class="cls-1" x="731.87" y="1840.15" width="365.79" height="367.97"/><rect class="cls-1" x="1097.66" y="1840.15" width="365.79" height="367.97"/><rect class="cls-1" x="1463.45" y="1840.15" width="365.79" height="367.97"/><rect class="cls-1" x="1829.23" y="1840.15" width="365.79" height="367.97"/><rect class="cls-1" x="2195.03" y="1840.15" width="365.79" height="367.97"/><rect class="cls-1" x="2560.82" y="1840.15" width="365.79" height="367.97"/><rect class="cls-1" x="2926.6" y="1840.15" width="365.79" height="367.97"/><rect class="cls-1" x="3292.39" y="1840.15" width="365.79" height="367.97"/><rect class="cls-1" x="3658.18" y="1840.15" width="365.79" height="367.97"/><rect class="cls-1" x="4023.96" y="1840.15" width="365.79" height="367.97"/><rect class="cls-1" x=".3" y="2208.12" width="365.79" height="367.97"/><rect class="cls-1" x="366.09" y="2208.12" width="365.79" height="367.97"/><rect class="cls-1" x="731.87" y="2208.12" width="365.79" height="367.97"/><rect class="cls-1" x="1097.66" y="2208.12" width="365.79" height="367.97"/><rect class="cls-1" x="1463.45" y="2208.12" width="365.79" height="367.97"/><rect class="cls-1" x="1829.23" y="2208.12" width="365.79" height="367.97"/><rect class="cls-1" x="2195.03" y="2208.12" width="365.79" height="367.97"/><rect class="cls-1" x="2560.82" y="2208.12" width="365.79" height="367.97"/><rect class="cls-1" x="2926.6" y="2208.12" width="365.79" height="367.97"/><rect class="cls-1" x="3292.39" y="2208.12" width="365.79" height="367.97"/><rect class="cls-1" x="3658.18" y="2208.12" width="365.79" height="367.97"/><rect class="cls-1" x="4023.96" y="2208.12" width="365.79" height="367.97"/><rect class="cls-1" x=".3" y="2576.08" width="365.79" height="367.97"/><rect class="cls-1" x="366.09" y="2576.08" width="365.79" height="367.97"/><rect class="cls-1" x="731.87" y="2576.08" width="365.79" height="367.97"/><rect class="cls-1" x="1097.66" y="2576.08" width="365.79" height="367.97"/><rect class="cls-1" x="1463.45" y="2576.08" width="365.79" height="367.97"/><rect class="cls-1" x="1829.23" y="2576.08" width="365.79" height="367.97"/><rect class="cls-1" x="2195.03" y="2576.08" width="365.79" height="367.97"/><rect class="cls-1" x="2560.82" y="2576.08" width="365.79" height="367.97"/><rect class="cls-1" x="2926.6" y="2576.08" width="365.79" height="367.97"/><rect class="cls-1" x="3292.39" y="2576.08" width="365.79" height="367.97"/><rect class="cls-1" x="3658.18" y="2576.08" width="365.79" height="367.97"/><rect class="cls-1" x="4023.96" y="2576.08" width="365.79" height="367.97"/><rect class="cls-1" x=".3" y="2944.06" width="365.79" height="367.97"/><rect class="cls-1" x="366.09" y="2944.06" width="365.79" height="367.97"/><rect class="cls-1" x="731.87" y="2944.06" width="365.79" height="367.97"/><rect class="cls-1" x="1097.66" y="2944.06" width="365.79" height="367.97"/><rect class="cls-1" x="1463.45" y="2944.06" width="365.79" height="367.97"/><rect class="cls-1" x="1829.23" y="2944.06" width="365.79" height="367.97"/><rect class="cls-1" x="2195.03" y="2944.06" width="365.79" height="367.97"/><rect class="cls-1" x="2560.82" y="2944.06" width="365.79" height="367.97"/><rect class="cls-1" x="2926.6" y="2944.06" width="365.79" height="367.97"/><rect class="cls-1" x="3292.39" y="2944.06" width="365.79" height="367.97"/><rect class="cls-1" x="3658.18" y="2944.06" width="365.79" height="367.97"/><rect class="cls-1" x="4023.96" y="2944.06" width="365.79" height="367.97"/><rect class="cls-1" x=".3" y="3312.03" width="365.79" height="367.97"/><rect class="cls-1" x="366.09" y="3312.03" width="365.79" height="367.97"/><rect class="cls-1" x="731.87" y="3312.03" width="365.79" height="367.97"/><rect class="cls-1" x="1097.66" y="3312.03" width="365.79" height="367.97"/><rect class="cls-1" x="1463.45" y="3312.03" width="365.79" height="367.97"/><rect class="cls-1" x="1829.23" y="3312.03" width="365.79" height="367.97"/><rect class="cls-1" x="2195.03" y="3312.03" width="365.79" height="367.97"/><rect class="cls-1" x="2560.82" y="3312.03" width="365.79" height="367.97"/><rect class="cls-1" x="2926.6" y="3312.03" width="365.79" height="367.97"/><rect class="cls-1" x="3292.39" y="3312.03" width="365.79" height="367.97"/><rect class="cls-1" x="3658.18" y="3312.03" width="365.79" height="367.97"/><rect class="cls-1" x="4023.96" y="3312.03" width="365.79" height="367.97"/><rect class="cls-1" x=".3" y="3679.99" width="365.79" height="367.97"/><rect class="cls-1" x="366.09" y="3679.99" width="365.79" height="367.97"/><rect class="cls-1" x="731.87" y="3679.99" width="365.79" height="367.97"/><rect class="cls-1" x="1097.66" y="3679.99" width="365.79" height="367.97"/><rect class="cls-1" x="1463.45" y="3679.99" width="365.79" height="367.97"/><rect class="cls-1" x="1829.23" y="3679.99" width="365.79" height="367.97"/><rect class="cls-1" x="2195.03" y="3679.99" width="365.79" height="367.97"/><rect class="cls-1" x="2560.82" y="3679.99" width="365.79" height="367.97"/><rect class="cls-1" x="2926.6" y="3679.99" width="365.79" height="367.97"/><rect class="cls-1" x="3292.39" y="3679.99" width="365.79" height="367.97"/><rect class="cls-1" x="3658.18" y="3679.99" width="365.79" height="367.97"/><rect class="cls-1" x="4023.96" y="3679.99" width="365.79" height="367.97"/><rect class="cls-1" x=".3" y="4047.97" width="365.79" height="367.97"/><rect class="cls-1" x="366.09" y="4047.97" width="365.79" height="367.97"/><rect class="cls-1" x="731.87" y="4047.97" width="365.79" height="367.97"/><rect class="cls-1" x="1097.66" y="4047.97" width="365.79" height="367.97"/><rect class="cls-1" x="1463.45" y="4047.97" width="365.79" height="367.97"/><rect class="cls-1" x="1829.23" y="4047.97" width="365.79" height="367.97"/><rect class="cls-1" x="2195.03" y="4047.97" width="365.79" height="367.97"/><rect class="cls-1" x="2560.82" y="4047.97" width="365.79" height="367.97"/><rect class="cls-1" x="2926.6" y="4047.97" width="365.79" height="367.97"/><rect class="cls-1" x="3292.39" y="4047.97" width="365.79" height="367.97"/><rect class="cls-1" x="3658.18" y="4047.97" width="365.79" height="367.97"/><rect class="cls-1" x="4023.96" y="4047.97" width="365.79" height="367.97"/></svg>