<svg width="92" height="85" viewBox="0 0 92 85" fill="none" xmlns="http://www.w3.org/2000/svg">
<path d="M59.8743 2.48592L64.4937 8.39464L72.042 7.92816C72.5138 7.88929 72.9462 8.18084 73.0838 8.62788L75.3837 15.7611L82.6372 17.8602C83.0893 17.9963 83.3841 18.4045 83.3841 18.8709L83.0893 26.354L89.183 30.7856C89.5564 31.0577 89.694 31.563 89.5171 31.9906L86.6472 38.91L90.8342 45.1297C91.0897 45.5185 91.0504 46.0238 90.7359 46.3737L85.6447 51.9131L87.4335 59.1824C87.5514 59.6294 87.3352 60.0959 86.9027 60.3291L80.1997 63.8083L79.3544 71.233C79.2955 71.6995 78.9416 72.0688 78.4699 72.1271L70.9805 73.1378L67.6192 79.8434C67.403 80.2516 66.9312 80.4848 66.4791 80.3877L59.088 78.7939L53.6037 83.964C53.2695 84.2944 52.7388 84.3333 52.3457 84.0806L45.9571 80.0767L39.0182 83.0699C38.5857 83.2643 38.0746 83.1282 37.7994 82.7589L33.18 76.8502L25.6317 77.3167C25.16 77.3556 24.7275 77.064 24.5899 76.617L22.29 69.4837L15.0366 67.3846C14.5845 67.2485 14.2896 66.8404 14.2896 66.3739L14.5845 58.8908L8.4908 54.4593C8.11732 54.1872 7.97972 53.6818 8.15663 53.2542L11.0266 46.3348L6.83961 40.1151C6.58407 39.7264 6.62338 39.221 6.9379 38.8712L12.0291 33.3317L10.2403 26.0625C10.1223 25.6154 10.3386 25.149 10.771 24.9157L17.4741 21.4366L18.3193 14.0118C18.3783 13.5453 18.7321 13.176 19.2039 13.1177L26.6932 12.107L30.0546 5.40141C30.2708 4.99324 30.7426 4.76 31.1947 4.85719L38.5857 6.45098L44.07 1.28086C44.4042 0.950437 44.935 0.911564 45.3281 1.16424L51.7166 5.16817L58.6556 2.17494C59.088 1.98057 59.5991 2.11663 59.8743 2.48592Z" fill="black" stroke="black" stroke-miterlimit="10"/>
<path d="M54.2024 2.48592L58.8218 8.39464L66.3701 7.92816C66.8419 7.88929 67.2744 8.18084 67.412 8.62788L69.7118 15.7611L76.9653 17.8602C77.4174 17.9963 77.7122 18.4045 77.7122 18.8709L77.4174 26.354L83.5111 30.7856C83.8846 31.0577 84.0222 31.563 83.8452 31.9906L80.9753 38.91L85.1623 45.1297C85.4178 45.5185 85.3785 46.0238 85.064 46.3737L79.9728 51.9131L81.7616 59.1824C81.8795 59.6294 81.6633 60.0959 81.2309 60.3291L74.5278 63.8083L73.6826 71.233C73.6236 71.6995 73.2698 72.0688 72.798 72.1271L65.3087 73.1378L61.9473 79.8434C61.7311 80.2516 61.2593 80.4848 60.8072 80.3877L53.4161 78.7939L47.9318 83.964C47.5977 84.2944 47.0669 84.3333 46.6738 84.0806L40.2852 80.0767L33.3463 83.0699C32.9139 83.2643 32.4028 83.1282 32.1276 82.7589L27.5082 76.8502L19.9599 77.3167C19.4881 77.3556 19.0556 77.064 18.918 76.617L16.6182 69.4837L9.36472 67.3846C8.91261 67.2485 8.61776 66.8404 8.61776 66.3739L8.91261 58.8908L2.81893 54.4593C2.44544 54.1872 2.30785 53.6818 2.48476 53.2542L5.35469 46.3348L1.16774 40.1151C0.912196 39.7264 0.95151 39.221 1.26602 38.8712L6.3572 33.3317L4.5684 26.0625C4.45046 25.6154 4.66669 25.149 5.09914 24.9157L11.8022 21.4366L12.6474 14.0118C12.7064 13.5453 13.0602 13.176 13.532 13.1177L21.0213 12.107L24.3827 5.40141C24.5989 4.99324 25.0707 4.76 25.5228 4.85719L32.9139 6.45098L38.3982 1.28086C38.7323 0.950437 39.2631 0.911564 39.6562 1.16424L46.0448 5.16817L52.9837 2.17494C53.4161 1.98057 53.9272 2.11663 54.2024 2.48592Z" fill="white" stroke="black" stroke-miterlimit="10"/>
<path d="M53.7945 32.8635C54.2493 32.6621 54.6761 32.4552 55.0483 32.2465C56.9154 31.1843 58.5868 29.6021 59.4707 28.0409C59.8282 27.5839 61.4955 23.5628 60.3227 20.3896C59.6423 18.5381 58.1586 17.3439 55.8683 16.8522C53.5704 16.6474 51.4765 17.0239 49.6366 17.9487C48.6702 17.0275 47.3899 16.5488 45.7699 16.5249C42.8959 16.8409 40.5327 18.1368 38.802 20.3699C36.0442 23.9057 35.4747 29.0187 35.7498 32.0661C30.5484 32.9853 26.8058 34.5658 26.7623 34.5804C26.6676 34.6194 17.6272 38.6595 17.7942 49.3518C19.2494 60.5129 27.5475 60.9646 30.274 61.1142C30.521 61.1272 30.731 61.1359 30.8976 61.1591C31.1737 61.1862 31.7577 61.1379 32.5794 61.0322C34.4729 60.7886 37.6161 60.2413 41.0887 59.6427C45.0668 58.9523 49.17 58.2458 51.9656 57.8862C54.7612 57.5266 62.9997 54.224 62.6085 44.3111C62.4869 41.1189 60.6839 37.9195 57.532 35.3047C56.37 34.3462 55.0891 33.5191 53.7933 32.8547L53.7945 32.8635Z" fill="#040000" stroke="white" stroke-miterlimit="10"/>
<path d="M40.9375 35.0949C40.2891 30.8713 41.5086 20.224 50.5683 19.2195C57.3041 19.3271 56.0786 28.0718 55.719 28.7882C55.0484 30.7957 53.4656 33.117 50.8014 34.5409" fill="white"/>
<path d="M40.9375 35.0949C40.2891 30.8713 41.5086 20.224 50.5683 19.2195C57.3041 19.3271 56.0786 28.0718 55.719 28.7882C55.0484 30.7957 53.4656 33.117 50.8014 34.5409" stroke="black" stroke-miterlimit="10"/>
<path d="M50.2353 32.7495C55.1298 32.1199 65.1202 37.8225 65.4222 45.4772C65.8175 55.5594 57.1847 58.4212 55.0858 58.6912C48.8248 59.4965 35.6362 62.1134 34.0994 61.9626C32.0462 61.7531 22.8536 62.3011 21.308 50.4547C21.1428 39.914 30.069 36.0405 30.069 36.0405C30.069 36.0405 34.7825 34.0402 41.0704 33.2314C44.5626 32.7822 50.2442 32.7483 50.2442 32.7483L50.2353 32.7495Z" fill="#FADF0B" stroke="black" stroke-miterlimit="10"/>
<path d="M51.2624 59.5401C63.0258 40.8974 49.7707 33.5149 49.7707 33.5149C49.7707 33.5149 53.8853 33.3073 53.8573 33.302C55.9385 34.8929 65.5701 41.9373 54.9863 58.7127" fill="black"/>
<path d="M48.241 34.4202C47.3034 32.0656 49.7598 18.4713 61.1908 19.4672C68.3001 21.0279 65.0844 29.421 64.5482 30.1066C63.7129 31.5544 62.1755 33.1193 60.2225 34.2194C58.5826 35.1452 55.5873 36.2632 52.7013 35.9374" fill="white"/>
<path d="M48.241 34.4202C47.3034 32.0656 49.7598 18.4713 61.1908 19.4672C68.3001 21.0279 65.0844 29.421 64.5482 30.1066C63.7129 31.5544 62.1755 33.1193 60.2225 34.2194C58.5826 35.1452 55.5873 36.2632 52.7013 35.9374" stroke="black" stroke-miterlimit="10" stroke-linecap="round"/>
<path d="M31.9091 46.4932C32.4243 42.7982 31.5914 39.6351 30.049 39.4283C28.5065 39.2214 26.8385 42.0491 26.3233 45.7442C25.8082 49.4392 26.641 52.6023 28.1835 52.8091C29.726 53.0159 31.394 50.1882 31.9091 46.4932Z" fill="white" stroke="black" stroke-miterlimit="10"/>
<path d="M32.2839 45.5532C32.6692 42.7893 32.0747 40.427 30.9561 40.277C29.8374 40.127 28.6182 42.246 28.2329 45.01C27.8475 47.774 28.442 50.1363 29.5607 50.2863C30.6793 50.4363 31.8986 48.3172 32.2839 45.5532Z" fill="black"/>
<path d="M36.7959 45.8633C37.311 42.1683 36.4782 39.0052 34.9357 38.7984C33.3932 38.5915 31.7252 41.4193 31.2101 45.1143C30.6949 48.8093 31.5278 51.9724 33.0702 52.1792C34.6127 52.3861 36.2807 49.5583 36.7959 45.8633Z" fill="white" stroke="black" stroke-miterlimit="10"/>
<path d="M37.1745 44.9302C37.5599 42.1662 36.9654 39.804 35.8467 39.6539C34.728 39.5039 33.5088 41.623 33.1235 44.387C32.7382 47.1509 33.3326 49.5132 34.4513 49.6632C35.57 49.8132 36.7892 47.6942 37.1745 44.9302Z" fill="black"/>
<path d="M25.4259 52.7255C25.4259 52.7255 23.3984 52.9863 23.5794 54.357C23.7824 55.8946 28.1921 55.5151 28.1921 55.5151C28.1921 55.5151 31.9439 55.3809 33.4963 54.1358" stroke="black" stroke-linecap="round" stroke-linejoin="round"/>
<path d="M36.338 51.3218C36.338 51.3218 31.0386 52.5307 34.8747 56.4067" stroke="black" stroke-linejoin="round"/>
<path d="M28.3133 43.6166L29.8396 43.2058L28.7335 41.5699L28.3133 43.6166Z" fill="white"/>
<path d="M32.9852 43.0082L34.5025 42.5986L33.4054 40.9615L32.9852 43.0082Z" fill="white"/>
<path d="M42.1986 60.7087C53.962 42.066 41.0661 33.4131 41.0661 33.4131C41.0661 33.4131 46.378 32.9175 46.3411 32.9133C48.4222 34.5042 56.9636 43.4045 46.3876 60.1699" fill="black"/>
</svg>
