<svg width="173" height="120" viewBox="0 0 173 120" fill="none" xmlns="http://www.w3.org/2000/svg">
<path d="M124.113 16.9871C113.763 21.2272 107.345 30.857 106.507 41.2908C98.5883 34.4448 87.2585 32.0864 76.9094 36.3265C68.5036 39.7704 62.7589 46.7726 60.3733 54.8323C53.009 50.7399 44.0123 49.8046 35.6065 53.2485C20.9492 59.2537 13.9279 76.0214 19.9331 90.6788C25.9383 105.336 42.706 112.357 57.3634 106.352C65.7691 102.908 71.5138 95.9061 73.8994 87.8464C81.2638 91.9388 90.2605 92.874 98.6662 89.4302C109.015 85.1901 115.434 75.5603 116.272 65.1265C124.191 71.9725 135.52 74.3308 145.869 70.0907C160.527 64.0855 167.548 47.3178 161.543 32.6605C155.538 18.0031 138.77 10.9819 124.113 16.9871Z" fill="black"/>
<path d="M115.796 13.5047C105.447 17.7448 99.0289 27.3746 98.1902 37.8083C90.2719 30.9623 78.9421 28.604 68.593 32.8441C60.1872 36.288 54.4425 43.2902 52.0569 51.3498C44.7256 47.2713 35.6958 46.3222 27.2901 49.7661C12.6327 55.7713 5.61151 72.539 11.6167 87.1964C17.6219 101.854 34.3896 108.875 49.047 102.87C57.4527 99.4259 63.1974 92.4237 65.583 84.364C72.9474 88.4564 81.9441 89.3916 90.3498 85.9477C100.699 81.7077 107.117 72.0779 107.956 61.6441C115.874 68.4901 127.204 70.8484 137.553 66.6083C152.21 60.6031 159.232 43.8354 153.226 29.1781C147.221 14.5207 130.477 7.48988 115.796 13.5047Z" fill="white" stroke="black" stroke-width="2" stroke-miterlimit="10"/>
</svg>
