<?xml version="1.0" encoding="UTF-8"?><svg id="_레이어_3" xmlns="http://www.w3.org/2000/svg" viewBox="0 0 224 193"><path d="M166.17,77.03c2.07-.58,4.01-1.23,5.74-1.92,8.66-3.45,16.76-9.32,21.53-15.53,1.8-1.75,11.43-18.18,8.41-32.71-1.76-8.47-7.36-14.55-16.84-18.13-9.68-2.29-18.88-1.95-27.31.91-3.54-4.58-8.74-7.45-15.62-8.56-12.49-.39-23.36,3.78-32.18,12.39-13.97,13.64-19.61,35.52-20.33,48.93-22.79.8-39.77,5.32-39.97,5.38-.41.11-41.59,12.09-47.52,58.62-.74,49.36,34.43,56.47,45.98,58.81,1.06.21,1.95.39,2.64.57,1.15.29,3.68.44,7.26.48,8.24.11,22.01-.31,37.24-.77,17.41-.53,35.42-1.08,47.56-.91s49.42-9.09,53.94-52.38c1.46-13.94-4.26-28.95-16.08-42.25-4.36-4.9-9.32-9.28-14.46-12.93Z" style="fill:#040000;"/><path d="M109.14,78.1c-.14-18.75,11.73-64.24,51.04-63.02,28.7,4.64,18.01,41.86,16.03,44.74-4.12,8.31-12.34,17.39-24.61,21.96" style="fill:#fff; stroke:#000; stroke-miterlimit:10; stroke-width:2px;"/><path d="M150.35,73.64c21.29.29,60.43,31.24,56.94,64.65-4.6,44.05-43.28,51.14-52.41,51.02-27.24-.37-85.23,2.87-91.72,1.24-8.64-2.17-48.26-5.48-47.48-57.88,5.85-45.9,46.4-57.18,46.4-57.18,0,0,21.37-5.8,48.75-5.43,15.21.2,39.5,3.57,39.5,3.57Z" style="fill:#ffc931; stroke:#000; stroke-miterlimit:10; stroke-width:2.3px;"/><path d="M138.04,190.61c61.89-73.71,9.84-113.96,9.84-113.96,0,0,17.71,1.63,17.58,1.6,7.89,8.2,44.66,44.76-11.01,111.06"/><path d="M140.79,79.66c-2.54-10.79,16.42-68.34,64.65-56.94,29.42,11.15,10.44,45.62,7.71,48.27-4.46,5.78-12.01,11.61-21.03,15.21-7.59,3.03-21.08,6.03-33.21,2.83" style="fill:#fff; stroke:#000; stroke-linecap:round; stroke-miterlimit:10; stroke-width:2px;"/><ellipse cx="51.78" cy="118.65" rx="29.64" ry="12.17" transform="translate(-76.54 135.78) rotate(-74.02)" style="fill:#fff; stroke:#000; stroke-miterlimit:10; stroke-width:2px;"/><ellipse cx="57.19" cy="115.74" rx="22.15" ry="8.81" transform="translate(-69.82 138.86) rotate(-74.02)"/><ellipse cx="73.08" cy="118.94" rx="29.64" ry="12.17" transform="translate(-61.38 156.45) rotate(-74.02)" style="fill:#fff; stroke:#000; stroke-miterlimit:10; stroke-width:2px;"/><ellipse cx="78.48" cy="116.02" rx="22.15" ry="8.81" transform="translate(-54.66 159.54) rotate(-74.02)"/><path d="M32.6,146.14s-8.81,0-8.81,6.08c0,6.8,19.09,7.61,19.09,7.61,0,0,14.12.17,22.12-2.83" style="fill:none; stroke:#000; stroke-linecap:round; stroke-linejoin:round; stroke-width:2px;"/><path d="M79.4,145.71s-23.41,1.97-9.41,21.17" style="fill:none; stroke:#000; stroke-linejoin:round; stroke-width:2px;"/><polyline points="49.73 106.06 56.48 105.23 52.78 97.46 49.73 106.06" style="fill:#fff;"/><polyline points="71.02 106.34 77.77 105.51 74.07 97.74 71.02 106.34" style="fill:#fff;"/><path d="M157.66,69.24s7.99-28.8,40.07-39.01" style="fill:none; stroke:#000; stroke-miterlimit:10; stroke-width:2px;"/><path d="M98.58,190.08c61.89-73.71,12.19-119.27,12.19-119.27,0,0,22.99,1.11,22.86,1.09,7.89,8.2,38.87,52.13-16.8,118.43"/></svg>