<svg width="335" height="290" viewBox="0 0 335 290" fill="none" xmlns="http://www.w3.org/2000/svg">
<g clip-path="url(#clip0_1242_208)">
<path d="M249.016 115.265C252.157 114.385 255.101 113.399 257.726 112.352C270.867 107.117 283.159 98.2092 290.397 88.7859C293.128 86.1303 307.741 61.1986 303.159 39.15C300.488 26.2972 291.99 17.0711 277.605 11.6387C262.916 8.1637 248.955 8.67963 236.163 13.0195C230.791 6.06962 222.901 1.71453 212.461 0.030163C193.508 -0.561643 177.013 5.76613 163.629 18.8314C142.43 39.5294 133.872 72.7312 132.779 93.0802C98.1965 94.2942 72.4302 101.153 72.1267 101.244C71.5046 101.411 9.01594 119.59 0.0174551 190.197C-1.10546 265.098 52.2633 275.888 69.7898 279.438C71.3983 279.757 72.7489 280.03 73.7959 280.303C75.541 280.743 79.3801 280.971 84.8126 281.032C97.3164 281.199 118.212 280.561 141.322 279.863C167.741 279.059 195.071 278.224 213.492 278.482C231.914 278.74 288.485 264.689 295.344 198.998C297.559 177.845 288.879 155.068 270.943 134.886C264.327 127.451 256.8 120.804 249.001 115.265H249.016Z" fill="#E8E8E8"/>
<path d="M162.475 116.905C162.262 88.4523 180.274 19.4235 239.925 21.2748C283.476 28.3158 267.254 84.7953 264.25 89.1655C257.998 101.776 245.525 115.554 226.905 122.489" fill="white"/>
<path d="M162.475 116.905C162.262 88.4523 180.274 19.4235 239.925 21.2748C283.476 28.3158 267.254 84.7953 264.25 89.1655C257.998 101.776 245.525 115.554 226.905 122.489" stroke="#E8E8E8" stroke-width="3.0349" stroke-miterlimit="10"/>
<path d="M225.005 110.137C257.312 110.577 316.705 157.542 311.409 208.24C304.428 275.084 245.734 285.843 231.879 285.66C190.544 285.099 102.547 290.016 92.6986 287.542C79.5878 284.249 19.4664 279.226 20.6501 199.712C29.5271 130.061 91.0598 112.944 91.0598 112.944C91.0598 112.944 123.488 104.143 165.035 104.704C188.116 105.008 224.975 110.122 224.975 110.122L225.005 110.137Z" fill="white" stroke="#E8E8E8" stroke-width="3.49014" stroke-miterlimit="10"/>
<path d="M206.324 287.633C300.239 175.782 221.256 114.704 221.256 114.704C221.256 114.704 248.13 117.178 247.933 117.132C259.905 129.575 315.702 185.053 231.226 285.66" fill="#E8E8E8"/>
<path d="M210.499 119.257C206.645 102.883 235.416 15.5541 308.602 32.853C353.246 49.7726 324.445 102.079 320.302 106.1C313.534 114.871 302.077 123.718 288.39 129.181C276.873 133.779 256.402 138.331 237.995 133.475" fill="white"/>
<path d="M210.499 119.257C206.645 102.883 235.416 15.5541 308.602 32.853C353.246 49.7726 324.445 102.079 320.302 106.1C313.534 114.871 302.077 123.718 288.39 129.181C276.873 133.779 256.402 138.331 237.995 133.475" stroke="#E8E8E8" stroke-width="3.0349" stroke-miterlimit="10" stroke-linecap="round"/>
<path d="M93.1867 183.528C100.025 159.647 97.6204 138.012 87.8153 135.204C78.0101 132.396 64.5178 149.479 57.6792 173.359C50.8406 197.24 53.2455 218.875 63.0506 221.683C72.8558 224.491 86.3481 207.408 93.1867 183.528Z" fill="white" stroke="#E8E8E8" stroke-width="3.0349" stroke-miterlimit="10"/>
<path d="M96.4967 177.701C101.607 159.855 99.9959 143.74 92.8978 141.707C85.7998 139.675 75.9028 152.494 70.7924 170.34C65.6819 188.185 67.2932 204.3 74.3912 206.333C81.4892 208.365 91.3862 195.546 96.4967 177.701Z" fill="#E8E8E8"/>
<path d="M125.519 183.955C132.357 160.075 129.952 138.44 120.147 135.632C110.342 132.824 96.8498 149.907 90.0112 173.787C83.1727 197.668 85.5775 219.303 95.3827 222.11C105.188 224.918 118.68 207.836 125.519 183.955Z" fill="white" stroke="#E8E8E8" stroke-width="3.0349" stroke-miterlimit="10"/>
<path d="M128.809 178.144C133.92 160.298 132.308 144.183 125.21 142.151C118.112 140.118 108.215 152.937 103.105 170.783C97.9944 188.629 99.6057 204.743 106.704 206.776C113.802 208.809 123.699 195.99 128.809 178.144Z" fill="#E8E8E8"/>
<path d="M46.3258 220.137C46.3258 220.137 32.957 220.137 32.957 229.363C32.957 239.681 61.9252 240.911 61.9252 240.911C61.9252 240.911 83.3516 241.169 95.4912 236.616" stroke="#E8E8E8" stroke-width="3.0349" stroke-linecap="round" stroke-linejoin="round"/>
<path d="M117.345 219.5C117.345 219.5 81.8211 222.489 103.065 251.624" stroke="#E8E8E8" stroke-width="3.0349" stroke-linejoin="round"/>
<path d="M72.3203 159.317L82.5631 158.057L76.9485 146.267L72.3203 159.317Z" fill="white"/>
<path d="M104.629 159.757L114.872 158.498L109.257 146.707L104.629 159.757Z" fill="white"/>
<path d="M236.102 103.445C236.102 103.445 248.226 59.7422 296.906 44.249" stroke="#E8E8E8" stroke-width="3.0349" stroke-miterlimit="10"/>
<path d="M146.453 286.828C240.368 174.977 164.951 105.842 164.951 105.842C164.951 105.842 199.837 107.526 199.64 107.496C211.612 119.939 258.623 186.601 174.147 287.208" fill="#E8E8E8"/>
</g>
<defs>
<clipPath id="clip0_1242_208">
<rect width="334.78" height="290" fill="white"/>
</clipPath>
</defs>
</svg>
