<svg width="68" height="71" viewBox="0 0 68 71" fill="none" xmlns="http://www.w3.org/2000/svg">
<path d="M44.5244 6.22309L47.8588 10.9325L53.5183 10.7187C53.8722 10.6977 54.1898 10.9342 54.2835 11.2862L55.8563 16.9062L61.2416 18.6913C61.5772 18.8066 61.7894 19.1315 61.7796 19.496L61.403 25.3376L65.8717 28.9221C66.1455 29.1422 66.238 29.5398 66.0967 29.8704L63.8044 35.2201L66.8086 40.1639C66.9918 40.4728 66.9518 40.8669 66.7091 41.134L62.7831 45.361L63.9704 51.0771C64.0494 51.4288 63.8778 51.789 63.5493 51.9626L58.4597 54.5475L57.6723 60.3325C57.6184 60.6959 57.3459 60.9774 56.9916 61.0135L51.3649 61.6538L48.7093 66.8267C48.5389 67.1413 48.1809 67.3141 47.8446 67.2292L42.3457 65.8362L38.1331 69.7668C37.8761 70.0183 37.478 70.0381 37.189 69.8328L32.4908 66.5765L27.2347 68.777C26.907 68.9203 26.5273 68.8037 26.329 68.5097L22.9946 63.8003L17.3351 64.0141C16.9812 64.0351 16.6636 63.7986 16.5699 63.4465L14.9971 57.8266L9.61182 56.0414C9.27626 55.9261 9.06407 55.6013 9.07379 55.2368L9.45042 49.3952L4.98177 45.8107C4.70789 45.5906 4.61543 45.1929 4.75676 44.8623L7.04904 39.5126L4.0448 34.5688C3.86163 34.2599 3.90159 33.8658 4.14429 33.5987L8.07037 29.3717L6.88298 23.6556C6.80402 23.304 6.97558 22.9438 7.30413 22.7701L12.3937 20.1852L13.1811 14.4002C13.235 14.0369 13.5075 13.7554 13.8618 13.7192L19.4885 13.0789L22.1442 7.9061C22.3145 7.59146 22.6725 7.41862 23.0089 7.50359L28.5077 8.89655L32.7203 4.96596C32.9774 4.71443 33.3754 4.69465 33.6644 4.89994L38.3627 8.15623L43.6187 5.95575C43.9464 5.8125 44.3261 5.92902 44.5244 6.22309Z" fill="black" stroke="black" stroke-width="1.73595" stroke-miterlimit="10"/>
<path d="M41.5244 3.22309L44.8588 7.9325L50.5183 7.71865C50.8722 7.6977 51.1898 7.93415 51.2835 8.28623L52.8563 13.9062L58.2416 15.6913C58.5772 15.8066 58.7894 16.1315 58.7796 16.496L58.403 22.3376L62.8717 25.9221C63.1455 26.1422 63.238 26.5398 63.0967 26.8704L60.8044 32.2201L63.8086 37.1639C63.9918 37.4728 63.9518 37.8669 63.7091 38.134L59.7831 42.361L60.9704 48.0771C61.0494 48.4288 60.8778 48.789 60.5493 48.9626L55.4597 51.5475L54.6723 57.3325C54.6184 57.6959 54.3459 57.9774 53.9916 58.0135L48.3649 58.6538L45.7093 63.8267C45.5389 64.1413 45.1809 64.3141 44.8446 64.2292L39.3457 62.8362L35.1331 66.7668C34.8761 67.0183 34.478 67.0381 34.189 66.8328L29.4908 63.5765L24.2347 65.777C23.907 65.9203 23.5273 65.8037 23.329 65.5097L19.9946 60.8003L14.3351 61.0141C13.9812 61.0351 13.6636 60.7986 13.5699 60.4465L11.9971 54.8266L6.61182 53.0414C6.27626 52.9261 6.06407 52.6013 6.07379 52.2368L6.45042 46.3952L1.98177 42.8107C1.70789 42.5906 1.61543 42.1929 1.75676 41.8623L4.04904 36.5126L1.0448 31.5688C0.861632 31.2599 0.901589 30.8658 1.14429 30.5987L5.07037 26.3717L3.88298 20.6556C3.80402 20.304 3.97558 19.9438 4.30413 19.7701L9.39374 17.1852L10.1811 11.4002C10.235 11.0369 10.5075 10.7554 10.8618 10.7192L16.4885 10.0789L19.1442 4.9061C19.3145 4.59146 19.6725 4.41862 20.0089 4.50359L25.5077 5.89655L29.7203 1.96596C29.9774 1.71443 30.3754 1.69465 30.6644 1.89994L35.3627 5.15623L40.6187 2.95575C40.9464 2.8125 41.3261 2.92902 41.5244 3.22309Z" fill="white" stroke="black" stroke-width="1.73595" stroke-miterlimit="10"/>
<path d="M41.124 26.7855C41.4912 26.6157 41.8358 26.4414 42.1361 26.2655C43.6434 25.3703 44.9926 24.0369 45.7061 22.7211C45.9947 22.3359 47.3407 18.9471 46.394 16.2728C45.8447 14.7124 44.6469 13.706 42.7981 13.2915C40.9431 13.1189 39.2528 13.4363 37.7676 14.2156C36.9875 13.4393 35.9539 13.0359 34.6462 13.0157C32.3262 13.2821 30.4185 14.3741 29.0214 16.2562C26.7951 19.2361 26.3354 23.5452 26.5575 26.1135C22.3587 26.8882 19.3375 28.2202 19.3024 28.2324C19.2259 28.2653 11.928 31.6702 12.0629 40.6815C13.2375 50.0878 19.9362 50.4684 22.1372 50.5946C22.3365 50.6055 22.5061 50.6128 22.6406 50.6324C22.8634 50.6552 23.3349 50.6145 23.9982 50.5254C25.5267 50.3201 28.0641 49.8589 30.8673 49.3544C34.0786 48.7726 37.3909 48.1771 39.6476 47.8741C41.9044 47.571 48.5549 44.7877 48.2392 36.4333C48.141 33.743 46.6855 31.0466 44.1411 28.8429C43.2031 28.0351 42.1691 27.338 41.1231 26.7781L41.124 26.7855Z" fill="#E8E8E8"/>
<path d="M30.7427 28.6707C30.2193 25.1112 31.2038 16.1379 38.5171 15.2913C43.9546 15.382 42.9653 22.7519 42.6751 23.3556C42.1337 25.0474 40.856 27.0038 38.7053 28.2039" fill="white"/>
<path d="M30.7427 28.6707C30.2193 25.1112 31.2038 16.1379 38.5171 15.2913C43.9546 15.382 42.9653 22.7519 42.6751 23.3556C42.1337 25.0474 40.856 27.0038 38.7053 28.2039" stroke="#E8E8E8" stroke-width="1.92112" stroke-miterlimit="10"/>
<path d="M38.2492 26.6912C42.2003 26.1606 50.2651 30.9666 50.5088 37.4178C50.828 45.9149 43.8592 48.3267 42.1648 48.5543C37.1106 49.233 26.4641 51.4384 25.2236 51.3113C23.5661 51.1348 16.1454 51.5966 14.8977 41.6127C14.7644 32.7293 21.97 29.4648 21.97 29.4648C21.97 29.4648 25.775 27.779 30.8509 27.0973C33.67 26.7187 38.2564 26.6902 38.2564 26.6902L38.2492 26.6912Z" fill="white" stroke="#E8E8E8" stroke-width="1.73595" stroke-miterlimit="10"/>
<path d="M39.0791 49.2693C48.5751 33.5576 37.875 27.3358 37.875 27.3358C37.875 27.3358 41.1964 27.1608 41.1739 27.1563C42.8539 28.4971 50.629 34.434 42.0852 48.5719" fill="#E8E8E8"/>
<path d="M36.6357 28.0976C35.8788 26.1132 37.8618 14.6562 47.0894 15.4955C52.8284 16.8108 50.2325 23.8844 49.7996 24.4621C49.1254 25.6823 47.8843 27.0012 46.3077 27.9283C44.9839 28.7085 42.566 29.6508 40.2363 29.3762" fill="white"/>
<path d="M36.6357 28.0976C35.8788 26.1132 37.8618 14.6562 47.0894 15.4955C52.8284 16.8108 50.2325 23.8844 49.7996 24.4621C49.1254 25.6823 47.8843 27.0012 46.3077 27.9283C44.9839 28.7086 42.566 29.6508 40.2363 29.3762" stroke="#E8E8E8" stroke-width="1.73595" stroke-miterlimit="10" stroke-linecap="round"/>
<path d="M23.4535 38.2721C23.8693 35.158 23.197 32.4922 21.9518 32.3179C20.7067 32.1436 19.3602 34.5267 18.9443 37.6408C18.5285 40.7548 19.2008 43.4206 20.446 43.5949C21.6911 43.7693 23.0376 41.3861 23.4535 38.2721Z" fill="white" stroke="#E8E8E8" stroke-width="1.38876" stroke-miterlimit="10"/>
<path d="M23.7592 37.4793C24.0703 35.1499 23.5904 33.159 22.6873 33.0326C21.7843 32.9062 20.8001 34.692 20.489 37.0215C20.1779 39.3509 20.6578 41.3417 21.5609 41.4682C22.4639 41.5946 23.4481 39.8087 23.7592 37.4793Z" fill="#E8E8E8"/>
<path d="M27.3988 37.7437C27.8146 34.6297 27.1423 31.9639 25.8971 31.7896C24.652 31.6152 23.3055 33.9984 22.8897 37.1125C22.4738 40.2265 23.1461 42.8923 24.3913 43.0666C25.6364 43.2409 26.9829 40.8578 27.3988 37.7437Z" fill="white" stroke="#E8E8E8" stroke-width="1.38876" stroke-miterlimit="10"/>
<path d="M27.7084 36.9578C28.0195 34.6284 27.5396 32.6375 26.6365 32.5111C25.7335 32.3847 24.7493 34.1706 24.4382 36.5C24.1272 38.8294 24.6071 40.8203 25.5101 40.9467C26.4131 41.0731 27.3974 39.2872 27.7084 36.9578Z" fill="#E8E8E8"/>
<path d="M18.2265 43.5224C18.2265 43.5224 16.5898 43.7422 16.7359 44.8974C16.8998 46.1932 20.4595 45.8733 20.4595 45.8733C20.4595 45.8733 23.4882 45.7603 24.7413 44.7109" stroke="#E8E8E8" stroke-width="1.38876" stroke-linecap="round" stroke-linejoin="round"/>
<path d="M27.0347 42.3407C27.0347 42.3407 22.7567 43.3595 25.8534 46.6261" stroke="#E8E8E8" stroke-width="1.38876" stroke-linejoin="round"/>
<path d="M20.5564 35.8447L21.7885 35.4985L20.8956 34.1198L20.5564 35.8447Z" fill="white"/>
<path d="M24.3221 35.3378L25.5469 34.9926L24.6612 33.6129L24.3221 35.3378Z" fill="white"/>
<path d="M31.7621 50.2525C41.2581 34.5408 30.8478 27.2484 30.8478 27.2484C30.8478 27.2484 35.1358 26.8307 35.106 26.8271C36.7861 28.1679 43.6811 35.6689 35.1436 49.7984" fill="#E8E8E8"/>
</svg>
