<svg width="65" height="68" viewBox="0 0 65 68" fill="none" xmlns="http://www.w3.org/2000/svg">
<path d="M41.5244 3.22309L44.8588 7.9325L50.5183 7.71866C50.8722 7.6977 51.1898 7.93415 51.2835 8.28623L52.8563 13.9062L58.2416 15.6913C58.5772 15.8066 58.7894 16.1315 58.7796 16.496L58.403 22.3376L62.8717 25.9221C63.1455 26.1422 63.238 26.5398 63.0967 26.8704L60.8044 32.2201L63.8086 37.1639C63.9918 37.4728 63.9518 37.8669 63.7091 38.134L59.7831 42.361L60.9704 48.0771C61.0494 48.4288 60.8778 48.789 60.5493 48.9626L55.4597 51.5475L54.6723 57.3325C54.6184 57.6959 54.3459 57.9774 53.9916 58.0135L48.3649 58.6538L45.7093 63.8267C45.5389 64.1413 45.1809 64.3141 44.8446 64.2292L39.3457 62.8362L35.1331 66.7668C34.8761 67.0183 34.478 67.0381 34.189 66.8328L29.4908 63.5765L24.2347 65.777C23.907 65.9203 23.5273 65.8037 23.329 65.5097L19.9946 60.8003L14.3351 61.0141C13.9812 61.0351 13.6636 60.7986 13.5699 60.4465L11.9971 54.8266L6.61182 53.0414C6.27626 52.9261 6.06407 52.6013 6.07379 52.2368L6.45042 46.3952L1.98177 42.8106C1.70789 42.5906 1.61543 42.1929 1.75676 41.8623L4.04904 36.5126L1.0448 31.5688C0.861632 31.2599 0.901589 30.8658 1.14429 30.5987L5.07037 26.3717L3.88298 20.6556C3.80402 20.304 3.97558 19.9438 4.30413 19.7701L9.39374 17.1852L10.1811 11.4002C10.235 11.0369 10.5075 10.7554 10.8618 10.7192L16.4885 10.0789L19.1442 4.9061C19.3145 4.59146 19.6725 4.41862 20.0089 4.50359L25.5077 5.89655L29.7203 1.96596C29.9774 1.71443 30.3754 1.69465 30.6644 1.89994L35.3627 5.15623L40.6187 2.95575C40.9464 2.8125 41.3261 2.92902 41.5244 3.22309Z" fill="#FADF0B" stroke="black" stroke-width="1.73595" stroke-miterlimit="10"/>
<path d="M40.0811 26.3334C40.4482 26.1636 40.7928 25.9893 41.0932 25.8134C42.6004 24.9181 43.9497 23.5848 44.6632 22.269C44.9518 21.8838 46.2977 18.4949 45.351 15.8206C44.8017 14.2602 43.604 13.2538 41.7551 12.8394C39.9002 12.6668 38.2099 12.9841 36.7246 13.7635C35.9445 12.9871 34.911 12.5837 33.6032 12.5635C31.2832 12.8299 29.3755 13.922 27.9784 15.804C25.7522 18.784 25.2925 23.093 25.5145 25.6613C21.3157 26.436 18.2945 27.768 18.2594 27.7803C18.1829 27.8132 10.885 31.2181 11.0199 40.2293C12.1946 49.6356 18.8932 50.0163 21.0942 50.1424C21.2936 50.1533 21.4631 50.1607 21.5976 50.1803C21.8205 50.2031 22.2919 50.1623 22.9552 50.0733C24.4838 49.868 27.0211 49.4068 29.8243 48.9023C33.0357 48.3204 36.348 47.725 38.6047 47.4219C40.8614 47.1189 47.512 44.3355 47.1962 35.9812C47.098 33.2908 45.6425 30.5945 43.0982 28.3908C42.1601 27.5829 41.1261 26.8859 40.0801 26.326L40.0811 26.3334Z" fill="#040000"/>
<path d="M29.6997 28.2186C29.1763 24.659 30.1608 15.6857 37.4742 14.8392C42.9116 14.9298 41.9224 22.2997 41.6321 22.9035C41.0908 24.5953 39.813 26.5517 37.6623 27.7517" fill="white"/>
<path d="M29.6997 28.2186C29.1763 24.659 30.1608 15.6857 37.4742 14.8392C42.9116 14.9298 41.9224 22.2997 41.6321 22.9035C41.0908 24.5953 39.813 26.5517 37.6623 27.7517" stroke="black" stroke-width="1.92112" stroke-miterlimit="10"/>
<path d="M37.2063 26.239C41.1573 25.7084 49.2221 30.5145 49.4659 36.9657C49.785 45.4627 42.8162 47.8746 41.1218 48.1021C36.0676 48.7809 25.4212 50.9863 24.1806 50.8592C22.5231 50.6826 15.1025 51.1445 13.8548 41.1606C13.7214 32.2771 20.927 29.0126 20.927 29.0126C20.927 29.0126 24.732 27.3268 29.8079 26.6452C32.627 26.2666 37.2135 26.2381 37.2135 26.2381L37.2063 26.239Z" fill="white" stroke="black" stroke-width="1.73595" stroke-miterlimit="10"/>
<path d="M38.0362 48.8181C47.5321 33.1064 36.832 26.8846 36.832 26.8846C36.832 26.8846 40.1535 26.7097 40.1309 26.7052C41.8109 28.0459 49.586 33.9828 41.0423 48.1207" fill="black"/>
<path d="M35.5927 27.6454C34.8359 25.661 36.8188 14.2041 46.0465 15.0434C51.7854 16.3587 49.1896 23.4322 48.7567 24.01C48.0824 25.2302 46.8413 26.549 45.2648 27.4762C43.9409 28.2564 41.523 29.1986 39.1933 28.9241" fill="white"/>
<path d="M35.5927 27.6454C34.8359 25.661 36.8188 14.2041 46.0465 15.0434C51.7854 16.3587 49.1896 23.4322 48.7567 24.01C48.0824 25.2302 46.8413 26.549 45.2648 27.4762C43.9409 28.2564 41.523 29.1986 39.1933 28.9241" stroke="black" stroke-width="1.73595" stroke-miterlimit="10" stroke-linecap="round"/>
<path d="M22.4105 37.8189C22.8263 34.7049 22.154 32.0391 20.9089 31.8648C19.6637 31.6904 18.3172 34.0736 17.9014 37.1876C17.4855 40.3017 18.1578 42.9675 19.403 43.1418C20.6482 43.3161 21.9947 40.933 22.4105 37.8189Z" fill="white" stroke="black" stroke-width="1.38876" stroke-miterlimit="10"/>
<path d="M22.7162 37.0271C23.0273 34.6977 22.5474 32.7069 21.6443 32.5804C20.7413 32.454 19.7571 34.2399 19.446 36.5693C19.135 38.8987 19.6149 40.8896 20.5179 41.016C21.421 41.1425 22.4052 39.3566 22.7162 37.0271Z" fill="black"/>
<path d="M26.3558 37.2916C26.7716 34.1775 26.0993 31.5117 24.8542 31.3374C23.609 31.1631 22.2625 33.5462 21.8467 36.6603C21.4308 39.7744 22.1032 42.4401 23.3483 42.6145C24.5935 42.7888 25.94 40.4057 26.3558 37.2916Z" fill="white" stroke="black" stroke-width="1.38876" stroke-miterlimit="10"/>
<path d="M26.6654 36.5057C26.9765 34.1762 26.4966 32.1854 25.5936 32.0589C24.6905 31.9325 23.7063 33.7184 23.3952 36.0478C23.0842 38.3773 23.5641 40.3681 24.4671 40.4945C25.3702 40.621 26.3544 38.8351 26.6654 36.5057Z" fill="black"/>
<path d="M17.1835 43.0693C17.1835 43.0693 15.5469 43.2891 15.6929 44.4442C15.8568 45.7401 19.4166 45.4202 19.4166 45.4202C19.4166 45.4202 22.4452 45.3072 23.6984 44.2578" stroke="black" stroke-width="1.38876" stroke-linecap="round" stroke-linejoin="round"/>
<path d="M25.9917 41.8885C25.9917 41.8885 21.7137 42.9073 24.8105 46.174" stroke="black" stroke-width="1.38876" stroke-linejoin="round"/>
<path d="M19.5135 35.3935L20.7455 35.0473L19.8526 33.6686L19.5135 35.3935Z" fill="white"/>
<path d="M23.2791 34.8857L24.504 34.5405L23.6183 33.1608L23.2791 34.8857Z" fill="white"/>
<path d="M30.7191 49.8013C40.2151 34.0897 29.8049 26.7972 29.8049 26.7972C29.8049 26.7972 34.0929 26.3795 34.0631 26.376C35.7431 27.7167 42.6381 35.2177 34.1006 49.3472" fill="black"/>
</svg>
