<svg width="25" height="24" viewBox="0 0 25 24" fill="none" xmlns="http://www.w3.org/2000/svg">
<path d="M10.6014 18.0277C11.6455 18.0277 12.6794 17.8279 13.644 17.4396C14.6086 17.0514 15.4851 16.4823 16.2233 15.7649C16.9616 15.0474 17.5473 14.1957 17.9468 13.2584C18.3464 12.3211 18.552 11.3164 18.552 10.3018C18.552 9.28725 18.3464 8.28261 17.9468 7.34526C17.5473 6.40791 16.9616 5.55622 16.2233 4.8388C15.4851 4.12139 14.6086 3.5523 13.644 3.16404C12.6794 2.77578 11.6455 2.57594 10.6014 2.57594C8.49281 2.57594 6.47055 3.38992 4.97953 4.8388C3.48851 6.28769 2.65086 8.2528 2.65086 10.3018C2.65086 12.3509 3.48851 14.316 4.97953 15.7649C6.47055 17.2137 8.49281 18.0277 10.6014 18.0277ZM18.976 16.619L23.7199 21.2288C23.8464 21.3477 23.9472 21.4898 24.0165 21.647C24.0859 21.8041 24.1223 21.9731 24.1237 22.1441C24.1251 22.3151 24.0914 22.4846 24.0247 22.6428C23.958 22.801 23.8595 22.9447 23.735 23.0655C23.6105 23.1863 23.4624 23.2818 23.2995 23.3465C23.1367 23.4111 22.9621 23.4435 22.7862 23.4419C22.6103 23.4403 22.4364 23.4047 22.2748 23.3371C22.1132 23.2695 21.967 23.1713 21.8449 23.0483L17.101 18.4385C14.9709 20.0453 12.2907 20.8028 9.60596 20.5569C6.92126 20.311 4.43392 19.0801 2.65026 17.1149C0.866613 15.1496 -0.0792567 12.5976 0.00520632 9.97853C0.0896694 7.35943 1.19812 4.87005 3.1049 3.01715C5.01168 1.16426 7.57346 0.0871352 10.2687 0.00505919C12.964 -0.0770169 15.5902 0.842121 17.6126 2.57536C19.635 4.30861 20.9017 6.72566 21.1548 9.33449C21.4078 11.9433 20.6282 14.5478 18.9747 16.6177L18.976 16.619Z" fill="black"/>
</svg>
