<svg width="163" height="164" viewBox="0 0 163 164" fill="none" xmlns="http://www.w3.org/2000/svg">
<path d="M137.858 138.884C146.381 130.355 146.51 116.585 138.905 106.604C151.236 105.223 160.973 95.802 161.499 84.0741H161.531V83.0741C161.531 71.0306 151.817 61.1899 139.343 59.5998C146.617 49.8361 146.239 36.3287 137.771 27.8455C129.442 19.5019 116.184 18.9536 106.395 25.8133C105.848 12.1872 95.2979 1.21094 82.2394 1.21094C69.447 1.21094 59.4636 11.3199 58.2024 24.1753C48.2186 17.2658 34.9144 17.6682 26.6221 25.9462L26.6217 25.9466C18.1327 34.4308 17.9789 48.1253 25.4948 58.1111C11.951 58.5592 1 68.9335 1 81.8055C1 94.31 10.9919 104.12 23.6736 105.37C15.9982 115.311 16.1362 129.141 24.7023 137.722L24.7027 137.722C33.1711 146.195 46.8307 146.486 56.8161 139.146C57.5647 152.409 68.0414 163 80.9507 163C93.6794 163 104.017 152.739 105.044 139.764C115.135 147.606 129.218 147.519 137.857 138.885L137.858 138.884ZM67.9435 116.224C67.6251 110.735 65.4551 105.443 61.3677 101.358C57.5724 97.5644 52.7212 95.4108 47.6348 94.8482C50.2805 91.11 51.8258 86.6287 51.8258 81.8055C51.8258 77.0631 50.4044 72.8414 47.962 69.2323C53.7522 69.0663 59.3537 66.8906 63.6156 62.6311C67.3564 58.8924 69.4751 54.1239 70.0353 49.12C73.6134 51.3477 77.7808 52.6295 82.2394 52.6295C87.003 52.6295 91.4392 51.1674 95.1735 48.6426C95.5286 54.1174 97.7236 59.4163 101.822 63.5212L101.823 63.522C105.332 67.0292 109.716 69.1434 114.342 69.9214C111.614 73.6784 110.018 78.1966 110.018 83.0644C110.018 87.8955 111.508 92.1776 114.062 95.8336C109.18 96.4771 104.553 98.6 100.911 102.249C96.9791 106.188 94.8248 111.255 94.4059 116.55C90.561 113.841 85.9284 112.25 80.941 112.25C75.9943 112.25 71.656 113.713 67.9435 116.224Z" fill="black" stroke="white" stroke-width="2" stroke-miterlimit="10"/>
<path d="M161.803 79.6842C161.803 67.9711 151.865 58.3876 139.296 57.6432C147.245 48.4178 147.235 34.9143 138.966 26.6313C130.79 18.4425 117.439 18.2917 108.151 25.9245C108.16 25.6324 108.17 25.3403 108.17 25.0482C108.17 11.7708 98.071 1 85.6149 1C73.1589 1 63.4845 11.3185 63.079 24.2189C53.5649 16.652 40.2602 16.718 32.1793 24.7843C23.8627 33.0956 24.1079 46.9007 32.4528 56.3805C32.0662 56.3616 31.6796 56.3522 31.2835 56.3522C18.1675 56.3522 7.53125 66.2466 7.53125 78.4498C7.53125 90.6529 17.7997 100.189 30.5952 100.528C22.1843 109.933 21.9486 123.794 30.3123 132.172C38.6006 140.464 52.3391 140.37 61.8155 132.257C61.8155 132.426 61.806 132.596 61.806 132.765C61.806 145.864 71.9048 156.484 84.3608 156.484C96.8169 156.484 106.887 145.901 106.916 132.831C116.467 141.444 130.611 141.736 139.051 133.303C147.358 124.991 147.131 111.214 138.824 101.753C151.61 101.216 161.794 91.5481 161.794 79.6842H161.803ZM70.7638 113.853C70.8958 108.076 68.8686 102.413 64.616 98.1632C60.6557 94.2055 55.4507 92.1606 50.0666 91.9816C53.1877 88.2405 55.0453 83.5477 55.0453 78.4498C55.0453 73.3518 53.282 68.904 50.3118 65.2195C56.3937 65.5399 62.3812 63.5233 66.8036 59.1038C70.679 55.2309 72.6874 50.1611 72.8949 44.903C76.5157 47.5415 80.8909 49.0869 85.6149 49.0869C90.6879 49.0869 95.3648 47.3059 99.127 44.2904C99.0422 50.0386 101.098 55.702 105.36 59.9708C109.037 63.6458 113.752 65.6812 118.674 66.143C115.506 69.884 113.62 74.5768 113.62 79.6748C113.62 84.7728 115.402 89.2111 118.41 92.905C113.233 93.1972 108.273 95.2232 104.473 99.0302C100.372 103.139 98.3444 108.576 98.3538 114.173C94.5067 110.969 89.6412 109.047 84.3514 109.047C79.0616 109.047 74.5261 110.838 70.745 113.853H70.7638Z" fill="white"/>
<path d="M85.2247 122.437C109.414 122.437 129.024 102.84 129.024 78.6656C129.024 54.4915 109.414 34.8945 85.2247 34.8945C61.0352 34.8945 41.4258 54.4915 41.4258 78.6656C41.4258 102.84 61.0352 122.437 85.2247 122.437Z" fill="white" stroke="black" stroke-width="2" stroke-miterlimit="10"/>
<path d="M72.57 87.8157C75.6894 87.8157 78.2181 80.7954 78.2181 72.1354C78.2181 63.4754 75.6894 56.4551 72.57 56.4551C69.4506 56.4551 66.9219 63.4754 66.9219 72.1354C66.9219 80.7954 69.4506 87.8157 72.57 87.8157Z" fill="black"/>
<path d="M96.5778 87.8157C99.6972 87.8157 102.226 80.7954 102.226 72.1354C102.226 63.4754 99.6972 56.4551 96.5778 56.4551C93.4584 56.4551 90.9297 63.4754 90.9297 72.1354C90.9297 80.7954 93.4584 87.8157 96.5778 87.8157Z" fill="black"/>
<path d="M113.767 89.3044C108.468 99.6699 97.6711 106.766 85.2245 106.766C72.7779 106.766 60.9913 98.9915 55.9844 87.8438" stroke="black" stroke-width="2" stroke-miterlimit="10"/>
<path d="M61.1328 70.3066L72.2499 68.78L65.9794 56.0586L61.1328 70.3066Z" fill="white"/>
<path d="M84.668 70.3066L95.7851 68.78L89.5146 56.0586L84.668 70.3066Z" fill="white"/>
<path d="M51.8906 87.1649C51.8906 87.1649 55.8132 91.085 58.4251 84.5547L51.8906 87.1649Z" fill="white"/>
<path d="M51.8906 87.1649C51.8906 87.1649 55.8132 91.085 58.4251 84.5547" stroke="black" stroke-width="2" stroke-miterlimit="10"/>
<path d="M118.57 88.4657C118.57 88.4657 114.647 92.3858 112.035 85.8555L118.57 88.4657Z" fill="white"/>
<path d="M118.57 88.4657C118.57 88.4657 114.647 92.3858 112.035 85.8555" stroke="black" stroke-width="2" stroke-miterlimit="10"/>
</svg>
