<svg width="280" height="310" viewBox="0 0 280 310" fill="none" xmlns="http://www.w3.org/2000/svg">
<path d="M156.579 94.1083L167.968 109.868L187.283 109.163C188.491 109.094 189.575 109.885 189.895 111.063L195.273 129.866L213.656 135.847C214.802 136.234 215.527 137.321 215.494 138.54L214.219 158.081L229.477 170.08C230.412 170.817 230.728 172.147 230.247 173.253L222.433 191.145L232.695 207.688C233.321 208.722 233.185 210.04 232.357 210.933L218.965 225.066L223.028 244.19C223.298 245.367 222.713 246.571 221.592 247.152L204.227 255.789L201.55 275.14C201.367 276.355 200.437 277.297 199.228 277.417L180.025 279.549L170.971 296.848C170.39 297.9 169.169 298.478 168.021 298.193L149.251 293.523L134.88 306.665C134.004 307.505 132.645 307.571 131.658 306.884L115.618 295.982L97.683 303.334C96.5647 303.812 95.2686 303.422 94.5914 302.438L83.2027 286.678L63.8876 287.383C62.6797 287.452 61.5953 286.661 61.2749 285.483L55.897 266.68L37.514 260.699C36.3685 260.312 35.6437 259.225 35.6762 258.006L36.9511 238.465L21.6933 226.466C20.7582 225.729 20.4419 224.399 20.9237 223.293L28.7375 205.401L18.4752 188.858C17.8495 187.824 17.9852 186.506 18.813 185.613L32.2049 171.48L28.142 152.356C27.8719 151.179 28.4568 149.975 29.5778 149.394L46.9437 140.757L49.6205 121.406C49.8037 120.191 50.7333 119.249 51.9425 119.129L71.145 116.997L80.1992 99.6978C80.78 98.6456 82.0015 98.0681 83.1496 98.3529L101.919 103.023L116.29 89.8815C117.167 89.0406 118.525 88.9751 119.512 89.6624L135.553 100.564L153.487 93.2123C154.605 92.7337 155.902 93.1242 156.579 94.1083Z" fill="white" stroke="black" stroke-width="1.73595" stroke-miterlimit="10"/>
<path d="M146.891 112.631L155.87 125.057L171.099 124.501C172.052 124.446 172.907 125.07 173.159 125.999L177.399 140.824L191.893 145.54C192.797 145.845 193.368 146.702 193.342 147.663L192.337 163.07L204.367 172.531C205.104 173.111 205.354 174.16 204.974 175.032L198.813 189.139L206.904 202.182C207.398 202.997 207.291 204.037 206.638 204.741L196.079 215.884L199.283 230.962C199.496 231.89 199.034 232.839 198.151 233.297L184.459 240.107L182.348 255.364C182.204 256.323 181.471 257.065 180.517 257.159L165.377 258.84L158.239 272.48C157.781 273.31 156.818 273.765 155.912 273.54L141.113 269.859L129.783 280.219C129.092 280.883 128.021 280.934 127.243 280.392L114.596 271.797L100.455 277.593C99.5735 277.971 98.5516 277.663 98.0176 276.887L89.0383 264.461L73.8094 265.017C72.8571 265.072 72.0021 264.448 71.7495 263.519L67.5093 248.694L53.0153 243.978C52.1122 243.673 51.5408 242.816 51.5664 241.855L52.5716 226.448L40.5417 216.988C39.8044 216.407 39.555 215.358 39.9349 214.486L46.0956 200.379L38.0044 187.336C37.5111 186.521 37.618 185.481 38.2707 184.777L48.8294 173.634L45.6261 158.556C45.4131 157.628 45.8743 156.679 46.7581 156.221L60.4502 149.411L62.5607 134.154C62.7051 133.195 63.438 132.453 64.3915 132.359L79.5315 130.678L86.6702 117.038C87.1282 116.209 88.0912 115.753 88.9965 115.978L103.795 119.66L115.126 109.299C115.817 108.636 116.888 108.584 117.666 109.126L130.313 117.721L144.454 111.925C145.335 111.547 146.357 111.855 146.891 112.631Z" fill="white" stroke="black" stroke-width="1.73595" stroke-miterlimit="10"/>
<path d="M126.674 175.931C128.152 175.295 129.541 174.638 130.755 173.97C136.845 170.569 142.352 165.409 145.33 160.251C146.518 158.75 152.231 145.414 148.749 134.677C146.73 128.412 142.073 124.282 134.763 122.438C127.404 121.555 120.647 122.638 114.657 125.58C111.637 122.409 107.569 120.695 102.37 120.476C93.1138 121.289 85.4105 125.431 79.6538 132.768C70.4832 144.384 68.1977 161.474 68.8086 171.713C52.0261 174.349 39.8684 179.326 39.7275 179.371C39.4197 179.494 10.0323 192.263 9.61278 228.118C13.2872 265.655 39.8898 267.879 48.6307 268.615C49.4224 268.679 50.0961 268.726 50.6288 268.819C51.5128 268.933 53.3923 268.821 56.04 268.537C62.1413 267.883 72.2822 266.317 83.4851 264.608C96.3195 262.634 109.557 260.618 118.565 259.652C127.573 258.685 154.32 248.321 153.95 215.059C153.845 204.348 148.342 193.469 138.456 184.434C134.811 181.121 130.772 178.239 126.671 175.901L126.674 175.931Z" fill="#040000" stroke="white" stroke-width="1.92112" stroke-miterlimit="10"/>
<path d="M85.1844 182.327C83.4802 168.114 88.3477 132.528 117.525 129.937C139.143 130.874 134.426 160.082 133.208 162.453C130.875 169.124 125.586 176.77 116.904 181.315" fill="white"/>
<path d="M85.1844 182.327C83.4802 168.114 88.3477 132.528 117.525 129.937C139.143 130.874 134.426 160.082 133.208 162.453C130.875 169.124 125.586 176.77 116.904 181.315" stroke="black" stroke-width="1.92112" stroke-miterlimit="10"/>
<path d="M115.249 175.252C131.021 173.561 162.587 193.532 162.873 219.217C163.241 253.046 135.267 261.9 128.504 262.625C108.33 264.789 65.7508 272.431 60.83 271.794C54.2565 270.916 24.6927 271.966 20.7891 232.124C21.2009 196.777 50.2066 184.557 50.2066 184.557C50.2066 184.557 65.5194 178.256 85.7802 176.083C97.033 174.876 115.278 175.249 115.278 175.249L115.249 175.252Z" fill="white" stroke="black" stroke-width="1.73595" stroke-miterlimit="10"/>
<path d="M116.169 265.139C155.604 203.655 113.706 177.773 113.706 177.773C113.706 177.773 126.935 177.43 126.846 177.409C133.386 182.92 163.68 207.358 128.199 262.684" fill="black"/>
<path d="M108.69 180.675C105.891 172.702 114.993 127.343 151.606 131.66C174.292 137.5 163.217 165.359 161.434 167.611C158.623 172.393 153.547 177.507 147.178 181.027C141.83 183.99 132.113 187.481 122.876 186.142" fill="white"/>
<path d="M108.69 180.675C105.891 172.702 114.993 127.343 151.606 131.66C174.292 137.5 163.217 165.359 161.434 167.611C158.623 172.393 153.547 177.507 147.178 181.027C141.83 183.99 132.113 187.481 122.876 186.142" stroke="black" stroke-width="1.73595" stroke-miterlimit="10" stroke-linecap="round"/>
<path d="M55.1791 219.744C57.1633 207.402 54.772 196.728 49.8381 195.903C44.9041 195.077 39.2958 204.413 37.3115 216.755C35.3273 229.097 37.7185 239.771 42.6525 240.596C47.5865 241.422 53.1948 232.086 55.1791 219.744Z" fill="white" stroke="black" stroke-width="1.38876" stroke-miterlimit="10"/>
<path d="M56.4661 216.62C57.9503 207.388 56.2528 199.418 52.6744 198.82C49.0961 198.221 44.9921 205.22 43.5078 214.452C42.0235 223.684 43.7211 231.653 47.2994 232.252C50.8778 232.851 54.9818 225.852 56.4661 216.62Z" fill="black"/>
<path d="M70.9369 218.06C72.9211 205.719 70.5299 195.045 65.5959 194.219C60.6619 193.394 55.0536 202.73 53.0693 215.071C51.0851 227.413 53.4763 238.087 58.4103 238.913C63.3443 239.738 68.9526 230.402 70.9369 218.06Z" fill="white" stroke="black" stroke-width="1.38876" stroke-miterlimit="10"/>
<path d="M72.2278 214.965C73.7121 205.733 72.0145 197.764 68.4362 197.166C64.8578 196.567 60.7538 203.566 59.2695 212.798C57.7853 222.03 59.4828 229.999 63.0612 230.598C66.6395 231.196 70.7435 224.197 72.2278 214.965Z" fill="black"/>
<path d="M33.8259 240.069C33.8259 240.069 27.293 240.77 27.7514 245.38C28.2656 250.551 42.4581 249.656 42.4581 249.656C42.4581 249.656 54.5162 249.528 59.6118 245.487" stroke="black" stroke-width="1.38876" stroke-linecap="round" stroke-linejoin="round"/>
<path d="M68.9728 236.303C68.9728 236.303 51.8497 239.901 63.82 253.222" stroke="black" stroke-width="1.38876" stroke-linejoin="round"/>
<path d="M43.9092 209.783L48.8463 208.537L45.4412 202.959L43.9092 209.783Z" fill="white"/>
<path d="M58.9483 208.17L63.8566 206.927L60.4802 201.346L58.9483 208.17Z" fill="white"/>
<path d="M86.9579 268.275C126.393 206.791 85.7616 176.682 85.7616 176.682C85.7616 176.682 102.861 175.476 102.743 175.458C109.283 180.969 135.911 211.535 100.456 266.828" fill="black"/>
<path d="M226.908 2.83307L226.437 1.50233L225.966 2.83307L214.894 34.0935L186.11 24.2847L184.936 23.8845L185.504 24.9872L200.579 54.215L175.631 73.1889L174.714 73.8863L175.85 74.0798L205.695 79.1652L203.465 112.769L203.375 114.127L204.323 113.15L226.437 90.3448L248.612 113.15L249.56 114.125L249.47 112.769L247.24 79.1652L277.085 74.0798L278.221 73.8863L277.304 73.1889L252.356 54.215L267.43 24.9872L267.999 23.8855L266.825 24.2846L237.98 34.0938L226.908 2.83307Z" fill="black" stroke="white" stroke-miterlimit="10" stroke-linecap="round"/>
<path d="M226.443 16.7246L234.906 40.5192L256.98 33.0431L245.483 55.2438L264.523 69.6648L241.712 73.5357L243.414 99.076L226.443 81.6949L209.519 99.076L211.221 73.5357L188.41 69.6648L207.45 55.2438L195.952 33.0431L217.981 40.5192L226.443 16.7246Z" fill="white" stroke="white" stroke-width="0.48" stroke-miterlimit="10" stroke-linecap="round"/>
</svg>
