<svg width="30" height="34" viewBox="0 0 30 34" fill="none" xmlns="http://www.w3.org/2000/svg">
<path d="M24.3333 10.3333C26.9107 10.3333 29 8.244 29 5.66667C29 3.08934 26.9107 1 24.3333 1C21.756 1 19.6667 3.08934 19.6667 5.66667C19.6667 8.244 21.756 10.3333 24.3333 10.3333Z" fill="#C4A1FF"/>
<path d="M5.66667 21.2222C8.244 21.2222 10.3333 19.1329 10.3333 16.5556C10.3333 13.9782 8.244 11.8889 5.66667 11.8889C3.08934 11.8889 1 13.9782 1 16.5556C1 19.1329 3.08934 21.2222 5.66667 21.2222Z" fill="#C4A1FF"/>
<path d="M24.3333 32.1111C26.9107 32.1111 29 30.0218 29 27.4444C29 24.8671 26.9107 22.7778 24.3333 22.7778C21.756 22.7778 19.6667 24.8671 19.6667 27.4444C19.6667 30.0218 21.756 32.1111 24.3333 32.1111Z" fill="#C4A1FF"/>
<path d="M9.69556 18.9044L20.32 25.0956M20.3044 8.01556L9.69556 14.2067M29 5.66667C29 8.244 26.9107 10.3333 24.3333 10.3333C21.756 10.3333 19.6667 8.244 19.6667 5.66667C19.6667 3.08934 21.756 1 24.3333 1C26.9107 1 29 3.08934 29 5.66667ZM10.3333 16.5556C10.3333 19.1329 8.244 21.2222 5.66667 21.2222C3.08934 21.2222 1 19.1329 1 16.5556C1 13.9782 3.08934 11.8889 5.66667 11.8889C8.244 11.8889 10.3333 13.9782 10.3333 16.5556ZM29 27.4444C29 30.0218 26.9107 32.1111 24.3333 32.1111C21.756 32.1111 19.6667 30.0218 19.6667 27.4444C19.6667 24.8671 21.756 22.7778 24.3333 22.7778C26.9107 22.7778 29 24.8671 29 27.4444Z" stroke="black" stroke-width="2" stroke-linecap="round" stroke-linejoin="round"/>
</svg>
