<?xml version="1.0" encoding="UTF-8"?><svg xmlns="http://www.w3.org/2000/svg" viewBox="0 0 94 117"><g id="_레이어_2"><polygon points="47.93 4.69 56.88 36.24 81.03 26.56 68.22 55.77 88.79 75.08 63.88 79.96 65.39 113.72 47.13 90.58 28.44 113.37 30.58 79.65 5.76 74.3 26.7 55.39 14.44 25.94 38.4 36.07 47.93 4.69" style="stroke:#000; stroke-linecap:round; stroke-miterlimit:10; stroke-width:2px;"/><polygon points="50.56 4.14 59.51 35.69 83.66 26.01 70.85 55.23 91.42 74.53 66.51 79.41 68.02 113.17 49.76 90.03 31.07 112.82 33.21 79.1 8.39 73.76 29.33 54.84 17.07 25.39 41.03 35.52 50.56 4.14" style="fill:#fff; stroke:#000; stroke-linecap:round; stroke-miterlimit:10; stroke-width:2px;"/></g><g id="_레이어_3"><polygon points="15.21 23.51 12.58 24.06 16.69 25.99 15.21 23.51"/><polygon points="27.24 116.4 29.87 115.86 30.2 112.44 27.24 116.4"/><polygon points="66.53 116.77 69.16 116.23 66.2 112 66.53 116.77"/><polygon points="47.97 1.14 50.59 .59 49.9 6.42 48.6 5.96 47.97 1.14"/><polygon points="82.92 24.72 85.55 24.17 82.51 25.73 82.55 25.11 82.92 24.72"/></g></svg>