<?xml version="1.0" encoding="UTF-8"?><svg id="_레이어_2" xmlns="http://www.w3.org/2000/svg" viewBox="0 0 187 156"><defs><style>.cls-1{fill:#fff;}.cls-1,.cls-2{stroke:#000;stroke-width:2px;}.cls-2{fill:#000;}</style></defs><path class="cls-2" d="M20.37,37.79c.42-21.67-15.36-11.15-15.36-24.83C5.01,3.29,17.22,1.81,24.58,1.81h68.6c58.5,0,77.64,36.19,77.64,74.07s-22.94,75.96-76.17,75.96c-9.05,0-16.62-.21-23.15-.63-6.52-.21-12.2-.42-18.1-.42s-11.99.21-17.89.42c-5.89.42-11.78.63-17.89.63-7.15,0-16.2-3.58-16.2-11.99,0-15.15,16.62,1.68,17.25-29.04l1.68-73.02ZM70.87,114.81c0,10.73,1.68,15.15,13.05,15.15,26.51,0,31.14-27.14,31.14-48.19,0-49.24-18.52-57.02-34.72-57.02-8.84,0-9.47,3.58-9.47,11.57v78.49Z"/><path class="cls-1" d="M34.37,41.79c.42-21.67-15.36-11.15-15.36-24.83,0-9.68,12.21-11.15,19.57-11.15h68.6c58.5,0,77.64,36.19,77.64,74.07s-22.94,75.96-76.17,75.96c-9.05,0-16.62-.21-23.15-.63-6.52-.21-12.2-.42-18.1-.42s-11.99.21-17.89.42c-5.89.42-11.78.63-17.89.63-7.15,0-16.2-3.58-16.2-11.99,0-15.15,16.62,1.68,17.25-29.04l1.68-73.02ZM84.87,118.81c0,10.73,1.68,15.15,13.05,15.15,26.51,0,31.14-27.14,31.14-48.19,0-49.24-18.52-57.02-34.72-57.02-8.84,0-9.47,3.58-9.47,11.57v78.49Z"/></svg>