<svg width="40" height="38" viewBox="0 0 40 38" fill="none" xmlns="http://www.w3.org/2000/svg">
<path d="M10.6428 16.5323C10.2967 16.47 9.96851 16.3986 9.67715 16.3154C8.21241 15.887 6.78401 15.0392 5.89402 14.058C5.56646 13.7895 3.68776 11.1472 3.89442 8.59185C4.01236 7.10157 4.79773 5.94292 6.26104 5.14848C7.78276 4.56363 9.27406 4.44489 10.6947 4.7773C11.1796 3.91721 11.9598 3.32322 13.0549 2.99949C15.0645 2.68885 16.9093 3.19532 18.499 4.51064C21.0277 6.58996 22.364 10.2427 22.7433 12.5359C26.4448 12.2291 29.2788 12.6843 29.311 12.6867C29.3826 12.6975 36.2696 13.9605 38.1424 21.8558C39.2278 30.3393 33.679 32.2396 31.856 32.8649C31.6907 32.921 31.5498 32.9672 31.441 33.0157C31.2587 33.0878 30.8532 33.1626 30.2758 33.2402C28.9453 33.4188 26.7101 33.6103 24.2417 33.8263C21.4131 34.0702 18.4967 34.326 16.5323 34.5898C14.5678 34.8536 8.3621 33.9815 6.78628 26.6171C6.27589 24.2463 6.90547 21.5526 8.55925 19.0339C9.16997 18.1094 9.88582 17.259 10.642 16.5256L10.6428 16.5323Z" fill="#040000"/>
<path d="M19.7886 15.7472C19.4442 12.5184 16.6386 4.91822 10.3024 5.89143C5.75016 7.24337 8.20633 13.4432 8.5835 13.9022C9.41157 15.2518 10.9172 16.66 12.9901 17.2037" fill="white"/>
<path d="M19.7886 15.7472C19.4442 12.5184 16.6386 4.91822 10.3024 5.89143C5.75016 7.24337 8.20633 13.4432 8.5835 13.9022C9.41157 15.2518 10.9172 16.66 12.9901 17.2037" stroke="black" stroke-width="1.21903" stroke-miterlimit="10"/>
<path d="M13.0377 15.7766C9.5984 16.2385 3.87622 22.3204 5.09311 28.0072C6.69753 35.4969 13.089 35.9703 14.5639 35.7723C18.9634 35.1814 28.4019 34.6138 29.417 34.2125C30.7718 33.6704 37.1135 32.3364 35.9622 23.3318C34.1164 15.5483 27.3378 14.3862 27.3378 14.3862C27.3378 14.3862 23.7667 13.8058 19.3484 14.3992C16.8944 14.7287 13.0314 15.7775 13.0314 15.7775L13.0377 15.7766Z" fill="#FADF0B" stroke="black" stroke-width="1.10153" stroke-miterlimit="10"/>
<path d="M17.3184 35.6789C5.87059 24.1909 13.4968 16.2565 13.4968 16.2565C13.4968 16.2565 10.6653 16.8814 10.6832 16.8722C9.56608 18.4355 4.33667 25.4364 14.637 35.774" fill="black"/>
<path d="M14.7045 16.6278C14.9036 14.7189 10.711 5.18505 3.13667 8.07755C-1.39917 10.5688 2.34265 16.1339 2.83399 16.5368C3.66991 17.4437 5.00418 18.3041 6.53421 18.7442C7.81936 19.1152 10.0602 19.3714 11.9587 18.5865" fill="white"/>
<path d="M14.7045 16.6278C14.9036 14.7189 10.711 5.18505 3.13667 8.07755C-1.39917 10.5688 2.34265 16.1339 2.83399 16.5368C3.66991 17.4437 5.00418 18.3041 6.53421 18.7442C7.81936 19.1152 10.0602 19.3714 11.9587 18.5865" stroke="black" stroke-width="1.10153" stroke-miterlimit="10" stroke-linecap="round"/>
<path d="M28.0342 22.4188C26.9981 19.7986 26.9759 17.3149 27.9845 16.8713C28.9931 16.4277 30.6506 18.1922 31.6866 20.8124C32.7226 23.4326 32.7449 25.9163 31.7363 26.3599C30.7277 26.8035 29.0702 25.039 28.0342 22.4188Z" fill="white" stroke="black" stroke-width="0.881226" stroke-miterlimit="10"/>
<path d="M27.6041 21.7978C26.8291 19.8378 26.7939 17.9882 27.5254 17.6664C28.2568 17.3447 29.4781 18.6728 30.253 20.6328C31.028 22.5928 31.0633 24.4424 30.3318 24.7642C29.6003 25.0859 28.3791 23.7578 27.6041 21.7978Z" fill="black"/>
<path d="M24.5888 22.8866C23.5528 20.2664 23.5306 17.7827 24.5392 17.3391C25.5478 16.8955 27.2053 18.66 28.2413 21.2801C29.2773 23.9003 29.2996 26.384 28.2909 26.8276C27.2823 27.2712 25.6249 25.5068 24.5888 22.8866Z" fill="white" stroke="black" stroke-width="0.881226" stroke-miterlimit="10"/>
<path d="M24.1588 22.2734C23.3838 20.3134 23.3486 18.4637 24.0801 18.142C24.8115 17.8203 26.0328 19.1484 26.8077 21.1084C27.5827 23.0683 27.618 24.918 26.8865 25.2397C26.155 25.5615 24.9338 24.2334 24.1588 22.2734Z" fill="black"/>
<path d="M33.5831 25.7773C33.5831 25.7773 35.0078 25.5859 35.1396 26.6282C35.2874 27.7974 32.2236 28.3516 32.2236 28.3516C32.2236 28.3516 29.652 28.9619 28.3669 28.3395" stroke="black" stroke-width="0.881226" stroke-linecap="round" stroke-linejoin="round"/>
<path d="M25.9084 26.8123C25.9084 26.8123 29.7302 26.7 27.8463 30.2756" stroke="black" stroke-width="0.881226" stroke-linejoin="round"/>
<path d="M29.9384 19.6208L28.8261 19.6071L29.273 18.1949L29.9384 19.6208Z" fill="white"/>
<path d="M26.661 20.0593L25.555 20.0447L25.9957 18.6334L26.661 20.0593Z" fill="white"/>
<path d="M23.6724 34.8218C12.2246 23.3337 19.371 14.533 19.371 14.533C19.371 14.533 15.6733 15.1722 15.6976 15.1622C14.5804 16.7255 10.4358 24.8853 20.7289 35.2171" fill="black"/>
</svg>
