<?xml version="1.0" encoding="UTF-8"?><svg xmlns="http://www.w3.org/2000/svg" viewBox="0 0 176 169"><defs><style>.cls-1{fill:none;}.cls-1,.cls-2,.cls-3,.cls-4{stroke:#000;stroke-miterlimit:10;stroke-width:2px;}.cls-5,.cls-6{stroke-width:0px;}.cls-5,.cls-3{fill:#000;}.cls-2{fill:#fff;}.cls-6,.cls-4{fill:#fff927;}</style></defs><g id="_레이어_1"><path class="cls-3" d="M165.35,85.5c0-12.43-10.54-22.6-23.87-23.39,8.43-9.79,8.42-24.12-.35-32.91-8.67-8.69-22.83-8.85-32.68-.75.01-.31.02-.62.02-.93,0-14.09-10.71-25.52-23.92-25.52s-23.47,10.95-23.9,24.64c-10.09-8.03-24.2-7.96-32.77.6-8.82,8.82-8.56,23.47.29,33.53-.41-.02-.82-.03-1.24-.03-13.91,0-25.19,10.5-25.19,23.45s10.89,23.07,24.46,23.43c-8.92,9.98-9.17,24.69-.3,33.58,8.79,8.8,23.36,8.7,33.41.09,0,.18-.01.36-.01.54,0,13.9,10.71,25.17,23.92,25.17s23.89-11.23,23.92-25.1c10.13,9.14,25.13,9.45,34.08.5,8.81-8.82,8.57-23.44-.24-33.48,13.56-.57,24.36-10.83,24.36-23.42ZM68.79,121.76c.14-6.13-2.01-12.14-6.52-16.65-4.2-4.2-9.72-6.37-15.43-6.56,3.31-3.97,5.28-8.95,5.28-14.36s-1.87-10.13-5.02-14.04c6.45.34,12.8-1.8,17.49-6.49,4.11-4.11,6.24-9.49,6.46-15.07,3.84,2.8,8.48,4.44,13.49,4.44,5.38,0,10.34-1.89,14.33-5.09-.09,6.1,2.09,12.11,6.61,16.64,3.9,3.9,8.9,6.06,14.12,6.55-3.36,3.97-5.36,8.95-5.36,14.36s1.89,10.12,5.08,14.04c-5.49.31-10.75,2.46-14.78,6.5-4.35,4.36-6.5,10.13-6.49,16.07-4.08-3.4-9.24-5.44-14.85-5.44s-10.42,1.9-14.43,5.1Z"/><path class="cls-2" d="M174.35,85.5c0-12.43-10.54-22.6-23.87-23.39,8.43-9.79,8.42-24.12-.35-32.91-8.67-8.69-22.83-8.85-32.68-.75.01-.31.02-.62.02-.93,0-14.09-10.71-25.52-23.92-25.52s-23.47,10.95-23.9,24.64c-10.09-8.03-24.2-7.96-32.77.6-8.82,8.82-8.56,23.47.29,33.53-.41-.02-.82-.03-1.24-.03-13.91,0-25.19,10.5-25.19,23.45s10.89,23.07,24.46,23.43c-8.92,9.98-9.17,24.69-.3,33.58,8.79,8.8,23.36,8.7,33.41.09,0,.18-.01.36-.01.54,0,13.9,10.71,25.17,23.92,25.17s23.89-11.23,23.92-25.1c10.13,9.14,25.13,9.45,34.08.5,8.81-8.82,8.57-23.44-.24-33.48,13.56-.57,24.36-10.83,24.36-23.42ZM77.79,121.76c.14-6.13-2.01-12.14-6.52-16.65-4.2-4.2-9.72-6.37-15.43-6.56,3.31-3.97,5.28-8.95,5.28-14.36s-1.87-10.13-5.02-14.04c6.45.34,12.8-1.8,17.49-6.49,4.11-4.11,6.24-9.49,6.46-15.07,3.84,2.8,8.48,4.44,13.49,4.44,5.38,0,10.34-1.89,14.33-5.09-.09,6.1,2.09,12.11,6.61,16.64,3.9,3.9,8.9,6.06,14.12,6.55-3.36,3.97-5.36,8.95-5.36,14.36s1.89,10.12,5.08,14.04c-5.49.31-10.75,2.46-14.78,6.5-4.35,4.36-6.5,10.13-6.49,16.07-4.08-3.4-9.24-5.44-14.85-5.44s-10.42,1.9-14.43,5.1Z"/></g><g id="_레이어_3"><circle class="cls-4" cx="91.85" cy="87.27" r="46.45"/><ellipse class="cls-5" cx="78.43" cy="80.34" rx="5.99" ry="16.64"/><ellipse class="cls-5" cx="103.88" cy="80.34" rx="5.99" ry="16.64"/><path class="cls-1" d="M122.11,98.56c-5.62,11-17.07,18.53-30.27,18.53s-25.7-8.25-31.01-20.08"/><polyline class="cls-6" points="66.3 78.4 78.09 76.78 71.44 63.28 66.3 78.4"/><polyline class="cls-6" points="91.25 78.4 103.05 76.78 96.39 63.28 91.25 78.4"/><path class="cls-1" d="M56.49,96.29s4.16,4.16,6.93-2.77"/><path class="cls-1" d="M127.21,97.67s-4.16,4.16-6.93-2.77"/></g></svg>