<svg width="151" height="151" viewBox="0 0 151 151" fill="none" xmlns="http://www.w3.org/2000/svg">
<path d="M125.138 52.7824C121.694 45.3597 112.508 42.2854 104.236 45.6062C106.616 37.3616 102.64 28.8072 94.9057 26.0534C87.2599 23.3308 78.6608 27.2639 74.9541 34.9033C74.8743 34.7154 74.7944 34.5274 74.7085 34.3423C70.8046 25.9284 61.1671 22.15 53.1863 25.9084C45.2054 29.6668 42.0407 39.1247 45.5741 47.4221C37.2532 45.4977 28.748 49.5539 25.9422 57.1038C23.0573 64.8801 27.2735 73.5545 35.4076 77.044C35.1544 77.1487 34.9039 77.2594 34.6502 77.3788C26.2464 81.3364 22.3408 90.8158 25.9289 98.549C29.517 106.282 38.9002 109.227 47.1983 105.581C44.5745 114.079 48.4992 122.934 56.3212 125.719C64.0699 128.473 72.8448 124.268 76.5309 116.267C76.5808 116.375 76.6246 116.485 76.6745 116.593C80.5258 124.893 90.1189 128.576 98.0998 124.817C106.081 121.059 109.422 111.314 105.597 103.023C114.249 105.599 123.397 101.517 126.325 93.6258C129.204 85.8523 125.008 77.1902 116.903 73.7013C124.938 69.5029 128.62 60.3034 125.131 52.7852L125.138 52.7824ZM76.8531 101.905C75.2392 98.2044 72.2751 95.2272 68.3008 93.8172C64.5996 92.5041 60.6634 92.7787 57.1611 94.2898C58.0608 90.9774 57.8712 87.4431 56.3722 84.2125C54.8733 80.9819 52.4357 78.6953 49.4493 77.2566C53.4403 75.6246 56.6837 72.54 58.2177 68.405C59.562 64.7813 59.3582 60.9626 57.9451 57.5679C61.0408 58.1474 64.2985 57.8066 67.3253 56.3812C70.5757 54.8506 73.0486 52.3108 74.5725 49.2647C76.2083 52.9329 79.1906 55.9016 83.1765 57.3207C86.6133 58.54 90.2325 58.4073 93.522 57.2148C92.592 60.5415 92.7635 64.0843 94.2625 67.3149C95.7614 70.5455 98.2083 72.8204 101.222 74.2537C97.9908 76.0008 95.4086 78.7812 94.0933 82.3403C92.6732 86.1815 92.973 90.2388 94.6249 93.783C91.2179 92.9135 87.5352 93.1634 84.1459 94.7595C80.7566 96.3556 78.377 98.8587 76.841 101.91L76.8531 101.905Z" fill="white" stroke="black" stroke-width="2" stroke-miterlimit="10"/>
<path d="M88.5233 105.135C104.029 97.8401 110.836 79.5125 103.726 64.1988C96.6172 48.885 78.2842 42.3842 62.7786 49.6788C47.2729 56.9733 40.4663 75.3009 47.5755 90.6147C54.6847 105.928 73.0176 112.429 88.5233 105.135Z" fill="#FADF0B" stroke="black" stroke-width="2" stroke-miterlimit="10"/>
<path d="M69.7375 86.5313C71.6537 85.5612 71.254 80.1387 68.8447 74.4199C66.4354 68.701 62.9289 64.8515 61.0126 65.8216C59.0964 66.7917 59.4961 72.2141 61.9054 77.933C64.3147 83.6518 67.8213 87.5014 69.7375 86.5313Z" fill="black"/>
<path d="M86.0812 80.4258C87.9975 79.4557 87.5978 74.0332 85.1885 68.3144C82.7792 62.5956 79.2726 58.746 77.3564 59.7161C75.4401 60.6862 75.8398 66.1087 78.2491 71.8275C80.6585 77.5463 84.165 81.3959 86.0812 80.4258Z" fill="black"/>
<path d="M97.2193 77.294C96.6388 85.1438 91.4367 92.4909 83.0948 95.9174C74.753 99.344 64.6252 97.7956 58.0742 92.3008" fill="#FADF0B"/>
<path d="M97.2193 77.294C96.6388 85.1438 91.4367 92.4909 83.0948 95.9174C74.753 99.344 64.6252 97.7956 58.0742 92.3008" stroke="black" stroke-width="2" stroke-miterlimit="10"/>
<path d="M57.6615 77.8383L64.2497 73.4576L56.5703 67.2311L57.6615 77.8383Z" fill="#FADF0B"/>
<path d="M73.681 71.854L80.2692 67.4732L72.5899 61.2468L73.681 71.854Z" fill="#FADF0B"/>
<path d="M55.2194 91.7347C55.2194 91.7347 58.9517 93.0371 58.7533 88.2266Z" fill="#FADF0B"/>
<path d="M55.2194 91.7347C55.2194 91.7347 58.9517 93.0371 58.7533 88.2266" stroke="black" stroke-width="2" stroke-miterlimit="10"/>
<path d="M100.797 75.4417C100.797 75.4417 99.3665 79.0093 95.7305 75.707Z" fill="#FADF0B"/>
<path d="M100.797 75.4417C100.797 75.4417 99.3665 79.0093 95.7305 75.707" stroke="black" stroke-width="2" stroke-miterlimit="10"/>
</svg>
