<?xml version="1.0" encoding="UTF-8"?><svg id="_레이어_2" xmlns="http://www.w3.org/2000/svg" viewBox="0 0 4402 4416"><defs><style>.cls-1{fill:none;stroke:#000;stroke-miterlimit:10;stroke-width:.6px;}</style></defs><rect class="cls-1" x="27" y="16" width="363.17" height="365.33"/><rect class="cls-1" x="390.17" y="16" width="363.17" height="365.33"/><rect class="cls-1" x="753.33" y="16" width="363.17" height="365.33"/><rect class="cls-1" x="1116.5" y="16" width="363.17" height="365.33"/><rect class="cls-1" x="1479.67" y="16" width="363.17" height="365.33"/><rect class="cls-1" x="1842.83" y="16" width="363.17" height="365.33"/><rect class="cls-1" x="2206" y="16" width="363.17" height="365.33"/><rect class="cls-1" x="2569.17" y="16" width="363.17" height="365.33"/><rect class="cls-1" x="2932.33" y="16" width="363.17" height="365.33"/><rect class="cls-1" x="3295.5" y="16" width="363.17" height="365.33"/><rect class="cls-1" x="3658.67" y="16" width="363.17" height="365.33"/><rect class="cls-1" x="4021.83" y="16" width="363.17" height="365.33"/><rect class="cls-1" x="27" y="381.33" width="363.17" height="365.33"/><rect class="cls-1" x="390.17" y="381.33" width="363.17" height="365.33"/><rect class="cls-1" x="753.33" y="381.33" width="363.17" height="365.33"/><rect class="cls-1" x="1116.5" y="381.33" width="363.17" height="365.33"/><rect class="cls-1" x="1479.67" y="381.33" width="363.17" height="365.33"/><rect class="cls-1" x="1842.83" y="381.33" width="363.17" height="365.33"/><rect class="cls-1" x="2206" y="381.33" width="363.17" height="365.33"/><rect class="cls-1" x="2569.17" y="381.33" width="363.17" height="365.33"/><rect class="cls-1" x="2932.33" y="381.33" width="363.17" height="365.33"/><rect class="cls-1" x="3295.5" y="381.33" width="363.17" height="365.33"/><rect class="cls-1" x="3658.67" y="381.33" width="363.17" height="365.33"/><rect class="cls-1" x="4021.83" y="381.33" width="363.17" height="365.33"/><rect class="cls-1" x="27" y="746.67" width="363.17" height="365.33"/><rect class="cls-1" x="390.17" y="746.67" width="363.17" height="365.33"/><rect class="cls-1" x="753.33" y="746.67" width="363.17" height="365.33"/><rect class="cls-1" x="1116.5" y="746.67" width="363.17" height="365.33"/><rect class="cls-1" x="1479.67" y="746.67" width="363.17" height="365.33"/><rect class="cls-1" x="1842.83" y="746.67" width="363.17" height="365.33"/><rect class="cls-1" x="2206" y="746.67" width="363.17" height="365.33"/><rect class="cls-1" x="2569.17" y="746.67" width="363.17" height="365.33"/><rect class="cls-1" x="2932.33" y="746.67" width="363.17" height="365.33"/><rect class="cls-1" x="3295.5" y="746.67" width="363.17" height="365.33"/><rect class="cls-1" x="3658.67" y="746.67" width="363.17" height="365.33"/><rect class="cls-1" x="4021.83" y="746.67" width="363.17" height="365.33"/><rect class="cls-1" x="27" y="1112" width="363.17" height="365.33"/><rect class="cls-1" x="390.17" y="1112" width="363.17" height="365.33"/><rect class="cls-1" x="753.33" y="1112" width="363.17" height="365.33"/><rect class="cls-1" x="1116.5" y="1112" width="363.17" height="365.33"/><rect class="cls-1" x="1479.67" y="1112" width="363.17" height="365.33"/><rect class="cls-1" x="1842.83" y="1112" width="363.17" height="365.33"/><rect class="cls-1" x="2206" y="1112" width="363.17" height="365.33"/><rect class="cls-1" x="2569.17" y="1112" width="363.17" height="365.33"/><rect class="cls-1" x="2932.33" y="1112" width="363.17" height="365.33"/><rect class="cls-1" x="3295.5" y="1112" width="363.17" height="365.33"/><rect class="cls-1" x="3658.67" y="1112" width="363.17" height="365.33"/><rect class="cls-1" x="4021.83" y="1112" width="363.17" height="365.33"/><rect class="cls-1" x="27" y="1477.33" width="363.17" height="365.33"/><rect class="cls-1" x="390.17" y="1477.33" width="363.17" height="365.33"/><rect class="cls-1" x="753.33" y="1477.33" width="363.17" height="365.33"/><rect class="cls-1" x="1116.5" y="1477.33" width="363.17" height="365.33"/><rect class="cls-1" x="1479.67" y="1477.33" width="363.17" height="365.33"/><rect class="cls-1" x="1842.83" y="1477.33" width="363.17" height="365.33"/><rect class="cls-1" x="2206" y="1477.33" width="363.17" height="365.33"/><rect class="cls-1" x="2569.17" y="1477.33" width="363.17" height="365.33"/><rect class="cls-1" x="2932.33" y="1477.33" width="363.17" height="365.33"/><rect class="cls-1" x="3295.5" y="1477.33" width="363.17" height="365.33"/><rect class="cls-1" x="3658.67" y="1477.33" width="363.17" height="365.33"/><rect class="cls-1" x="4021.83" y="1477.33" width="363.17" height="365.33"/><rect class="cls-1" x="27" y="1842.67" width="363.17" height="365.33"/><rect class="cls-1" x="390.17" y="1842.67" width="363.17" height="365.33"/><rect class="cls-1" x="753.33" y="1842.67" width="363.17" height="365.33"/><rect class="cls-1" x="1116.5" y="1842.67" width="363.17" height="365.33"/><rect class="cls-1" x="1479.67" y="1842.67" width="363.17" height="365.33"/><rect class="cls-1" x="1842.83" y="1842.67" width="363.17" height="365.33"/><rect class="cls-1" x="2206" y="1842.67" width="363.17" height="365.33"/><rect class="cls-1" x="2569.17" y="1842.67" width="363.17" height="365.33"/><rect class="cls-1" x="2932.33" y="1842.67" width="363.17" height="365.33"/><rect class="cls-1" x="3295.5" y="1842.67" width="363.17" height="365.33"/><rect class="cls-1" x="3658.67" y="1842.67" width="363.17" height="365.33"/><rect class="cls-1" x="4021.83" y="1842.67" width="363.17" height="365.33"/><rect class="cls-1" x="27" y="2208" width="363.17" height="365.33"/><rect class="cls-1" x="390.17" y="2208" width="363.17" height="365.33"/><rect class="cls-1" x="753.33" y="2208" width="363.17" height="365.33"/><rect class="cls-1" x="1116.5" y="2208" width="363.17" height="365.33"/><rect class="cls-1" x="1479.67" y="2208" width="363.17" height="365.33"/><rect class="cls-1" x="1842.83" y="2208" width="363.17" height="365.33"/><rect class="cls-1" x="2206" y="2208" width="363.17" height="365.33"/><rect class="cls-1" x="2569.17" y="2208" width="363.17" height="365.33"/><rect class="cls-1" x="2932.33" y="2208" width="363.17" height="365.33"/><rect class="cls-1" x="3295.5" y="2208" width="363.17" height="365.33"/><rect class="cls-1" x="3658.67" y="2208" width="363.17" height="365.33"/><rect class="cls-1" x="4021.83" y="2208" width="363.17" height="365.33"/><rect class="cls-1" x="27" y="2573.33" width="363.17" height="365.33"/><rect class="cls-1" x="390.17" y="2573.33" width="363.17" height="365.33"/><rect class="cls-1" x="753.33" y="2573.33" width="363.17" height="365.33"/><rect class="cls-1" x="1116.5" y="2573.33" width="363.17" height="365.33"/><rect class="cls-1" x="1479.67" y="2573.33" width="363.17" height="365.33"/><rect class="cls-1" x="1842.83" y="2573.33" width="363.17" height="365.33"/><rect class="cls-1" x="2206" y="2573.33" width="363.17" height="365.33"/><rect class="cls-1" x="2569.17" y="2573.33" width="363.17" height="365.33"/><rect class="cls-1" x="2932.33" y="2573.33" width="363.17" height="365.33"/><rect class="cls-1" x="3295.5" y="2573.33" width="363.17" height="365.33"/><rect class="cls-1" x="3658.67" y="2573.33" width="363.17" height="365.33"/><rect class="cls-1" x="4021.83" y="2573.33" width="363.17" height="365.33"/><rect class="cls-1" x="27" y="2938.67" width="363.17" height="365.33"/><rect class="cls-1" x="390.17" y="2938.67" width="363.17" height="365.33"/><rect class="cls-1" x="753.33" y="2938.67" width="363.17" height="365.33"/><rect class="cls-1" x="1116.5" y="2938.67" width="363.17" height="365.33"/><rect class="cls-1" x="1479.67" y="2938.67" width="363.17" height="365.33"/><rect class="cls-1" x="1842.83" y="2938.67" width="363.17" height="365.33"/><rect class="cls-1" x="2206" y="2938.67" width="363.17" height="365.33"/><rect class="cls-1" x="2569.17" y="2938.67" width="363.17" height="365.33"/><rect class="cls-1" x="2932.33" y="2938.67" width="363.17" height="365.33"/><rect class="cls-1" x="3295.5" y="2938.67" width="363.17" height="365.33"/><rect class="cls-1" x="3658.67" y="2938.67" width="363.17" height="365.33"/><rect class="cls-1" x="4021.83" y="2938.67" width="363.17" height="365.33"/><rect class="cls-1" x="27" y="3304" width="363.17" height="365.33"/><rect class="cls-1" x="390.17" y="3304" width="363.17" height="365.33"/><rect class="cls-1" x="753.33" y="3304" width="363.17" height="365.33"/><rect class="cls-1" x="1116.5" y="3304" width="363.17" height="365.33"/><rect class="cls-1" x="1479.67" y="3304" width="363.17" height="365.33"/><rect class="cls-1" x="1842.83" y="3304" width="363.17" height="365.33"/><rect class="cls-1" x="2206" y="3304" width="363.17" height="365.33"/><rect class="cls-1" x="2569.17" y="3304" width="363.17" height="365.33"/><rect class="cls-1" x="2932.33" y="3304" width="363.17" height="365.33"/><rect class="cls-1" x="3295.5" y="3304" width="363.17" height="365.33"/><rect class="cls-1" x="3658.67" y="3304" width="363.17" height="365.33"/><rect class="cls-1" x="4021.83" y="3304" width="363.17" height="365.33"/><rect class="cls-1" x="27" y="3669.33" width="363.17" height="365.33"/><rect class="cls-1" x="390.17" y="3669.33" width="363.17" height="365.33"/><rect class="cls-1" x="753.33" y="3669.33" width="363.17" height="365.33"/><rect class="cls-1" x="1116.5" y="3669.33" width="363.17" height="365.33"/><rect class="cls-1" x="1479.67" y="3669.33" width="363.17" height="365.33"/><rect class="cls-1" x="1842.83" y="3669.33" width="363.17" height="365.33"/><rect class="cls-1" x="2206" y="3669.33" width="363.17" height="365.33"/><rect class="cls-1" x="2569.17" y="3669.33" width="363.17" height="365.33"/><rect class="cls-1" x="2932.33" y="3669.33" width="363.17" height="365.33"/><rect class="cls-1" x="3295.5" y="3669.33" width="363.17" height="365.33"/><rect class="cls-1" x="3658.67" y="3669.33" width="363.17" height="365.33"/><rect class="cls-1" x="4021.83" y="3669.33" width="363.17" height="365.33"/><rect class="cls-1" x="27" y="4034.67" width="363.17" height="365.33"/><rect class="cls-1" x="390.17" y="4034.67" width="363.17" height="365.33"/><rect class="cls-1" x="753.33" y="4034.67" width="363.17" height="365.33"/><rect class="cls-1" x="1116.5" y="4034.67" width="363.17" height="365.33"/><rect class="cls-1" x="1479.67" y="4034.67" width="363.17" height="365.33"/><rect class="cls-1" x="1842.83" y="4034.67" width="363.17" height="365.33"/><rect class="cls-1" x="2206" y="4034.67" width="363.17" height="365.33"/><rect class="cls-1" x="2569.17" y="4034.67" width="363.17" height="365.33"/><rect class="cls-1" x="2932.33" y="4034.67" width="363.17" height="365.33"/><rect class="cls-1" x="3295.5" y="4034.67" width="363.17" height="365.33"/><rect class="cls-1" x="3658.67" y="4034.67" width="363.17" height="365.33"/><rect class="cls-1" x="4021.83" y="4034.67" width="363.17" height="365.33"/></svg>