<?xml version="1.0" encoding="UTF-8"?><svg id="_레이어_2" xmlns="http://www.w3.org/2000/svg" viewBox="0 0 4402 4416"><defs><style>.cls-1{fill:none;stroke:#000;stroke-miterlimit:10;}</style></defs><rect class="cls-1" x="25.5" y="30.5" width="217.6" height="217.6"/><rect class="cls-1" x="243.1" y="30.5" width="217.6" height="217.6"/><rect class="cls-1" x="460.7" y="30.5" width="217.6" height="217.6"/><rect class="cls-1" x="678.3" y="30.5" width="217.6" height="217.6"/><rect class="cls-1" x="895.9" y="30.5" width="217.6" height="217.6"/><rect class="cls-1" x="1113.5" y="30.5" width="217.6" height="217.6"/><rect class="cls-1" x="1331.1" y="30.5" width="217.6" height="217.6"/><rect class="cls-1" x="1548.7" y="30.5" width="217.6" height="217.6"/><rect class="cls-1" x="1766.3" y="30.5" width="217.6" height="217.6"/><rect class="cls-1" x="1983.9" y="30.5" width="217.6" height="217.6"/><rect class="cls-1" x="2201.5" y="30.5" width="217.6" height="217.6"/><rect class="cls-1" x="2419.1" y="30.5" width="217.6" height="217.6"/><rect class="cls-1" x="2636.7" y="30.5" width="217.6" height="217.6"/><rect class="cls-1" x="2854.3" y="30.5" width="217.6" height="217.6"/><rect class="cls-1" x="3071.9" y="30.5" width="217.6" height="217.6"/><rect class="cls-1" x="3289.5" y="30.5" width="217.6" height="217.6"/><rect class="cls-1" x="3507.1" y="30.5" width="217.6" height="217.6"/><rect class="cls-1" x="3724.7" y="30.5" width="217.6" height="217.6"/><rect class="cls-1" x="3942.3" y="30.5" width="217.6" height="217.6"/><rect class="cls-1" x="4159.9" y="30.5" width="217.6" height="217.6"/><rect class="cls-1" x="25.5" y="248.1" width="217.6" height="217.6"/><rect class="cls-1" x="243.1" y="248.1" width="217.6" height="217.6"/><rect class="cls-1" x="460.7" y="248.1" width="217.6" height="217.6"/><rect class="cls-1" x="678.3" y="248.1" width="217.6" height="217.6"/><rect class="cls-1" x="895.9" y="248.1" width="217.6" height="217.6"/><rect class="cls-1" x="1113.5" y="248.1" width="217.6" height="217.6"/><rect class="cls-1" x="1331.1" y="248.1" width="217.6" height="217.6"/><rect class="cls-1" x="1548.7" y="248.1" width="217.6" height="217.6"/><rect class="cls-1" x="1766.3" y="248.1" width="217.6" height="217.6"/><rect class="cls-1" x="1983.9" y="248.1" width="217.6" height="217.6"/><rect class="cls-1" x="2201.5" y="248.1" width="217.6" height="217.6"/><rect class="cls-1" x="2419.1" y="248.1" width="217.6" height="217.6"/><rect class="cls-1" x="2636.7" y="248.1" width="217.6" height="217.6"/><rect class="cls-1" x="2854.3" y="248.1" width="217.6" height="217.6"/><rect class="cls-1" x="3071.9" y="248.1" width="217.6" height="217.6"/><rect class="cls-1" x="3289.5" y="248.1" width="217.6" height="217.6"/><rect class="cls-1" x="3507.1" y="248.1" width="217.6" height="217.6"/><rect class="cls-1" x="3724.7" y="248.1" width="217.6" height="217.6"/><rect class="cls-1" x="3942.3" y="248.1" width="217.6" height="217.6"/><rect class="cls-1" x="4159.9" y="248.1" width="217.6" height="217.6"/><rect class="cls-1" x="25.5" y="465.7" width="217.6" height="217.6"/><rect class="cls-1" x="243.1" y="465.7" width="217.6" height="217.6"/><rect class="cls-1" x="460.7" y="465.7" width="217.6" height="217.6"/><rect class="cls-1" x="678.3" y="465.7" width="217.6" height="217.6"/><rect class="cls-1" x="895.9" y="465.7" width="217.6" height="217.6"/><rect class="cls-1" x="1113.5" y="465.7" width="217.6" height="217.6"/><rect class="cls-1" x="1331.1" y="465.7" width="217.6" height="217.6"/><rect class="cls-1" x="1548.7" y="465.7" width="217.6" height="217.6"/><rect class="cls-1" x="1766.3" y="465.7" width="217.6" height="217.6"/><rect class="cls-1" x="1983.9" y="465.7" width="217.6" height="217.6"/><rect class="cls-1" x="2201.5" y="465.7" width="217.6" height="217.6"/><rect class="cls-1" x="2419.1" y="465.7" width="217.6" height="217.6"/><rect class="cls-1" x="2636.7" y="465.7" width="217.6" height="217.6"/><rect class="cls-1" x="2854.3" y="465.7" width="217.6" height="217.6"/><rect class="cls-1" x="3071.9" y="465.7" width="217.6" height="217.6"/><rect class="cls-1" x="3289.5" y="465.7" width="217.6" height="217.6"/><rect class="cls-1" x="3507.1" y="465.7" width="217.6" height="217.6"/><rect class="cls-1" x="3724.7" y="465.7" width="217.6" height="217.6"/><rect class="cls-1" x="3942.3" y="465.7" width="217.6" height="217.6"/><rect class="cls-1" x="4159.9" y="465.7" width="217.6" height="217.6"/><rect class="cls-1" x="25.5" y="683.3" width="217.6" height="217.6"/><rect class="cls-1" x="243.1" y="683.3" width="217.6" height="217.6"/><rect class="cls-1" x="460.7" y="683.3" width="217.6" height="217.6"/><rect class="cls-1" x="678.3" y="683.3" width="217.6" height="217.6"/><rect class="cls-1" x="895.9" y="683.3" width="217.6" height="217.6"/><rect class="cls-1" x="1113.5" y="683.3" width="217.6" height="217.6"/><rect class="cls-1" x="1331.1" y="683.3" width="217.6" height="217.6"/><rect class="cls-1" x="1548.7" y="683.3" width="217.6" height="217.6"/><rect class="cls-1" x="1766.3" y="683.3" width="217.6" height="217.6"/><rect class="cls-1" x="1983.9" y="683.3" width="217.6" height="217.6"/><rect class="cls-1" x="2201.5" y="683.3" width="217.6" height="217.6"/><rect class="cls-1" x="2419.1" y="683.3" width="217.6" height="217.6"/><rect class="cls-1" x="2636.7" y="683.3" width="217.6" height="217.6"/><rect class="cls-1" x="2854.3" y="683.3" width="217.6" height="217.6"/><rect class="cls-1" x="3071.9" y="683.3" width="217.6" height="217.6"/><rect class="cls-1" x="3289.5" y="683.3" width="217.6" height="217.6"/><rect class="cls-1" x="3507.1" y="683.3" width="217.6" height="217.6"/><rect class="cls-1" x="3724.7" y="683.3" width="217.6" height="217.6"/><rect class="cls-1" x="3942.3" y="683.3" width="217.6" height="217.6"/><rect class="cls-1" x="4159.9" y="683.3" width="217.6" height="217.6"/><rect class="cls-1" x="25.5" y="900.9" width="217.6" height="217.6"/><rect class="cls-1" x="243.1" y="900.9" width="217.6" height="217.6"/><rect class="cls-1" x="460.7" y="900.9" width="217.6" height="217.6"/><rect class="cls-1" x="678.3" y="900.9" width="217.6" height="217.6"/><rect class="cls-1" x="895.9" y="900.9" width="217.6" height="217.6"/><rect class="cls-1" x="1113.5" y="900.9" width="217.6" height="217.6"/><rect class="cls-1" x="1331.1" y="900.9" width="217.6" height="217.6"/><rect class="cls-1" x="1548.7" y="900.9" width="217.6" height="217.6"/><rect class="cls-1" x="1766.3" y="900.9" width="217.6" height="217.6"/><rect class="cls-1" x="1983.9" y="900.9" width="217.6" height="217.6"/><rect class="cls-1" x="2201.5" y="900.9" width="217.6" height="217.6"/><rect class="cls-1" x="2419.1" y="900.9" width="217.6" height="217.6"/><rect class="cls-1" x="2636.7" y="900.9" width="217.6" height="217.6"/><rect class="cls-1" x="2854.3" y="900.9" width="217.6" height="217.6"/><rect class="cls-1" x="3071.9" y="900.9" width="217.6" height="217.6"/><rect class="cls-1" x="3289.5" y="900.9" width="217.6" height="217.6"/><rect class="cls-1" x="3507.1" y="900.9" width="217.6" height="217.6"/><rect class="cls-1" x="3724.7" y="900.9" width="217.6" height="217.6"/><rect class="cls-1" x="3942.3" y="900.9" width="217.6" height="217.6"/><rect class="cls-1" x="4159.9" y="900.9" width="217.6" height="217.6"/><rect class="cls-1" x="25.5" y="1118.5" width="217.6" height="217.6"/><rect class="cls-1" x="243.1" y="1118.5" width="217.6" height="217.6"/><rect class="cls-1" x="460.7" y="1118.5" width="217.6" height="217.6"/><rect class="cls-1" x="678.3" y="1118.5" width="217.6" height="217.6"/><rect class="cls-1" x="895.9" y="1118.5" width="217.6" height="217.6"/><rect class="cls-1" x="1113.5" y="1118.5" width="217.6" height="217.6"/><rect class="cls-1" x="1331.1" y="1118.5" width="217.6" height="217.6"/><rect class="cls-1" x="1548.7" y="1118.5" width="217.6" height="217.6"/><rect class="cls-1" x="1766.3" y="1118.5" width="217.6" height="217.6"/><rect class="cls-1" x="1983.9" y="1118.5" width="217.6" height="217.6"/><rect class="cls-1" x="2201.5" y="1118.5" width="217.6" height="217.6"/><rect class="cls-1" x="2419.1" y="1118.5" width="217.6" height="217.6"/><rect class="cls-1" x="2636.7" y="1118.5" width="217.6" height="217.6"/><rect class="cls-1" x="2854.3" y="1118.5" width="217.6" height="217.6"/><rect class="cls-1" x="3071.9" y="1118.5" width="217.6" height="217.6"/><rect class="cls-1" x="3289.5" y="1118.5" width="217.6" height="217.6"/><rect class="cls-1" x="3507.1" y="1118.5" width="217.6" height="217.6"/><rect class="cls-1" x="3724.7" y="1118.5" width="217.6" height="217.6"/><rect class="cls-1" x="3942.3" y="1118.5" width="217.6" height="217.6"/><rect class="cls-1" x="4159.9" y="1118.5" width="217.6" height="217.6"/><rect class="cls-1" x="25.5" y="1336.1" width="217.6" height="217.6"/><rect class="cls-1" x="243.1" y="1336.1" width="217.6" height="217.6"/><rect class="cls-1" x="460.7" y="1336.1" width="217.6" height="217.6"/><rect class="cls-1" x="678.3" y="1336.1" width="217.6" height="217.6"/><rect class="cls-1" x="895.9" y="1336.1" width="217.6" height="217.6"/><rect class="cls-1" x="1113.5" y="1336.1" width="217.6" height="217.6"/><rect class="cls-1" x="1331.1" y="1336.1" width="217.6" height="217.6"/><rect class="cls-1" x="1548.7" y="1336.1" width="217.6" height="217.6"/><rect class="cls-1" x="1766.3" y="1336.1" width="217.6" height="217.6"/><rect class="cls-1" x="1983.9" y="1336.1" width="217.6" height="217.6"/><rect class="cls-1" x="2201.5" y="1336.1" width="217.6" height="217.6"/><rect class="cls-1" x="2419.1" y="1336.1" width="217.6" height="217.6"/><rect class="cls-1" x="2636.7" y="1336.1" width="217.6" height="217.6"/><rect class="cls-1" x="2854.3" y="1336.1" width="217.6" height="217.6"/><rect class="cls-1" x="3071.9" y="1336.1" width="217.6" height="217.6"/><rect class="cls-1" x="3289.5" y="1336.1" width="217.6" height="217.6"/><rect class="cls-1" x="3507.1" y="1336.1" width="217.6" height="217.6"/><rect class="cls-1" x="3724.7" y="1336.1" width="217.6" height="217.6"/><rect class="cls-1" x="3942.3" y="1336.1" width="217.6" height="217.6"/><rect class="cls-1" x="4159.9" y="1336.1" width="217.6" height="217.6"/><rect class="cls-1" x="25.5" y="1553.7" width="217.6" height="217.6"/><rect class="cls-1" x="243.1" y="1553.7" width="217.6" height="217.6"/><rect class="cls-1" x="460.7" y="1553.7" width="217.6" height="217.6"/><rect class="cls-1" x="678.3" y="1553.7" width="217.6" height="217.6"/><rect class="cls-1" x="895.9" y="1553.7" width="217.6" height="217.6"/><rect class="cls-1" x="1113.5" y="1553.7" width="217.6" height="217.6"/><rect class="cls-1" x="1331.1" y="1553.7" width="217.6" height="217.6"/><rect class="cls-1" x="1548.7" y="1553.7" width="217.6" height="217.6"/><rect class="cls-1" x="1766.3" y="1553.7" width="217.6" height="217.6"/><rect class="cls-1" x="1983.9" y="1553.7" width="217.6" height="217.6"/><rect class="cls-1" x="2201.5" y="1553.7" width="217.6" height="217.6"/><rect class="cls-1" x="2419.1" y="1553.7" width="217.6" height="217.6"/><rect class="cls-1" x="2636.7" y="1553.7" width="217.6" height="217.6"/><rect class="cls-1" x="2854.3" y="1553.7" width="217.6" height="217.6"/><rect class="cls-1" x="3071.9" y="1553.7" width="217.6" height="217.6"/><rect class="cls-1" x="3289.5" y="1553.7" width="217.6" height="217.6"/><rect class="cls-1" x="3507.1" y="1553.7" width="217.6" height="217.6"/><rect class="cls-1" x="3724.7" y="1553.7" width="217.6" height="217.6"/><rect class="cls-1" x="3942.3" y="1553.7" width="217.6" height="217.6"/><rect class="cls-1" x="4159.9" y="1553.7" width="217.6" height="217.6"/><rect class="cls-1" x="25.5" y="1771.3" width="217.6" height="217.6"/><rect class="cls-1" x="243.1" y="1771.3" width="217.6" height="217.6"/><rect class="cls-1" x="460.7" y="1771.3" width="217.6" height="217.6"/><rect class="cls-1" x="678.3" y="1771.3" width="217.6" height="217.6"/><rect class="cls-1" x="895.9" y="1771.3" width="217.6" height="217.6"/><rect class="cls-1" x="1113.5" y="1771.3" width="217.6" height="217.6"/><rect class="cls-1" x="1331.1" y="1771.3" width="217.6" height="217.6"/><rect class="cls-1" x="1548.7" y="1771.3" width="217.6" height="217.6"/><rect class="cls-1" x="1766.3" y="1771.3" width="217.6" height="217.6"/><rect class="cls-1" x="1983.9" y="1771.3" width="217.6" height="217.6"/><rect class="cls-1" x="2201.5" y="1771.3" width="217.6" height="217.6"/><rect class="cls-1" x="2419.1" y="1771.3" width="217.6" height="217.6"/><rect class="cls-1" x="2636.7" y="1771.3" width="217.6" height="217.6"/><rect class="cls-1" x="2854.3" y="1771.3" width="217.6" height="217.6"/><rect class="cls-1" x="3071.9" y="1771.3" width="217.6" height="217.6"/><rect class="cls-1" x="3289.5" y="1771.3" width="217.6" height="217.6"/><rect class="cls-1" x="3507.1" y="1771.3" width="217.6" height="217.6"/><rect class="cls-1" x="3724.7" y="1771.3" width="217.6" height="217.6"/><rect class="cls-1" x="3942.3" y="1771.3" width="217.6" height="217.6"/><rect class="cls-1" x="4159.9" y="1771.3" width="217.6" height="217.6"/><rect class="cls-1" x="25.5" y="1988.9" width="217.6" height="217.6"/><rect class="cls-1" x="243.1" y="1988.9" width="217.6" height="217.6"/><rect class="cls-1" x="460.7" y="1988.9" width="217.6" height="217.6"/><rect class="cls-1" x="678.3" y="1988.9" width="217.6" height="217.6"/><rect class="cls-1" x="895.9" y="1988.9" width="217.6" height="217.6"/><rect class="cls-1" x="1113.5" y="1988.9" width="217.6" height="217.6"/><rect class="cls-1" x="1331.1" y="1988.9" width="217.6" height="217.6"/><rect class="cls-1" x="1548.7" y="1988.9" width="217.6" height="217.6"/><rect class="cls-1" x="1766.3" y="1988.9" width="217.6" height="217.6"/><rect class="cls-1" x="1983.9" y="1988.9" width="217.6" height="217.6"/><rect class="cls-1" x="2201.5" y="1988.9" width="217.6" height="217.6"/><rect class="cls-1" x="2419.1" y="1988.9" width="217.6" height="217.6"/><rect class="cls-1" x="2636.7" y="1988.9" width="217.6" height="217.6"/><rect class="cls-1" x="2854.3" y="1988.9" width="217.6" height="217.6"/><rect class="cls-1" x="3071.9" y="1988.9" width="217.6" height="217.6"/><rect class="cls-1" x="3289.5" y="1988.9" width="217.6" height="217.6"/><rect class="cls-1" x="3507.1" y="1988.9" width="217.6" height="217.6"/><rect class="cls-1" x="3724.7" y="1988.9" width="217.6" height="217.6"/><rect class="cls-1" x="3942.3" y="1988.9" width="217.6" height="217.6"/><rect class="cls-1" x="4159.9" y="1988.9" width="217.6" height="217.6"/><rect class="cls-1" x="25.5" y="2206.5" width="217.6" height="217.6"/><rect class="cls-1" x="243.1" y="2206.5" width="217.6" height="217.6"/><rect class="cls-1" x="460.7" y="2206.5" width="217.6" height="217.6"/><rect class="cls-1" x="678.3" y="2206.5" width="217.6" height="217.6"/><rect class="cls-1" x="895.9" y="2206.5" width="217.6" height="217.6"/><rect class="cls-1" x="1113.5" y="2206.5" width="217.6" height="217.6"/><rect class="cls-1" x="1331.1" y="2206.5" width="217.6" height="217.6"/><rect class="cls-1" x="1548.7" y="2206.5" width="217.6" height="217.6"/><rect class="cls-1" x="1766.3" y="2206.5" width="217.6" height="217.6"/><rect class="cls-1" x="1983.9" y="2206.5" width="217.6" height="217.6"/><rect class="cls-1" x="2201.5" y="2206.5" width="217.6" height="217.6"/><rect class="cls-1" x="2419.1" y="2206.5" width="217.6" height="217.6"/><rect class="cls-1" x="2636.7" y="2206.5" width="217.6" height="217.6"/><rect class="cls-1" x="2854.3" y="2206.5" width="217.6" height="217.6"/><rect class="cls-1" x="3071.9" y="2206.5" width="217.6" height="217.6"/><rect class="cls-1" x="3289.5" y="2206.5" width="217.6" height="217.6"/><rect class="cls-1" x="3507.1" y="2206.5" width="217.6" height="217.6"/><rect class="cls-1" x="3724.7" y="2206.5" width="217.6" height="217.6"/><rect class="cls-1" x="3942.3" y="2206.5" width="217.6" height="217.6"/><rect class="cls-1" x="4159.9" y="2206.5" width="217.6" height="217.6"/><rect class="cls-1" x="25.5" y="2424.1" width="217.6" height="217.6"/><rect class="cls-1" x="243.1" y="2424.1" width="217.6" height="217.6"/><rect class="cls-1" x="460.7" y="2424.1" width="217.6" height="217.6"/><rect class="cls-1" x="678.3" y="2424.1" width="217.6" height="217.6"/><rect class="cls-1" x="895.9" y="2424.1" width="217.6" height="217.6"/><rect class="cls-1" x="1113.5" y="2424.1" width="217.6" height="217.6"/><rect class="cls-1" x="1331.1" y="2424.1" width="217.6" height="217.6"/><rect class="cls-1" x="1548.7" y="2424.1" width="217.6" height="217.6"/><rect class="cls-1" x="1766.3" y="2424.1" width="217.6" height="217.6"/><rect class="cls-1" x="1983.9" y="2424.1" width="217.6" height="217.6"/><rect class="cls-1" x="2201.5" y="2424.1" width="217.6" height="217.6"/><rect class="cls-1" x="2419.1" y="2424.1" width="217.6" height="217.6"/><rect class="cls-1" x="2636.7" y="2424.1" width="217.6" height="217.6"/><rect class="cls-1" x="2854.3" y="2424.1" width="217.6" height="217.6"/><rect class="cls-1" x="3071.9" y="2424.1" width="217.6" height="217.6"/><rect class="cls-1" x="3289.5" y="2424.1" width="217.6" height="217.6"/><rect class="cls-1" x="3507.1" y="2424.1" width="217.6" height="217.6"/><rect class="cls-1" x="3724.7" y="2424.1" width="217.6" height="217.6"/><rect class="cls-1" x="3942.3" y="2424.1" width="217.6" height="217.6"/><rect class="cls-1" x="4159.9" y="2424.1" width="217.6" height="217.6"/><rect class="cls-1" x="25.5" y="2641.7" width="217.6" height="217.6"/><rect class="cls-1" x="243.1" y="2641.7" width="217.6" height="217.6"/><rect class="cls-1" x="460.7" y="2641.7" width="217.6" height="217.6"/><rect class="cls-1" x="678.3" y="2641.7" width="217.6" height="217.6"/><rect class="cls-1" x="895.9" y="2641.7" width="217.6" height="217.6"/><rect class="cls-1" x="1113.5" y="2641.7" width="217.6" height="217.6"/><rect class="cls-1" x="1331.1" y="2641.7" width="217.6" height="217.6"/><rect class="cls-1" x="1548.7" y="2641.7" width="217.6" height="217.6"/><rect class="cls-1" x="1766.3" y="2641.7" width="217.6" height="217.6"/><rect class="cls-1" x="1983.9" y="2641.7" width="217.6" height="217.6"/><rect class="cls-1" x="2201.5" y="2641.7" width="217.6" height="217.6"/><rect class="cls-1" x="2419.1" y="2641.7" width="217.6" height="217.6"/><rect class="cls-1" x="2636.7" y="2641.7" width="217.6" height="217.6"/><rect class="cls-1" x="2854.3" y="2641.7" width="217.6" height="217.6"/><rect class="cls-1" x="3071.9" y="2641.7" width="217.6" height="217.6"/><rect class="cls-1" x="3289.5" y="2641.7" width="217.6" height="217.6"/><rect class="cls-1" x="3507.1" y="2641.7" width="217.6" height="217.6"/><rect class="cls-1" x="3724.7" y="2641.7" width="217.6" height="217.6"/><rect class="cls-1" x="3942.3" y="2641.7" width="217.6" height="217.6"/><rect class="cls-1" x="4159.9" y="2641.7" width="217.6" height="217.6"/><rect class="cls-1" x="25.5" y="2859.3" width="217.6" height="217.6"/><rect class="cls-1" x="243.1" y="2859.3" width="217.6" height="217.6"/><rect class="cls-1" x="460.7" y="2859.3" width="217.6" height="217.6"/><rect class="cls-1" x="678.3" y="2859.3" width="217.6" height="217.6"/><rect class="cls-1" x="895.9" y="2859.3" width="217.6" height="217.6"/><rect class="cls-1" x="1113.5" y="2859.3" width="217.6" height="217.6"/><rect class="cls-1" x="1331.1" y="2859.3" width="217.6" height="217.6"/><rect class="cls-1" x="1548.7" y="2859.3" width="217.6" height="217.6"/><rect class="cls-1" x="1766.3" y="2859.3" width="217.6" height="217.6"/><rect class="cls-1" x="1983.9" y="2859.3" width="217.6" height="217.6"/><rect class="cls-1" x="2201.5" y="2859.3" width="217.6" height="217.6"/><rect class="cls-1" x="2419.1" y="2859.3" width="217.6" height="217.6"/><rect class="cls-1" x="2636.7" y="2859.3" width="217.6" height="217.6"/><rect class="cls-1" x="2854.3" y="2859.3" width="217.6" height="217.6"/><rect class="cls-1" x="3071.9" y="2859.3" width="217.6" height="217.6"/><rect class="cls-1" x="3289.5" y="2859.3" width="217.6" height="217.6"/><rect class="cls-1" x="3507.1" y="2859.3" width="217.6" height="217.6"/><rect class="cls-1" x="3724.7" y="2859.3" width="217.6" height="217.6"/><rect class="cls-1" x="3942.3" y="2859.3" width="217.6" height="217.6"/><rect class="cls-1" x="4159.9" y="2859.3" width="217.6" height="217.6"/><rect class="cls-1" x="25.5" y="3076.9" width="217.6" height="217.6"/><rect class="cls-1" x="243.1" y="3076.9" width="217.6" height="217.6"/><rect class="cls-1" x="460.7" y="3076.9" width="217.6" height="217.6"/><rect class="cls-1" x="678.3" y="3076.9" width="217.6" height="217.6"/><rect class="cls-1" x="895.9" y="3076.9" width="217.6" height="217.6"/><rect class="cls-1" x="1113.5" y="3076.9" width="217.6" height="217.6"/><rect class="cls-1" x="1331.1" y="3076.9" width="217.6" height="217.6"/><rect class="cls-1" x="1548.7" y="3076.9" width="217.6" height="217.6"/><rect class="cls-1" x="1766.3" y="3076.9" width="217.6" height="217.6"/><rect class="cls-1" x="1983.9" y="3076.9" width="217.6" height="217.6"/><rect class="cls-1" x="2201.5" y="3076.9" width="217.6" height="217.6"/><rect class="cls-1" x="2419.1" y="3076.9" width="217.6" height="217.6"/><rect class="cls-1" x="2636.7" y="3076.9" width="217.6" height="217.6"/><rect class="cls-1" x="2854.3" y="3076.9" width="217.6" height="217.6"/><rect class="cls-1" x="3071.9" y="3076.9" width="217.6" height="217.6"/><rect class="cls-1" x="3289.5" y="3076.9" width="217.6" height="217.6"/><rect class="cls-1" x="3507.1" y="3076.9" width="217.6" height="217.6"/><rect class="cls-1" x="3724.7" y="3076.9" width="217.6" height="217.6"/><rect class="cls-1" x="3942.3" y="3076.9" width="217.6" height="217.6"/><rect class="cls-1" x="4159.9" y="3076.9" width="217.6" height="217.6"/><rect class="cls-1" x="25.5" y="3294.5" width="217.6" height="217.6"/><rect class="cls-1" x="243.1" y="3294.5" width="217.6" height="217.6"/><rect class="cls-1" x="460.7" y="3294.5" width="217.6" height="217.6"/><rect class="cls-1" x="678.3" y="3294.5" width="217.6" height="217.6"/><rect class="cls-1" x="895.9" y="3294.5" width="217.6" height="217.6"/><rect class="cls-1" x="1113.5" y="3294.5" width="217.6" height="217.6"/><rect class="cls-1" x="1331.1" y="3294.5" width="217.6" height="217.6"/><rect class="cls-1" x="1548.7" y="3294.5" width="217.6" height="217.6"/><rect class="cls-1" x="1766.3" y="3294.5" width="217.6" height="217.6"/><rect class="cls-1" x="1983.9" y="3294.5" width="217.6" height="217.6"/><rect class="cls-1" x="2201.5" y="3294.5" width="217.6" height="217.6"/><rect class="cls-1" x="2419.1" y="3294.5" width="217.6" height="217.6"/><rect class="cls-1" x="2636.7" y="3294.5" width="217.6" height="217.6"/><rect class="cls-1" x="2854.3" y="3294.5" width="217.6" height="217.6"/><rect class="cls-1" x="3071.9" y="3294.5" width="217.6" height="217.6"/><rect class="cls-1" x="3289.5" y="3294.5" width="217.6" height="217.6"/><rect class="cls-1" x="3507.1" y="3294.5" width="217.6" height="217.6"/><rect class="cls-1" x="3724.7" y="3294.5" width="217.6" height="217.6"/><rect class="cls-1" x="3942.3" y="3294.5" width="217.6" height="217.6"/><rect class="cls-1" x="4159.9" y="3294.5" width="217.6" height="217.6"/><rect class="cls-1" x="25.5" y="3512.1" width="217.6" height="217.6"/><rect class="cls-1" x="243.1" y="3512.1" width="217.6" height="217.6"/><rect class="cls-1" x="460.7" y="3512.1" width="217.6" height="217.6"/><rect class="cls-1" x="678.3" y="3512.1" width="217.6" height="217.6"/><rect class="cls-1" x="895.9" y="3512.1" width="217.6" height="217.6"/><rect class="cls-1" x="1113.5" y="3512.1" width="217.6" height="217.6"/><rect class="cls-1" x="1331.1" y="3512.1" width="217.6" height="217.6"/><rect class="cls-1" x="1548.7" y="3512.1" width="217.6" height="217.6"/><rect class="cls-1" x="1766.3" y="3512.1" width="217.6" height="217.6"/><rect class="cls-1" x="1983.9" y="3512.1" width="217.6" height="217.6"/><rect class="cls-1" x="2201.5" y="3512.1" width="217.6" height="217.6"/><rect class="cls-1" x="2419.1" y="3512.1" width="217.6" height="217.6"/><rect class="cls-1" x="2636.7" y="3512.1" width="217.6" height="217.6"/><rect class="cls-1" x="2854.3" y="3512.1" width="217.6" height="217.6"/><rect class="cls-1" x="3071.9" y="3512.1" width="217.6" height="217.6"/><rect class="cls-1" x="3289.5" y="3512.1" width="217.6" height="217.6"/><rect class="cls-1" x="3507.1" y="3512.1" width="217.6" height="217.6"/><rect class="cls-1" x="3724.7" y="3512.1" width="217.6" height="217.6"/><rect class="cls-1" x="3942.3" y="3512.1" width="217.6" height="217.6"/><rect class="cls-1" x="4159.9" y="3512.1" width="217.6" height="217.6"/><rect class="cls-1" x="25.5" y="3729.7" width="217.6" height="217.6"/><rect class="cls-1" x="243.1" y="3729.7" width="217.6" height="217.6"/><rect class="cls-1" x="460.7" y="3729.7" width="217.6" height="217.6"/><rect class="cls-1" x="678.3" y="3729.7" width="217.6" height="217.6"/><rect class="cls-1" x="895.9" y="3729.7" width="217.6" height="217.6"/><rect class="cls-1" x="1113.5" y="3729.7" width="217.6" height="217.6"/><rect class="cls-1" x="1331.1" y="3729.7" width="217.6" height="217.6"/><rect class="cls-1" x="1548.7" y="3729.7" width="217.6" height="217.6"/><rect class="cls-1" x="1766.3" y="3729.7" width="217.6" height="217.6"/><rect class="cls-1" x="1983.9" y="3729.7" width="217.6" height="217.6"/><rect class="cls-1" x="2201.5" y="3729.7" width="217.6" height="217.6"/><rect class="cls-1" x="2419.1" y="3729.7" width="217.6" height="217.6"/><rect class="cls-1" x="2636.7" y="3729.7" width="217.6" height="217.6"/><rect class="cls-1" x="2854.3" y="3729.7" width="217.6" height="217.6"/><rect class="cls-1" x="3071.9" y="3729.7" width="217.6" height="217.6"/><rect class="cls-1" x="3289.5" y="3729.7" width="217.6" height="217.6"/><rect class="cls-1" x="3507.1" y="3729.7" width="217.6" height="217.6"/><rect class="cls-1" x="3724.7" y="3729.7" width="217.6" height="217.6"/><rect class="cls-1" x="3942.3" y="3729.7" width="217.6" height="217.6"/><rect class="cls-1" x="4159.9" y="3729.7" width="217.6" height="217.6"/><rect class="cls-1" x="25.5" y="3947.3" width="217.6" height="217.6"/><rect class="cls-1" x="243.1" y="3947.3" width="217.6" height="217.6"/><rect class="cls-1" x="460.7" y="3947.3" width="217.6" height="217.6"/><rect class="cls-1" x="678.3" y="3947.3" width="217.6" height="217.6"/><rect class="cls-1" x="895.9" y="3947.3" width="217.6" height="217.6"/><rect class="cls-1" x="1113.5" y="3947.3" width="217.6" height="217.6"/><rect class="cls-1" x="1331.1" y="3947.3" width="217.6" height="217.6"/><rect class="cls-1" x="1548.7" y="3947.3" width="217.6" height="217.6"/><rect class="cls-1" x="1766.3" y="3947.3" width="217.6" height="217.6"/><rect class="cls-1" x="1983.9" y="3947.3" width="217.6" height="217.6"/><rect class="cls-1" x="2201.5" y="3947.3" width="217.6" height="217.6"/><rect class="cls-1" x="2419.1" y="3947.3" width="217.6" height="217.6"/><rect class="cls-1" x="2636.7" y="3947.3" width="217.6" height="217.6"/><rect class="cls-1" x="2854.3" y="3947.3" width="217.6" height="217.6"/><rect class="cls-1" x="3071.9" y="3947.3" width="217.6" height="217.6"/><rect class="cls-1" x="3289.5" y="3947.3" width="217.6" height="217.6"/><rect class="cls-1" x="3507.1" y="3947.3" width="217.6" height="217.6"/><rect class="cls-1" x="3724.7" y="3947.3" width="217.6" height="217.6"/><rect class="cls-1" x="3942.3" y="3947.3" width="217.6" height="217.6"/><rect class="cls-1" x="4159.9" y="3947.3" width="217.6" height="217.6"/><rect class="cls-1" x="25.5" y="4164.9" width="217.6" height="217.6"/><rect class="cls-1" x="243.1" y="4164.9" width="217.6" height="217.6"/><rect class="cls-1" x="460.7" y="4164.9" width="217.6" height="217.6"/><rect class="cls-1" x="678.3" y="4164.9" width="217.6" height="217.6"/><rect class="cls-1" x="895.9" y="4164.9" width="217.6" height="217.6"/><rect class="cls-1" x="1113.5" y="4164.9" width="217.6" height="217.6"/><rect class="cls-1" x="1331.1" y="4164.9" width="217.6" height="217.6"/><rect class="cls-1" x="1548.7" y="4164.9" width="217.6" height="217.6"/><rect class="cls-1" x="1766.3" y="4164.9" width="217.6" height="217.6"/><rect class="cls-1" x="1983.9" y="4164.9" width="217.6" height="217.6"/><rect class="cls-1" x="2201.5" y="4164.9" width="217.6" height="217.6"/><rect class="cls-1" x="2419.1" y="4164.9" width="217.6" height="217.6"/><rect class="cls-1" x="2636.7" y="4164.9" width="217.6" height="217.6"/><rect class="cls-1" x="2854.3" y="4164.9" width="217.6" height="217.6"/><rect class="cls-1" x="3071.9" y="4164.9" width="217.6" height="217.6"/><rect class="cls-1" x="3289.5" y="4164.9" width="217.6" height="217.6"/><rect class="cls-1" x="3507.1" y="4164.9" width="217.6" height="217.6"/><rect class="cls-1" x="3724.7" y="4164.9" width="217.6" height="217.6"/><rect class="cls-1" x="3942.3" y="4164.9" width="217.6" height="217.6"/><rect class="cls-1" x="4159.9" y="4164.9" width="217.6" height="217.6"/></svg>