<?xml version="1.0" encoding="UTF-8"?><svg id="_레이어_2" xmlns="http://www.w3.org/2000/svg" viewBox="0 0 4402 4416"><defs><style>.cls-1{fill:none;stroke:#000;stroke-miterlimit:10;}</style></defs><rect class="cls-1" x="27" y="16" width="435.8" height="438.4"/><rect class="cls-1" x="462.8" y="16" width="435.8" height="438.4"/><rect class="cls-1" x="898.6" y="16" width="435.8" height="438.4"/><rect class="cls-1" x="1334.4" y="16" width="435.8" height="438.4"/><rect class="cls-1" x="1770.2" y="16" width="435.8" height="438.4"/><rect class="cls-1" x="2206" y="16" width="435.8" height="438.4"/><rect class="cls-1" x="2641.8" y="16" width="435.8" height="438.4"/><rect class="cls-1" x="3077.6" y="16" width="435.8" height="438.4"/><rect class="cls-1" x="3513.4" y="16" width="435.8" height="438.4"/><rect class="cls-1" x="3949.2" y="16" width="435.8" height="438.4"/><rect class="cls-1" x="27" y="454.4" width="435.8" height="438.4"/><rect class="cls-1" x="462.8" y="454.4" width="435.8" height="438.4"/><rect class="cls-1" x="898.6" y="454.4" width="435.8" height="438.4"/><rect class="cls-1" x="1334.4" y="454.4" width="435.8" height="438.4"/><rect class="cls-1" x="1770.2" y="454.4" width="435.8" height="438.4"/><rect class="cls-1" x="2206" y="454.4" width="435.8" height="438.4"/><rect class="cls-1" x="2641.8" y="454.4" width="435.8" height="438.4"/><rect class="cls-1" x="3077.6" y="454.4" width="435.8" height="438.4"/><rect class="cls-1" x="3513.4" y="454.4" width="435.8" height="438.4"/><rect class="cls-1" x="3949.2" y="454.4" width="435.8" height="438.4"/><rect class="cls-1" x="27" y="892.8" width="435.8" height="438.4"/><rect class="cls-1" x="462.8" y="892.8" width="435.8" height="438.4"/><rect class="cls-1" x="898.6" y="892.8" width="435.8" height="438.4"/><rect class="cls-1" x="1334.4" y="892.8" width="435.8" height="438.4"/><rect class="cls-1" x="1770.2" y="892.8" width="435.8" height="438.4"/><rect class="cls-1" x="2206" y="892.8" width="435.8" height="438.4"/><rect class="cls-1" x="2641.8" y="892.8" width="435.8" height="438.4"/><rect class="cls-1" x="3077.6" y="892.8" width="435.8" height="438.4"/><rect class="cls-1" x="3513.4" y="892.8" width="435.8" height="438.4"/><rect class="cls-1" x="3949.2" y="892.8" width="435.8" height="438.4"/><rect class="cls-1" x="27" y="1331.2" width="435.8" height="438.4"/><rect class="cls-1" x="462.8" y="1331.2" width="435.8" height="438.4"/><rect class="cls-1" x="898.6" y="1331.2" width="435.8" height="438.4"/><rect class="cls-1" x="1334.4" y="1331.2" width="435.8" height="438.4"/><rect class="cls-1" x="1770.2" y="1331.2" width="435.8" height="438.4"/><rect class="cls-1" x="2206" y="1331.2" width="435.8" height="438.4"/><rect class="cls-1" x="2641.8" y="1331.2" width="435.8" height="438.4"/><rect class="cls-1" x="3077.6" y="1331.2" width="435.8" height="438.4"/><rect class="cls-1" x="3513.4" y="1331.2" width="435.8" height="438.4"/><rect class="cls-1" x="3949.2" y="1331.2" width="435.8" height="438.4"/><rect class="cls-1" x="27" y="1769.6" width="435.8" height="438.4"/><rect class="cls-1" x="462.8" y="1769.6" width="435.8" height="438.4"/><rect class="cls-1" x="898.6" y="1769.6" width="435.8" height="438.4"/><rect class="cls-1" x="1334.4" y="1769.6" width="435.8" height="438.4"/><rect class="cls-1" x="1770.2" y="1769.6" width="435.8" height="438.4"/><rect class="cls-1" x="2206" y="1769.6" width="435.8" height="438.4"/><rect class="cls-1" x="2641.8" y="1769.6" width="435.8" height="438.4"/><rect class="cls-1" x="3077.6" y="1769.6" width="435.8" height="438.4"/><rect class="cls-1" x="3513.4" y="1769.6" width="435.8" height="438.4"/><rect class="cls-1" x="3949.2" y="1769.6" width="435.8" height="438.4"/><rect class="cls-1" x="27" y="2208" width="435.8" height="438.4"/><rect class="cls-1" x="462.8" y="2208" width="435.8" height="438.4"/><rect class="cls-1" x="898.6" y="2208" width="435.8" height="438.4"/><rect class="cls-1" x="1334.4" y="2208" width="435.8" height="438.4"/><rect class="cls-1" x="1770.2" y="2208" width="435.8" height="438.4"/><rect class="cls-1" x="2206" y="2208" width="435.8" height="438.4"/><rect class="cls-1" x="2641.8" y="2208" width="435.8" height="438.4"/><rect class="cls-1" x="3077.6" y="2208" width="435.8" height="438.4"/><rect class="cls-1" x="3513.4" y="2208" width="435.8" height="438.4"/><rect class="cls-1" x="3949.2" y="2208" width="435.8" height="438.4"/><rect class="cls-1" x="27" y="2646.4" width="435.8" height="438.4"/><rect class="cls-1" x="462.8" y="2646.4" width="435.8" height="438.4"/><rect class="cls-1" x="898.6" y="2646.4" width="435.8" height="438.4"/><rect class="cls-1" x="1334.4" y="2646.4" width="435.8" height="438.4"/><rect class="cls-1" x="1770.2" y="2646.4" width="435.8" height="438.4"/><rect class="cls-1" x="2206" y="2646.4" width="435.8" height="438.4"/><rect class="cls-1" x="2641.8" y="2646.4" width="435.8" height="438.4"/><rect class="cls-1" x="3077.6" y="2646.4" width="435.8" height="438.4"/><rect class="cls-1" x="3513.4" y="2646.4" width="435.8" height="438.4"/><rect class="cls-1" x="3949.2" y="2646.4" width="435.8" height="438.4"/><rect class="cls-1" x="27" y="3084.8" width="435.8" height="438.4"/><rect class="cls-1" x="462.8" y="3084.8" width="435.8" height="438.4"/><rect class="cls-1" x="898.6" y="3084.8" width="435.8" height="438.4"/><rect class="cls-1" x="1334.4" y="3084.8" width="435.8" height="438.4"/><rect class="cls-1" x="1770.2" y="3084.8" width="435.8" height="438.4"/><rect class="cls-1" x="2206" y="3084.8" width="435.8" height="438.4"/><rect class="cls-1" x="2641.8" y="3084.8" width="435.8" height="438.4"/><rect class="cls-1" x="3077.6" y="3084.8" width="435.8" height="438.4"/><rect class="cls-1" x="3513.4" y="3084.8" width="435.8" height="438.4"/><rect class="cls-1" x="3949.2" y="3084.8" width="435.8" height="438.4"/><rect class="cls-1" x="27" y="3523.2" width="435.8" height="438.4"/><rect class="cls-1" x="462.8" y="3523.2" width="435.8" height="438.4"/><rect class="cls-1" x="898.6" y="3523.2" width="435.8" height="438.4"/><rect class="cls-1" x="1334.4" y="3523.2" width="435.8" height="438.4"/><rect class="cls-1" x="1770.2" y="3523.2" width="435.8" height="438.4"/><rect class="cls-1" x="2206" y="3523.2" width="435.8" height="438.4"/><rect class="cls-1" x="2641.8" y="3523.2" width="435.8" height="438.4"/><rect class="cls-1" x="3077.6" y="3523.2" width="435.8" height="438.4"/><rect class="cls-1" x="3513.4" y="3523.2" width="435.8" height="438.4"/><rect class="cls-1" x="3949.2" y="3523.2" width="435.8" height="438.4"/><rect class="cls-1" x="27" y="3961.6" width="435.8" height="438.4"/><rect class="cls-1" x="462.8" y="3961.6" width="435.8" height="438.4"/><rect class="cls-1" x="898.6" y="3961.6" width="435.8" height="438.4"/><rect class="cls-1" x="1334.4" y="3961.6" width="435.8" height="438.4"/><rect class="cls-1" x="1770.2" y="3961.6" width="435.8" height="438.4"/><rect class="cls-1" x="2206" y="3961.6" width="435.8" height="438.4"/><rect class="cls-1" x="2641.8" y="3961.6" width="435.8" height="438.4"/><rect class="cls-1" x="3077.6" y="3961.6" width="435.8" height="438.4"/><rect class="cls-1" x="3513.4" y="3961.6" width="435.8" height="438.4"/><rect class="cls-1" x="3949.2" y="3961.6" width="435.8" height="438.4"/></svg>