<svg width="234" height="226" viewBox="0 0 234 226" fill="none" xmlns="http://www.w3.org/2000/svg">
<path d="M152.544 4.99332L164.435 20.8726L183.865 19.6189C185.08 19.5145 186.193 20.298 186.547 21.4994L192.467 40.6694L211.139 46.3107C212.302 46.6763 213.061 47.7733 213.061 49.0269L212.302 69.1371L227.988 81.0465C228.95 81.7778 229.304 83.1359 228.849 84.2851L221.461 102.881L232.239 119.596C232.897 120.64 232.795 121.998 231.986 122.938L218.88 137.825L223.485 157.361C223.789 158.562 223.232 159.816 222.119 160.443L204.864 169.793L202.688 189.746C202.537 191 201.626 191.992 200.411 192.149L181.133 194.865L172.48 212.886C171.924 213.983 170.709 214.61 169.546 214.349L150.52 210.065L136.403 223.96C135.542 224.848 134.176 224.952 133.164 224.273L116.719 213.513L98.8575 221.557C97.7443 222.079 96.4287 221.714 95.7203 220.721L83.8294 204.842L64.399 206.096C63.1846 206.2 62.0714 205.417 61.7172 204.215L55.797 185.045L37.1257 179.404C35.9619 179.038 35.2029 177.941 35.2029 176.688L35.9619 156.577L20.2759 144.668C19.3145 143.937 18.9603 142.579 19.4157 141.429L26.8033 122.834L16.0255 106.119C15.3677 105.074 15.4689 103.716 16.2785 102.776L29.3839 87.8892L24.7793 68.3536C24.4757 67.1522 25.0323 65.8986 26.1455 65.2718L43.4001 55.9218L45.5759 35.9683C45.7277 34.7147 46.6385 33.7222 47.8528 33.5655L67.1314 30.8493L75.784 12.8285C76.3406 11.7315 77.555 11.1047 78.7188 11.3659L97.7443 15.6491L111.862 1.75479C112.722 0.866802 114.088 0.762334 115.1 1.44138L131.545 12.2017L149.407 4.15757C150.52 3.63522 151.836 4.00086 152.544 4.99332Z" fill="black" stroke="black" stroke-width="1.73595" stroke-miterlimit="10"/>
<path d="M137.95 4.99332L149.841 20.8726L169.272 19.6189C170.486 19.5145 171.599 20.298 171.953 21.4994L177.874 40.6694L196.545 46.3107C197.709 46.6763 198.468 47.7733 198.468 49.0269L197.709 69.1371L213.395 81.0465C214.356 81.7778 214.71 83.1359 214.255 84.2851L206.867 102.881L217.645 119.596C218.303 120.64 218.202 121.998 217.392 122.938L204.287 137.825L208.891 157.361C209.195 158.562 208.638 159.816 207.525 160.443L190.271 169.793L188.095 189.746C187.943 191 187.032 191.992 185.818 192.149L166.539 194.865L157.887 212.886C157.33 213.983 156.116 214.61 154.952 214.349L135.926 210.065L121.809 223.96C120.949 224.848 119.582 224.952 118.57 224.273L102.126 213.513L84.2638 221.557C83.1506 222.079 81.835 221.714 81.1266 220.721L69.2356 204.842L49.8053 206.096C48.5909 206.2 47.4777 205.417 47.1235 204.215L41.2033 185.045L22.5319 179.404C21.3681 179.038 20.6091 177.941 20.6091 176.688L21.3681 156.577L5.68217 144.668C4.72077 143.937 4.36657 142.579 4.82197 141.429L12.2096 122.834L1.43178 106.119C0.773979 105.074 0.87518 103.716 1.68478 102.776L14.7901 87.8892L10.1856 68.3536C9.88196 67.1522 10.4386 65.8986 11.5518 65.2718L28.8063 55.9218L30.9821 35.9683C31.1339 34.7147 32.0447 33.7222 33.2591 33.5655L52.5376 30.8493L61.1902 12.8285C61.7468 11.7315 62.9612 11.1047 64.125 11.3659L83.1506 15.6491L97.2679 1.75479C98.1281 0.866802 99.4943 0.762334 100.506 1.44138L116.951 12.2017L134.813 4.15757C135.926 3.63522 137.242 4.00086 137.95 4.99332Z" fill="white" stroke="black" stroke-width="1.73595" stroke-miterlimit="10"/>
<path d="M138.096 90.3325C139.267 89.7911 140.366 89.2353 141.324 88.6744C146.13 85.8197 150.433 81.5678 152.708 77.372C153.628 76.1438 157.92 65.3375 154.901 56.8098C153.15 51.834 149.33 48.6247 143.435 47.3033C137.52 46.7528 132.13 47.7648 127.393 50.2499C124.906 47.7743 121.61 46.4879 117.44 46.4236C110.042 47.273 103.959 50.7554 99.5038 56.7569C92.4048 66.2591 90.939 79.9998 91.6471 88.1895C78.258 90.6599 68.6241 94.9074 68.5121 94.9464C68.2682 95.0512 44.9969 105.909 45.4269 134.644C49.1727 164.638 70.5332 165.852 77.5517 166.254C78.1874 166.289 78.7281 166.312 79.1569 166.375C79.8675 166.448 81.3709 166.318 83.4861 166.034C88.3602 165.379 96.4513 163.908 105.39 162.3C115.63 160.444 126.192 158.546 133.389 157.579C140.585 156.613 161.792 147.737 160.785 121.097C160.472 112.518 155.831 103.92 147.717 96.8931C144.726 94.317 141.429 92.0943 138.093 90.3089L138.096 90.3325Z" fill="#040000" stroke="white" stroke-width="1.92112" stroke-miterlimit="10"/>
<path d="M104.994 96.3422C103.325 84.9916 106.465 56.3778 129.785 53.6783C147.124 53.9673 143.97 77.4682 143.044 79.3936C141.318 84.7884 137.243 91.0268 130.386 94.8535" fill="white"/>
<path d="M104.994 96.3422C103.325 84.9916 106.465 56.3778 129.785 53.6783C147.124 53.9673 143.97 77.4682 143.044 79.3936C141.318 84.7884 137.243 91.0268 130.386 94.8535" stroke="black" stroke-width="1.92112" stroke-miterlimit="10"/>
<path d="M128.931 90.033C141.53 88.341 167.247 103.666 168.024 124.238C169.041 151.333 146.82 159.024 141.417 159.749C125.3 161.914 91.3507 168.946 87.3947 168.541C82.1095 167.978 58.4466 169.451 54.468 137.614C54.0427 109.287 77.0198 98.8772 77.0198 98.8772C77.0198 98.8772 89.1532 93.5017 105.339 91.3281C114.328 90.1208 128.954 90.0299 128.954 90.0299L128.931 90.033Z" fill="white" stroke="black" stroke-width="1.73595" stroke-miterlimit="10"/>
<path d="M131.584 162.026C161.865 111.925 127.744 92.0854 127.744 92.0854C127.744 92.0854 138.336 91.5275 138.264 91.5132C143.621 95.7886 168.414 114.72 141.17 159.803" fill="black"/>
<path d="M123.79 94.5183C121.377 88.1906 127.7 51.6568 157.125 54.3331C175.425 58.5274 167.148 81.0834 165.767 82.9257C163.617 86.8166 159.66 91.0221 154.632 93.9786C150.411 96.4666 142.701 99.4711 135.272 98.5957" fill="white"/>
<path d="M123.79 94.5183C121.377 88.1906 127.7 51.6568 157.125 54.3331C175.425 58.5274 167.148 81.0834 165.767 82.9257C163.617 86.8166 159.66 91.0221 154.632 93.9786C150.411 96.4666 142.701 99.4711 135.272 98.5957" stroke="black" stroke-width="1.73595" stroke-miterlimit="10" stroke-linecap="round"/>
<path d="M81.7522 126.961C83.0782 117.031 80.9344 108.53 76.9638 107.974C72.9933 107.418 68.6996 115.018 67.3736 124.948C66.0476 134.878 68.1914 143.378 72.162 143.934C76.1325 144.49 80.4262 136.891 81.7522 126.961Z" fill="white" stroke="black" stroke-width="1.38876" stroke-miterlimit="10"/>
<path d="M82.7161 124.43C83.708 117.002 82.1777 110.654 79.2981 110.251C76.4185 109.848 73.2801 115.542 72.2882 122.97C71.2963 130.398 72.8266 136.747 75.7062 137.15C78.5858 137.553 81.7242 131.858 82.7161 124.43Z" fill="black"/>
<path d="M94.342 125.275C95.668 115.345 93.5242 106.845 89.5537 106.289C85.5831 105.733 81.2894 113.332 79.9634 123.262C78.6374 133.192 80.7813 141.693 84.7518 142.249C88.7223 142.805 93.016 135.205 94.342 125.275Z" fill="white" stroke="black" stroke-width="1.38876" stroke-miterlimit="10"/>
<path d="M95.3098 122.77C96.3017 115.342 94.7714 108.994 91.8919 108.591C89.0123 108.187 85.8738 113.882 84.8819 121.31C83.89 128.738 85.4203 135.087 88.2999 135.49C91.1795 135.893 94.318 130.198 95.3098 122.77Z" fill="black"/>
<path d="M65.0823 143.701C65.0823 143.701 59.8633 144.402 60.329 148.086C60.8515 152.218 72.2028 151.198 72.2028 151.198C72.2028 151.198 81.8606 150.838 85.8566 147.491" stroke="black" stroke-width="1.38876" stroke-linecap="round" stroke-linejoin="round"/>
<path d="M93.159 139.933C93.159 139.933 79.5175 143.182 89.3922 153.598" stroke="black" stroke-width="1.38876" stroke-linejoin="round"/>
<path d="M72.5095 119.221L76.4383 118.117L73.5911 113.72L72.5095 119.221Z" fill="white"/>
<path d="M84.5252 117.607L88.431 116.507L85.6067 112.107L84.5252 117.607Z" fill="white"/>
<path d="M108.251 165.164C138.531 115.063 105.336 91.8086 105.336 91.8086C105.336 91.8086 119.009 90.4767 118.914 90.4654C124.271 94.7409 146.258 118.66 119.034 163.716" fill="black"/>
</svg>
