<svg width="340" height="452" viewBox="0 0 340 452" fill="none" xmlns="http://www.w3.org/2000/svg">
<path d="M223.012 118.77C225.167 118.166 227.201 117.519 228.993 116.828C237.996 113.291 246.479 107.286 251.452 100.853C253.346 99.0356 263.452 82.0627 260.379 67.0173C258.603 58.2412 252.819 51.8874 242.983 48.1567C232.92 45.711 223.372 46.0146 214.582 48.9513C210.912 44.1684 205.55 41.1666 198.375 39.9839C185.404 39.4979 174.043 43.756 164.858 52.648C150.239 66.7156 144.273 89.3263 143.446 103.21C119.738 103.892 102.061 108.515 101.858 108.551C101.411 108.663 58.5635 120.83 52.1163 169.015C51.0721 220.162 87.605 227.699 99.6079 230.182C100.696 230.404 101.622 230.582 102.346 230.797C103.553 231.102 106.178 231.272 109.897 231.342C118.466 231.504 132.787 231.129 148.605 230.742C166.729 230.277 185.418 229.824 198.07 230.062C210.722 230.3 249.514 220.918 254.443 176.089C256.049 161.655 250.196 146.074 237.962 132.226C233.449 127.145 228.318 122.576 223.013 118.73L223.012 118.77Z" fill="#040000" stroke="white" stroke-width="1.66" stroke-miterlimit="10"/>
<path d="M164.068 120.128C164.028 100.768 176.602 53.8507 217.511 55.3442C247.351 60.2843 236.03 98.6699 233.952 101.643C229.624 110.197 221.034 119.555 208.245 124.174" fill="white"/>
<path d="M164.068 120.128C164.028 100.768 176.602 53.8507 217.511 55.3442C247.351 60.2843 236.03 98.6699 233.952 101.643C229.624 110.197 221.034 119.555 208.245 124.174" stroke="black" stroke-width="1.66" stroke-miterlimit="10"/>
<path d="M207.004 115.296C229.105 115.713 269.528 148.022 265.729 182.685C260.713 228.339 220.555 235.49 211.078 235.311C182.805 234.779 122.633 237.801 115.928 236.101C106.974 233.794 65.8898 230.156 66.9943 175.795C73.3369 128.23 115.473 116.719 115.473 116.719C115.473 116.719 137.693 110.844 166.086 111.379C181.856 111.676 207.044 115.297 207.044 115.297L207.004 115.296Z" fill="white" stroke="black" stroke-width="1.5" stroke-miterlimit="10"/>
<path d="M193.864 236.923C257.87 161.017 204.634 119.105 204.634 119.105C204.634 119.105 222.822 120.896 222.703 120.854C230.774 129.372 268.34 167.369 210.75 235.673" fill="black"/>
<path d="M197.289 122.269C194.739 111.055 214.584 51.5282 264.125 63.5869C294.31 75.3213 274.595 110.947 271.783 113.675C267.15 119.635 259.356 125.655 250.045 129.309C242.226 132.387 228.326 135.431 215.868 132.052" fill="white"/>
<path d="M197.289 122.269C194.739 111.055 214.584 51.5282 264.125 63.5869C294.31 75.3213 274.595 110.947 271.783 113.675C267.15 119.635 259.356 125.655 250.045 129.309C242.226 132.387 228.326 135.431 215.868 132.052" stroke="black" stroke-width="1.5" stroke-miterlimit="10" stroke-linecap="round"/>
<path d="M116.543 165.239C121.303 149.004 119.736 134.262 113.044 132.313C106.352 130.364 97.0688 141.945 92.3093 158.18C87.5498 174.416 89.1164 189.157 95.8084 191.106C102.5 193.056 111.784 181.474 116.543 165.239Z" fill="white" stroke="black" stroke-width="1.2" stroke-miterlimit="10"/>
<path d="M118.827 161.265C122.387 149.121 121.339 138.13 116.485 136.716C111.632 135.302 104.811 144.001 101.251 156.146C97.6909 168.291 98.7391 179.282 103.592 180.695C108.446 182.109 115.266 173.41 118.827 161.265Z" fill="black"/>
<path d="M138.61 165.663C143.369 149.427 141.803 134.686 135.111 132.737C128.419 130.787 119.135 142.369 114.376 158.604C109.616 174.84 111.183 189.581 117.875 191.53C124.567 193.48 133.85 181.898 138.61 165.663Z" fill="white" stroke="black" stroke-width="1.2" stroke-miterlimit="10"/>
<path d="M140.905 161.728C144.465 149.584 143.417 138.592 138.563 137.179C133.71 135.765 126.89 144.464 123.329 156.609C119.769 168.753 120.817 179.745 125.671 181.158C130.524 182.572 137.344 173.873 140.905 161.728Z" fill="black"/>
<path d="M83.8737 188.844C83.8737 188.844 74.7539 188.672 74.6391 194.767C74.5103 201.605 94.221 202.797 94.221 202.797C94.221 202.797 110.865 204.635 118.544 200.206" stroke="black" stroke-width="1.2" stroke-linecap="round" stroke-linejoin="round"/>
<path d="M132.744 189.765C132.744 189.765 108.879 191.684 123.016 211.585" stroke="black" stroke-width="1.2" stroke-linejoin="round"/>
<path d="M102.479 150.188L109.496 149.351L105.705 141.247L102.479 150.188Z" fill="white"/>
<path d="M123.475 150.584L130.492 149.748L126.719 141.644L123.475 150.584Z" fill="white"/>
<path d="M211.197 113.228C211.197 113.228 219.661 83.4284 252.961 73.0074" stroke="black" stroke-width="1.5" stroke-miterlimit="10"/>
<path d="M152.872 236.151C216.747 159.936 166.048 112.377 166.048 112.377C166.048 112.377 189.628 113.669 189.469 113.626C197.522 122.178 228.996 167.961 171.565 236.503" fill="black"/>
<path d="M223.012 118.77C225.167 118.166 227.201 117.519 228.993 116.828C237.996 113.291 246.479 107.286 251.452 100.853C253.346 99.0356 263.452 82.0627 260.379 67.0173C258.603 58.2412 252.819 51.8874 242.983 48.1567C232.92 45.711 223.372 46.0146 214.582 48.9513C210.912 44.1684 205.55 41.1666 198.375 39.9839C185.404 39.4979 174.043 43.756 164.858 52.648C150.239 66.7156 144.273 89.3263 143.446 103.21C119.738 103.892 102.061 108.515 101.858 108.551C101.411 108.663 58.5635 120.83 52.1163 169.015C51.0721 220.162 87.605 227.699 99.6079 230.182C100.696 230.404 101.622 230.582 102.346 230.797C103.553 231.102 106.178 231.272 109.897 231.342C118.466 231.504 132.787 231.129 148.605 230.742C166.729 230.277 185.418 229.824 198.07 230.062C210.722 230.3 249.514 220.918 254.443 176.089C256.049 161.655 250.196 146.074 237.962 132.226C233.449 127.145 228.318 122.576 223.013 118.73L223.012 118.77Z" fill="#040000" stroke="white" stroke-width="1.66" stroke-miterlimit="10"/>
<path d="M164.068 120.128C164.028 100.768 176.602 53.8507 217.511 55.3442C247.351 60.2843 236.03 98.6699 233.952 101.643C229.624 110.197 221.034 119.555 208.245 124.174" fill="white"/>
<path d="M164.068 120.128C164.028 100.768 176.602 53.8507 217.511 55.3442C247.351 60.2843 236.03 98.6699 233.952 101.643C229.624 110.197 221.034 119.555 208.245 124.174" stroke="black" stroke-width="1.66" stroke-miterlimit="10"/>
<path d="M207.004 115.296C229.105 115.713 269.528 148.022 265.729 182.685C260.713 228.339 220.555 235.49 211.078 235.311C182.805 234.779 122.633 237.801 115.928 236.101C106.974 233.794 65.8898 230.156 66.9943 175.795C73.3369 128.23 115.473 116.719 115.473 116.719C115.473 116.719 137.693 110.844 166.086 111.379C181.856 111.676 207.044 115.297 207.044 115.297L207.004 115.296Z" fill="white" stroke="black" stroke-width="1.5" stroke-miterlimit="10"/>
<path d="M193.864 236.923C257.87 161.017 204.634 119.105 204.634 119.105C204.634 119.105 222.822 120.896 222.703 120.854C230.774 129.372 268.34 167.369 210.75 235.673" fill="black"/>
<path d="M197.289 122.269C194.739 111.055 214.584 51.5282 264.125 63.5869C294.31 75.3213 274.595 110.947 271.783 113.675C267.15 119.635 259.356 125.655 250.045 129.309C242.226 132.387 228.326 135.431 215.868 132.052" fill="white"/>
<path d="M197.289 122.269C194.739 111.055 214.584 51.5282 264.125 63.5869C294.31 75.3213 274.595 110.947 271.783 113.675C267.15 119.635 259.356 125.655 250.045 129.309C242.226 132.387 228.326 135.431 215.868 132.052" stroke="black" stroke-width="1.5" stroke-miterlimit="10" stroke-linecap="round"/>
<path d="M116.543 165.239C121.303 149.004 119.736 134.262 113.044 132.313C106.352 130.364 97.0688 141.945 92.3093 158.18C87.5498 174.416 89.1164 189.157 95.8084 191.106C102.5 193.056 111.784 181.474 116.543 165.239Z" fill="white" stroke="black" stroke-width="1.2" stroke-miterlimit="10"/>
<path d="M118.827 161.265C122.387 149.121 121.339 138.13 116.485 136.716C111.632 135.302 104.811 144.001 101.251 156.146C97.6909 168.291 98.7391 179.282 103.592 180.695C108.446 182.109 115.266 173.41 118.827 161.265Z" fill="black"/>
<path d="M138.61 165.663C143.369 149.427 141.803 134.686 135.111 132.737C128.419 130.787 119.135 142.369 114.376 158.604C109.616 174.84 111.183 189.581 117.875 191.53C124.567 193.48 133.85 181.898 138.61 165.663Z" fill="white" stroke="black" stroke-width="1.2" stroke-miterlimit="10"/>
<path d="M140.905 161.728C144.465 149.584 143.417 138.592 138.563 137.179C133.71 135.765 126.89 144.464 123.329 156.609C119.769 168.753 120.817 179.745 125.671 181.158C130.524 182.572 137.344 173.873 140.905 161.728Z" fill="black"/>
<path d="M83.8737 188.844C83.8737 188.844 74.7539 188.672 74.6391 194.767C74.5103 201.605 94.221 202.797 94.221 202.797C94.221 202.797 110.865 204.635 118.544 200.206" stroke="black" stroke-width="1.2" stroke-linecap="round" stroke-linejoin="round"/>
<path d="M132.744 189.765C132.744 189.765 108.879 191.684 123.016 211.585" stroke="black" stroke-width="1.2" stroke-linejoin="round"/>
<path d="M102.479 150.188L109.496 149.351L105.705 141.247L102.479 150.188Z" fill="white"/>
<path d="M123.475 150.584L130.492 149.748L126.719 141.644L123.475 150.584Z" fill="white"/>
<path d="M152.872 236.151C216.747 159.936 166.048 112.377 166.048 112.377C166.048 112.377 189.628 113.669 189.469 113.626C197.522 122.178 228.996 167.961 171.565 236.503" fill="black"/>
<path d="M244.563 257.598C236.941 246.471 221.171 243.977 208.629 251.631C210.251 237.579 201.454 224.757 188.131 222.389C174.96 220.048 162.054 228.786 158.111 242.215C157.93 241.931 157.749 241.647 157.559 241.37C148.919 228.756 132.222 225.242 120.273 233.527C108.324 241.812 105.758 258.05 113.764 270.575C99.7126 269.715 86.9924 278.627 84.4894 291.666C81.9198 305.093 91.1384 318.045 105.313 321.5C104.929 321.739 104.552 321.987 104.172 322.251C91.5902 330.975 87.8255 347.449 95.7666 359.042C103.708 370.635 119.764 372.864 132.259 364.675C130.31 379.204 139.105 392.529 152.579 394.924C165.927 397.289 179.044 388.061 182.855 374.05C182.966 374.211 183.067 374.379 183.178 374.54C191.701 386.983 208.3 390.355 220.249 382.069C232.198 373.784 234.972 357.032 226.494 344.597C241.262 346.425 255.02 337.295 257.628 323.669C260.188 310.248 251.006 297.311 236.881 293.849C248.797 284.833 252.274 268.875 244.554 257.604L244.563 257.598ZM179.464 350.615C175.831 345.039 170.201 341.008 163.356 339.799C156.982 338.673 150.658 340.193 145.376 343.604C145.936 337.974 144.664 332.28 141.347 327.437C138.029 322.594 133.444 319.542 128.197 318.017C134.239 314.276 138.671 308.378 140.037 301.238C141.235 294.981 139.862 288.829 136.64 283.695C141.83 283.793 147.033 282.351 151.565 279.209C156.431 275.835 159.759 271.032 161.406 265.665C165.065 271.182 170.722 275.195 177.589 276.415C183.508 277.46 189.355 276.258 194.377 273.422C193.772 279.084 195.017 284.796 198.335 289.639C201.652 294.482 206.25 297.513 211.539 299.022C206.763 302.742 203.324 307.966 202.156 314.111C200.894 320.742 202.488 327.256 206.139 332.567C200.364 332.082 194.445 333.492 189.371 337.011C184.296 340.53 181.111 345.247 179.446 350.627L179.464 350.615Z" fill="white" stroke="black" stroke-width="2" stroke-miterlimit="10"/>
<path d="M199.32 352.677C222.537 336.592 228.606 304.943 212.874 281.987C197.143 259.031 165.568 253.461 142.351 269.546C119.134 285.631 113.065 317.28 128.797 340.236C144.528 363.192 176.103 368.762 199.32 352.677Z" fill="#FADF0B" stroke="black" stroke-width="2" stroke-miterlimit="10"/>
<path d="M163.705 327.556C166.556 325.457 164.428 316.751 158.952 308.111C153.477 299.471 146.727 294.17 143.876 296.269C141.026 298.368 143.154 307.074 148.629 315.714C154.105 324.354 160.855 329.655 163.705 327.556Z" fill="black"/>
<path d="M188.611 313.182C191.462 311.083 189.334 302.377 183.858 293.737C178.383 285.097 171.633 279.796 168.783 281.895C165.932 283.994 168.06 292.7 173.536 301.34C179.011 309.98 185.761 315.281 188.611 313.182Z" fill="black"/>
<path d="M205.867 305.054C207.064 317.973 200.61 331.335 187.984 339.179C175.357 347.024 158.471 347.267 146.324 340.121" fill="#FADF0B"/>
<path d="M205.867 305.054C207.064 317.973 200.61 331.335 187.984 339.179C175.357 347.024 158.471 347.267 146.324 340.121" stroke="black" stroke-width="2" stroke-miterlimit="10"/>
<path d="M141.707 316.721L151.222 307.804L137.041 299.776L141.707 316.721Z" fill="#FADF0B"/>
<path d="M166.121 302.628L175.636 293.711L161.455 285.683L166.121 302.628Z" fill="#FADF0B"/>
<path d="M141.524 339.977C141.524 339.977 147.946 341.076 146.312 333.31L141.524 339.977Z" fill="#FADF0B"/>
<path d="M141.524 339.977C141.524 339.977 147.946 341.076 146.312 333.31" stroke="black" stroke-width="2" stroke-miterlimit="10"/>
<path d="M211.176 301.064C211.176 301.064 209.823 307.254 203.012 302.877L211.176 301.064Z" fill="#FADF0B"/>
<path d="M211.176 301.064C211.176 301.064 209.823 307.254 203.012 302.877" stroke="black" stroke-width="2" stroke-miterlimit="10"/>
<path d="M224.43 122.772C226.585 122.168 228.619 121.521 230.411 120.83C239.414 117.293 247.897 111.288 252.87 104.855C254.764 103.038 264.869 86.0647 261.797 71.0193C260.021 62.2431 254.237 55.8894 244.401 52.1587C234.338 49.713 224.79 50.0166 216 52.9533C212.33 48.1703 206.968 45.1685 199.793 43.9859C186.822 43.4998 175.461 47.7579 166.276 56.65C151.657 70.7175 145.691 93.3282 144.864 107.212C121.156 107.894 103.479 112.517 103.276 112.553C102.829 112.665 59.9815 124.831 53.5343 173.017C52.4901 224.164 89.0229 231.701 101.026 234.184C102.113 234.406 103.04 234.584 103.764 234.799C104.971 235.104 107.596 235.274 111.315 235.344C119.884 235.506 134.205 235.131 150.023 234.744C168.147 234.279 186.836 233.826 199.488 234.064C212.14 234.302 250.932 224.92 255.861 180.091C257.467 165.657 251.614 150.076 239.38 136.228C234.867 131.147 229.736 126.578 224.431 122.732L224.43 122.772Z" fill="#040000" stroke="white" stroke-width="6" stroke-miterlimit="10"/>
<path d="M164.478 120.128C164.438 100.768 177.012 53.8507 217.921 55.3442C247.761 60.2843 236.44 98.6699 234.362 101.643C230.034 110.197 221.444 119.555 208.655 124.174" fill="white"/>
<path d="M164.478 120.128C164.438 100.768 177.012 53.8507 217.921 55.3442C247.761 60.2843 236.44 98.6699 234.362 101.643C230.034 110.197 221.444 119.555 208.655 124.174" stroke="black" stroke-width="1.66" stroke-miterlimit="10"/>
<path d="M207.414 115.296C229.516 115.713 269.939 148.022 266.139 182.685C261.123 228.339 220.966 235.49 211.488 235.311C183.215 234.779 123.043 237.801 116.338 236.101C107.384 233.794 66.2999 230.156 67.4045 175.795C73.747 128.23 115.883 116.719 115.883 116.719C115.883 116.719 138.103 110.844 166.496 111.379C182.266 111.676 207.454 115.297 207.454 115.297L207.414 115.296Z" fill="white" stroke="black" stroke-width="1.5" stroke-miterlimit="10"/>
<path d="M194.274 236.923C258.28 161.017 205.044 119.105 205.044 119.105C205.044 119.105 223.232 120.896 223.113 120.854C231.184 129.372 268.75 167.369 211.16 235.673" fill="black"/>
<path d="M197.699 122.269C195.15 111.055 214.994 51.5282 264.536 63.5869C294.72 75.3213 275.005 110.947 272.194 113.675C267.561 119.635 259.766 125.655 250.455 129.309C242.636 132.387 228.736 135.431 216.278 132.052" fill="white"/>
<path d="M197.699 122.269C195.15 111.055 214.994 51.5282 264.536 63.5869C294.72 75.3213 275.005 110.947 272.194 113.675C267.561 119.635 259.766 125.655 250.455 129.309C242.636 132.387 228.736 135.431 216.278 132.052" stroke="black" stroke-width="1.5" stroke-miterlimit="10" stroke-linecap="round"/>
<path d="M116.953 165.239C121.713 149.004 120.146 134.262 113.454 132.313C106.762 130.364 97.479 141.945 92.7195 158.18C87.9599 174.416 89.5265 189.157 96.2186 191.106C102.911 193.056 112.194 181.474 116.953 165.239Z" fill="white" stroke="black" stroke-width="1.2" stroke-miterlimit="10"/>
<path d="M119.241 161.265C122.801 149.121 121.753 138.13 116.899 136.716C112.046 135.302 105.225 144.001 101.665 156.146C98.1049 168.291 99.1532 179.282 104.006 180.695C108.86 182.109 115.68 173.41 119.241 161.265Z" fill="black"/>
<path d="M139.024 165.663C143.783 149.427 142.217 134.686 135.525 132.737C128.833 130.787 119.549 142.369 114.79 158.604C110.03 174.84 111.597 189.581 118.289 191.53C124.981 193.48 134.264 181.898 139.024 165.663Z" fill="white" stroke="black" stroke-width="1.2" stroke-miterlimit="10"/>
<path d="M141.315 161.728C144.875 149.584 143.827 138.592 138.974 137.179C134.12 135.765 127.3 144.464 123.739 156.609C120.179 168.753 121.227 179.745 126.081 181.158C130.934 182.572 137.755 173.873 141.315 161.728Z" fill="black"/>
<path d="M84.2839 188.844C84.2839 188.844 75.1641 188.672 75.0493 194.767C74.9205 201.605 94.6312 202.797 94.6312 202.797C94.6312 202.797 111.275 204.635 118.955 200.206" stroke="black" stroke-width="1.2" stroke-linecap="round" stroke-linejoin="round"/>
<path d="M133.154 189.765C133.154 189.765 109.29 191.684 123.426 211.585" stroke="black" stroke-width="1.2" stroke-linejoin="round"/>
<path d="M102.893 150.188L109.91 149.351L106.119 141.247L102.893 150.188Z" fill="white"/>
<path d="M123.889 150.583L130.906 149.747L127.133 141.643L123.889 150.583Z" fill="white"/>
<path d="M211.611 113.227C211.611 113.227 220.075 83.4274 253.376 73.0065" stroke="black" stroke-width="1.5" stroke-miterlimit="10"/>
<path d="M153.286 236.151C217.161 159.936 166.462 112.377 166.462 112.377C166.462 112.377 190.042 113.669 189.883 113.626C197.936 122.178 229.41 167.961 171.979 236.503" fill="black"/>
<path d="M227.131 121.505C229.286 120.877 231.321 120.204 233.114 119.485C242.119 115.805 250.607 109.565 255.585 102.881C257.48 100.993 267.598 83.3618 264.536 67.7418C262.767 58.6304 256.987 52.0372 247.153 48.1706C237.092 45.6384 227.543 45.9606 218.752 49.0162C215.085 44.0525 209.725 40.9395 202.551 39.7167C189.58 39.2214 178.215 43.6509 169.024 52.8905C154.395 67.508 148.413 90.9898 147.575 105.407C123.866 106.132 106.186 110.944 105.983 110.982C105.536 111.099 62.679 123.763 56.1969 173.8C55.1158 226.909 91.6437 234.709 103.645 237.278C104.732 237.507 105.659 237.692 106.383 237.915C107.59 238.23 110.215 238.405 113.933 238.475C122.503 238.637 136.824 238.237 152.642 237.824C170.767 237.329 189.457 236.844 202.109 237.082C214.76 237.321 253.56 227.551 258.521 180.999C260.138 166.011 254.296 149.837 242.072 135.467C237.562 130.194 232.435 125.454 227.132 121.464L227.131 121.505Z" fill="#040000"/>
<path d="M164.478 120.128C164.438 100.768 177.012 53.8507 217.921 55.3442C247.761 60.2843 236.44 98.6699 234.362 101.643C230.034 110.197 221.444 119.555 208.655 124.174" fill="white"/>
<path d="M164.478 120.128C164.438 100.768 177.012 53.8507 217.921 55.3442C247.761 60.2843 236.44 98.6699 234.362 101.643C230.034 110.197 221.444 119.555 208.655 124.174" stroke="black" stroke-width="1.66" stroke-miterlimit="10"/>
<path d="M207.414 115.296C229.516 115.713 269.939 148.022 266.139 182.685C261.123 228.339 220.966 235.49 211.488 235.311C183.215 234.779 123.043 237.801 116.338 236.101C107.384 233.794 66.2999 230.156 67.4045 175.795C73.747 128.23 115.883 116.719 115.883 116.719C115.883 116.719 138.103 110.844 166.496 111.379C182.266 111.676 207.454 115.297 207.454 115.297L207.414 115.296Z" fill="white" stroke="black" stroke-width="3" stroke-miterlimit="10"/>
<path d="M194.274 236.923C258.28 161.017 205.044 119.105 205.044 119.105C205.044 119.105 223.232 120.896 223.113 120.854C231.184 129.372 268.75 167.369 211.16 235.673" fill="black"/>
<path d="M197.699 122.269C195.15 111.055 214.994 51.5282 264.536 63.5869C294.72 75.3213 275.005 110.947 272.194 113.675C267.561 119.635 259.766 125.655 250.455 129.309C242.636 132.387 228.736 135.431 216.278 132.052" fill="white"/>
<path d="M197.699 122.269C195.15 111.055 214.994 51.5282 264.536 63.5869C294.72 75.3213 275.005 110.947 272.194 113.675C267.561 119.635 259.766 125.655 250.455 129.309C242.636 132.387 228.736 135.431 216.278 132.052" stroke="black" stroke-width="3" stroke-miterlimit="10" stroke-linecap="round"/>
<path d="M117.953 165.239C122.713 149.004 121.146 134.262 114.454 132.313C107.762 130.364 98.479 141.945 93.7195 158.18C88.9599 174.416 90.5265 189.157 97.2186 191.106C103.911 193.056 113.194 181.474 117.953 165.239Z" fill="white" stroke="black" stroke-width="3" stroke-miterlimit="10"/>
<path d="M119.241 161.265C122.801 149.121 121.753 138.13 116.899 136.716C112.046 135.302 105.225 144.001 101.665 156.146C98.1049 168.291 99.1532 179.282 104.006 180.695C108.86 182.109 115.68 173.41 119.241 161.265Z" fill="black"/>
<path d="M140.02 165.663C144.779 149.427 143.213 134.686 136.521 132.737C129.829 130.787 120.545 142.369 115.786 158.604C111.026 174.84 112.593 189.581 119.285 191.53C125.977 193.48 135.26 181.898 140.02 165.663Z" fill="white" stroke="black" stroke-width="3" stroke-miterlimit="10"/>
<path d="M141.315 161.728C144.875 149.584 143.827 138.592 138.974 137.179C134.12 135.765 127.3 144.464 123.739 156.609C120.179 168.753 121.227 179.745 126.081 181.158C130.934 182.572 137.755 173.873 141.315 161.728Z" fill="black"/>
<path d="M84.2839 188.844C84.2839 188.844 75.1641 188.672 75.0493 194.767C74.9205 201.605 94.6312 202.797 94.6312 202.797C94.6312 202.797 111.275 204.635 118.955 200.206" stroke="black" stroke-width="3" stroke-linecap="round" stroke-linejoin="round"/>
<path d="M133.154 189.765C133.154 189.765 109.29 191.684 123.426 211.585" stroke="black" stroke-width="3" stroke-linejoin="round"/>
<path d="M102.893 150.188L109.91 149.351L106.119 141.247L102.893 150.188Z" fill="white"/>
<path d="M123.889 150.583L130.906 149.747L127.133 141.643L123.889 150.583Z" fill="white"/>
<path d="M153.285 236.151C217.168 159.516 166.474 111.704 166.474 111.704C166.474 111.704 190.054 113.001 189.895 112.957C197.947 121.555 229.416 167.583 171.978 236.503" fill="black"/>
<path d="M244.559 257.598C236.937 246.471 221.167 243.977 208.625 251.631C210.247 237.579 201.451 224.757 188.128 222.389C174.956 220.048 162.05 228.786 158.107 242.215C157.926 241.931 157.745 241.647 157.555 241.37C148.915 228.756 132.218 225.242 120.269 233.527C108.32 241.812 105.754 258.05 113.76 270.575C99.7087 269.715 86.9884 278.627 84.4855 291.666C81.9159 305.093 91.1345 318.045 105.309 321.5C104.925 321.739 104.548 321.987 104.169 322.251C91.5863 330.975 87.8216 347.449 95.7627 359.042C103.704 370.635 119.76 372.864 132.255 364.675C130.307 379.204 139.101 392.529 152.575 394.924C165.923 397.289 179.041 388.061 182.852 374.05C182.962 374.211 183.063 374.379 183.174 374.54C191.697 386.983 208.296 390.355 220.245 382.069C232.194 373.784 234.968 357.032 226.49 344.597C241.258 346.425 255.016 337.295 257.624 323.669C260.184 310.248 251.002 297.311 236.877 293.849C248.793 284.833 252.27 268.875 244.55 257.604L244.559 257.598ZM179.46 350.615C175.828 345.039 170.197 341.008 163.352 339.799C156.978 338.673 150.654 340.193 145.372 343.604C145.932 337.974 144.66 332.28 141.343 327.437C138.025 322.594 133.44 319.542 128.193 318.017C134.235 314.276 138.667 308.378 140.033 301.238C141.231 294.981 139.859 288.829 136.636 283.695C141.826 283.793 147.029 282.351 151.561 279.209C156.427 275.835 159.755 271.032 161.402 265.665C165.061 271.182 170.718 275.195 177.585 276.415C183.504 277.46 189.351 276.258 194.373 273.422C193.769 279.084 195.013 284.796 198.331 289.639C201.648 294.482 206.246 297.513 211.535 299.022C206.759 302.742 203.32 307.966 202.152 314.111C200.891 320.742 202.484 327.256 206.135 332.567C200.36 332.082 194.442 333.492 189.367 337.011C184.293 340.53 181.107 345.247 179.442 350.627L179.46 350.615Z" fill="white" stroke="black" stroke-width="3" stroke-miterlimit="10"/>
<path d="M199.316 352.677C222.533 336.592 228.602 304.943 212.87 281.987C197.139 259.031 165.565 253.461 142.347 269.546C119.13 285.631 113.062 317.28 128.793 340.236C144.525 363.192 176.099 368.762 199.316 352.677Z" fill="#FADF0B" stroke="black" stroke-width="3" stroke-miterlimit="10"/>
<path d="M163.701 327.556C166.552 325.457 164.424 316.751 158.948 308.111C153.473 299.471 146.723 294.17 143.872 296.269C141.022 298.368 143.15 307.074 148.625 315.714C154.101 324.354 160.851 329.655 163.701 327.556Z" fill="black"/>
<path d="M188.608 313.182C191.458 311.083 189.33 302.377 183.855 293.737C178.379 285.097 171.629 279.796 168.779 281.895C165.928 283.994 168.056 292.7 173.532 301.34C179.007 309.98 185.757 315.281 188.608 313.182Z" fill="black"/>
<path d="M205.863 305.054C207.06 317.973 200.606 331.335 187.98 339.179C175.353 347.024 158.468 347.267 146.32 340.121" fill="#FADF0B"/>
<path d="M205.863 305.054C207.06 317.973 200.606 331.335 187.98 339.179C175.353 347.024 158.468 347.267 146.32 340.121" stroke="black" stroke-width="3" stroke-miterlimit="10"/>
<path d="M141.703 316.721L151.218 307.804L137.037 299.776L141.703 316.721Z" fill="#FADF0B"/>
<path d="M166.117 302.628L175.632 293.711L161.451 285.683L166.117 302.628Z" fill="#FADF0B"/>
<path d="M141.684 341.666C141.684 341.666 148.106 342.766 146.472 335L141.684 341.666Z" fill="#FADF0B"/>
<path d="M141.684 341.666C141.684 341.666 148.106 342.766 146.472 335" stroke="black" stroke-width="3" stroke-miterlimit="10"/>
<path d="M211.172 301.064C211.172 301.064 209.819 307.254 203.008 302.877L211.172 301.064Z" fill="#FADF0B"/>
<path d="M211.172 301.064C211.172 301.064 209.819 307.254 203.008 302.877" stroke="black" stroke-width="2" stroke-miterlimit="10"/>
</svg>
