<svg width="52" height="48" viewBox="0 0 52 48" fill="none" xmlns="http://www.w3.org/2000/svg">
<path d="M33.6907 1.82511L36.2558 5.1061L40.4472 4.84708C40.7092 4.82549 40.9493 4.98738 41.0257 5.23561L42.3028 9.19655L46.3305 10.3622C46.5816 10.4377 46.7453 10.6644 46.7453 10.9234L46.5816 15.0786L49.9653 17.5393C50.1726 17.6904 50.2491 17.9711 50.1508 18.2085L48.5572 22.0507L50.8821 25.5044C51.024 25.7202 51.0022 26.0009 50.8276 26.1951L48.0005 29.2711L48.9938 33.3076C49.0593 33.5558 48.9392 33.8148 48.6991 33.9443L44.977 35.8762L44.5077 39.9991C44.4749 40.2581 44.2784 40.4631 44.0165 40.4955L39.8578 41.0567L37.9913 44.7802C37.8712 45.0069 37.6093 45.1364 37.3582 45.0824L33.2541 44.1974L30.2088 47.0683C30.0232 47.2518 29.7285 47.2734 29.5102 47.1331L25.9628 44.9098L22.1097 46.5718C21.8696 46.6798 21.5858 46.6042 21.433 46.3992L18.8679 43.1182L14.6765 43.3772C14.4145 43.3988 14.1744 43.2369 14.098 42.9886L12.8209 39.0277L8.79321 37.8621C8.54216 37.7865 8.37843 37.5599 8.37843 37.3009L8.54216 33.1457L5.15845 30.6849C4.95107 30.5338 4.87466 30.2532 4.9729 30.0158L6.56651 26.1735L4.24158 22.7199C4.09968 22.504 4.12151 22.2234 4.29615 22.0291L7.12319 18.9532L6.1299 14.9167C6.06441 14.6685 6.18448 14.4095 6.42461 14.2799L10.1467 12.348L10.616 8.2252C10.6488 7.96618 10.8453 7.76112 11.1072 7.72874L15.2659 7.16752L17.1324 3.44402C17.2525 3.21737 17.5144 3.08786 17.7655 3.14182L21.8696 4.02683L24.9149 1.15596C25.1005 0.972478 25.3952 0.950893 25.6135 1.0912L29.1609 3.3145L33.014 1.65242C33.2541 1.54449 33.5379 1.62004 33.6907 1.82511Z" fill="black" stroke="black" stroke-miterlimit="10"/>
<path d="M30.5423 1.82511L33.1074 5.1061L37.2988 4.84708C37.5607 4.82549 37.8009 4.98738 37.8773 5.23561L39.1544 9.19655L43.1821 10.3622C43.4331 10.4377 43.5968 10.6644 43.5968 10.9234L43.4331 15.0786L46.8168 17.5393C47.0242 17.6904 47.1006 17.9711 47.0024 18.2085L45.4088 22.0507L47.7337 25.5044C47.8756 25.7203 47.8538 26.0009 47.6791 26.1951L44.8521 29.2711L45.8454 33.3076C45.9109 33.5558 45.7908 33.8148 45.5507 33.9443L41.8286 35.8762L41.3592 39.9991C41.3265 40.2581 41.13 40.4631 40.868 40.4955L36.7094 41.0568L34.8429 44.7802C34.7228 45.0069 34.4608 45.1364 34.2098 45.0824L30.1057 44.1974L27.0603 47.0683C26.8748 47.2518 26.5801 47.2734 26.3618 47.1331L22.8143 44.9098L18.9613 46.5718C18.7212 46.6798 18.4374 46.6042 18.2845 46.3992L15.7195 43.1182L11.528 43.3772C11.2661 43.3988 11.026 43.2369 10.9495 42.9886L9.67247 39.0277L5.64477 37.8621C5.39372 37.7865 5.22999 37.5599 5.22999 37.3009L5.39372 33.1457L2.01002 30.6849C1.80263 30.5338 1.72622 30.2532 1.82446 30.0158L3.41807 26.1735L1.09314 22.7199C0.951244 22.504 0.973074 22.2234 1.14772 22.0291L3.97475 18.9532L2.98147 14.9167C2.91598 14.6685 3.03604 14.4095 3.27618 14.2799L6.99825 12.348L7.46761 8.22521C7.50035 7.96618 7.69682 7.76112 7.95879 7.72874L12.1175 7.16752L13.984 3.44402C14.104 3.21737 14.366 3.08786 14.617 3.14182L18.7212 4.02683L21.7665 1.15596C21.952 0.972478 22.2468 0.950893 22.4651 1.0912L26.0125 3.31451L29.8655 1.65242C30.1057 1.54449 30.3895 1.62004 30.5423 1.82511Z" fill="white" stroke="black" stroke-miterlimit="10"/>
<path d="M30.5776 19.4568C30.8301 19.345 31.0672 19.2301 31.2738 19.1142C32.3106 18.5244 33.2387 17.6459 33.7295 16.7789C33.928 16.5251 34.8538 14.2923 34.2026 12.5303C33.8248 11.5022 33.0009 10.8391 31.7291 10.5661C30.4532 10.4523 29.2904 10.6614 28.2688 11.1749C27.7322 10.6634 27.0212 10.3976 26.1217 10.3843C24.5258 10.5598 23.2136 11.2794 22.2525 12.5194C20.7212 14.4827 20.405 17.3219 20.5577 19.014C17.6695 19.5245 15.5913 20.4021 15.5671 20.4102C15.5145 20.4318 10.4946 22.6752 10.5873 28.6125C11.3953 34.81 16.0031 35.0608 17.5171 35.1439C17.6543 35.1511 17.7709 35.1559 17.8634 35.1688C18.0167 35.1839 18.341 35.157 18.7973 35.0983C19.8487 34.9631 21.5941 34.6592 23.5223 34.3268C25.7313 33.9434 28.0097 33.5511 29.562 33.3515C31.1144 33.1518 35.6891 31.3179 35.4719 25.8135C35.4043 24.0409 34.4031 22.2643 32.653 20.8124C32.0077 20.2801 31.2964 19.8209 30.5769 19.452L30.5776 19.4568Z" fill="#040000" stroke="white" stroke-miterlimit="10"/>
<path d="M23.4391 20.6957C23.0791 18.3504 23.7563 12.4382 28.7869 11.8804C32.5272 11.9401 31.8467 16.7959 31.647 17.1937C31.2747 18.3084 30.3957 19.5974 28.9164 20.3881" fill="white"/>
<path d="M23.4391 20.6957C23.0791 18.3504 23.7563 12.4382 28.7869 11.8804C32.5272 11.9401 31.8467 16.7959 31.647 17.1937C31.2747 18.3084 30.3957 19.5974 28.9164 20.3881" stroke="black" stroke-miterlimit="10"/>
<path d="M28.6014 19.3957C31.3192 19.0461 36.8667 22.2126 37.0344 26.4632C37.2539 32.0616 32.4603 33.6507 31.2948 33.8006C27.8182 34.2478 20.4948 35.7009 19.6415 35.6171C18.5014 35.5008 13.3969 35.8051 12.5387 29.227C12.4469 23.374 17.4034 21.2231 17.4034 21.2231C17.4034 21.2231 20.0208 20.1124 23.5123 19.6633C25.4515 19.4138 28.6064 19.395 28.6064 19.395L28.6014 19.3957Z" fill="white" stroke="black" stroke-miterlimit="10"/>
<path d="M29.1709 34.2679C35.7029 23.916 28.3426 19.8166 28.3426 19.8166C28.3426 19.8166 30.6273 19.7013 30.6118 19.6984C31.7674 20.5818 37.1157 24.4934 31.2387 33.8084" fill="black"/>
<path d="M27.4927 20.3191C26.9721 19.0116 28.3361 11.463 34.6836 12.016C38.6312 12.8826 36.8456 17.5431 36.5478 17.9238C36.084 18.7277 35.2303 19.5967 34.1459 20.2076C33.2352 20.7216 31.572 21.3424 29.9695 21.1616" fill="white"/>
<path d="M27.4927 20.3191C26.9721 19.0116 28.3361 11.463 34.6836 12.016C38.6312 12.8826 36.8456 17.5431 36.5478 17.9238C36.084 18.7277 35.2303 19.5967 34.1459 20.2076C33.2352 20.7216 31.572 21.3424 29.9695 21.1616" stroke="black" stroke-miterlimit="10" stroke-linecap="round"/>
<path d="M18.4243 27.0251C18.7103 24.9733 18.2479 23.2169 17.3914 23.1021C16.5349 22.9872 15.6086 24.5574 15.3226 26.6092C15.0366 28.6609 15.499 30.4173 16.3555 30.5322C17.212 30.647 18.1383 29.0769 18.4243 27.0251Z" fill="white" stroke="black" stroke-miterlimit="10"/>
<path d="M18.633 26.5031C18.8469 24.9684 18.5168 23.6566 17.8957 23.5733C17.2745 23.49 16.5975 24.6667 16.3835 26.2015C16.1695 27.7363 16.4997 29.048 17.1208 29.1313C17.742 29.2146 18.419 28.0379 18.633 26.5031Z" fill="black"/>
<path d="M21.1391 26.6774C21.4252 24.6257 20.9627 22.8693 20.1062 22.7544C19.2497 22.6396 18.3235 24.2097 18.0375 26.2615C17.7514 28.3133 18.2139 30.0697 19.0704 30.1845C19.9269 30.2994 20.8531 28.7292 21.1391 26.6774Z" fill="white" stroke="black" stroke-miterlimit="10"/>
<path d="M21.3478 26.1555C21.5618 24.6207 21.2317 23.309 20.6105 23.2257C19.9893 23.1424 19.3123 24.319 19.0984 25.8538C18.8844 27.3886 19.2145 28.7003 19.8357 28.7836C20.4568 28.8669 21.1339 27.6903 21.3478 26.1555Z" fill="black"/>
<path d="M14.825 30.488C14.825 30.488 13.6992 30.6328 13.7997 31.3939C13.9124 32.2477 16.3611 32.037 16.3611 32.037C16.3611 32.037 18.4444 31.9625 19.3064 31.2711" stroke="black" stroke-linecap="round" stroke-linejoin="round"/>
<path d="M20.8844 29.7044C20.8844 29.7044 17.9417 30.3756 20.0718 32.528" stroke="black" stroke-linejoin="round"/>
<path d="M16.4288 25.4278L17.2763 25.1998L16.6621 24.2914L16.4288 25.4278Z" fill="white"/>
<path d="M19.0225 25.088L19.8651 24.8605L19.2558 23.9515L19.0225 25.088Z" fill="white"/>
<path d="M24.138 34.9168C30.67 24.5649 23.5091 19.7601 23.5091 19.7601C23.5091 19.7601 26.4587 19.4849 26.4382 19.4825C27.5939 20.3659 32.3367 25.3081 26.464 34.6176" fill="black"/>
</svg>
