<svg width="37" height="36" viewBox="0 0 37 36" fill="none" xmlns="http://www.w3.org/2000/svg">
<path d="M20.3111 28.5887C20.1516 28.4313 20.062 28.2178 20.062 27.9952C20.062 27.7727 20.1516 27.5592 20.3111 27.4017L29.0766 18.7567L6.15015 18.7567C5.92426 18.7567 5.70763 18.6682 5.5479 18.5107C5.38818 18.3532 5.29845 18.1396 5.29845 17.9168C5.29845 17.6941 5.38818 17.4805 5.5479 17.323C5.70763 17.1655 5.92426 17.077 6.15015 17.077L29.0766 17.077L20.3111 8.43195C20.1607 8.27274 20.0788 8.06216 20.0827 7.84458C20.0866 7.627 20.1759 7.4194 20.332 7.26552C20.488 7.11164 20.6986 7.0235 20.9192 7.01966C21.1399 7.01582 21.3534 7.09659 21.5149 7.24494L31.7353 17.3233C31.8948 17.4808 31.9844 17.6943 31.9844 17.9168C31.9844 18.1394 31.8948 18.3529 31.7353 18.5103L21.5149 28.5887C21.3552 28.746 21.1387 28.8343 20.913 28.8343C20.6873 28.8343 20.4708 28.746 20.3111 28.5887Z" fill="black"/>
</svg>
