<svg width="68" height="71" viewBox="0 0 68 71" fill="none" xmlns="http://www.w3.org/2000/svg">
<path d="M44.5244 6.22309L47.8588 10.9325L53.5183 10.7187C53.8722 10.6977 54.1898 10.9342 54.2835 11.2862L55.8563 16.9062L61.2416 18.6913C61.5772 18.8066 61.7894 19.1315 61.7796 19.496L61.403 25.3376L65.8717 28.9221C66.1455 29.1422 66.238 29.5398 66.0967 29.8704L63.8044 35.2201L66.8086 40.1639C66.9918 40.4728 66.9518 40.8669 66.7091 41.134L62.7831 45.361L63.9704 51.0771C64.0494 51.4288 63.8778 51.789 63.5493 51.9626L58.4597 54.5475L57.6723 60.3325C57.6184 60.6959 57.3459 60.9774 56.9916 61.0135L51.3649 61.6538L48.7093 66.8267C48.5389 67.1413 48.1809 67.3141 47.8446 67.2292L42.3457 65.8362L38.1331 69.7668C37.8761 70.0183 37.478 70.0381 37.189 69.8328L32.4908 66.5765L27.2347 68.777C26.907 68.9203 26.5273 68.8037 26.329 68.5097L22.9946 63.8003L17.3351 64.0141C16.9812 64.0351 16.6636 63.7986 16.5699 63.4465L14.9971 57.8266L9.61182 56.0414C9.27626 55.9261 9.06407 55.6013 9.07379 55.2368L9.45042 49.3952L4.98177 45.8106C4.70789 45.5906 4.61543 45.1929 4.75676 44.8623L7.04904 39.5126L4.0448 34.5688C3.86163 34.2599 3.90159 33.8658 4.14429 33.5987L8.07037 29.3717L6.88298 23.6556C6.80402 23.304 6.97558 22.9438 7.30413 22.7701L12.3937 20.1852L13.1811 14.4002C13.235 14.0369 13.5075 13.7554 13.8618 13.7192L19.4885 13.0789L22.1442 7.9061C22.3145 7.59146 22.6725 7.41862 23.0089 7.50359L28.5077 8.89655L32.7203 4.96596C32.9774 4.71443 33.3754 4.69465 33.6644 4.89994L38.3627 8.15623L43.6187 5.95575C43.9464 5.8125 44.3261 5.92902 44.5244 6.22309Z" fill="black" stroke="black" stroke-width="1.73595" stroke-miterlimit="10"/>
<path d="M41.5244 3.22309L44.8588 7.9325L50.5183 7.71866C50.8722 7.6977 51.1898 7.93415 51.2835 8.28623L52.8563 13.9062L58.2416 15.6913C58.5772 15.8066 58.7894 16.1315 58.7796 16.496L58.403 22.3376L62.8717 25.9221C63.1455 26.1422 63.238 26.5398 63.0967 26.8704L60.8044 32.2201L63.8086 37.1639C63.9918 37.4728 63.9518 37.8669 63.7091 38.134L59.7831 42.361L60.9704 48.0771C61.0494 48.4288 60.8778 48.789 60.5493 48.9626L55.4597 51.5475L54.6723 57.3325C54.6184 57.6959 54.3459 57.9774 53.9916 58.0135L48.3649 58.6538L45.7093 63.8267C45.5389 64.1413 45.1809 64.3141 44.8446 64.2292L39.3457 62.8362L35.1331 66.7668C34.8761 67.0183 34.478 67.0381 34.189 66.8328L29.4908 63.5765L24.2347 65.777C23.907 65.9203 23.5273 65.8037 23.329 65.5097L19.9946 60.8003L14.3351 61.0141C13.9812 61.0351 13.6636 60.7986 13.5699 60.4465L11.9971 54.8266L6.61182 53.0414C6.27626 52.9261 6.06407 52.6013 6.07379 52.2368L6.45042 46.3952L1.98177 42.8106C1.70789 42.5906 1.61543 42.1929 1.75676 41.8623L4.04904 36.5126L1.0448 31.5688C0.861632 31.2599 0.901589 30.8658 1.14429 30.5987L5.07037 26.3717L3.88298 20.6556C3.80402 20.304 3.97558 19.9438 4.30413 19.7701L9.39374 17.1852L10.1811 11.4002C10.235 11.0369 10.5075 10.7554 10.8618 10.7192L16.4885 10.0789L19.1442 4.9061C19.3145 4.59146 19.6725 4.41862 20.0089 4.50359L25.5077 5.89655L29.7203 1.96596C29.9774 1.71443 30.3754 1.69465 30.6644 1.89994L35.3627 5.15623L40.6187 2.95575C40.9464 2.8125 41.3261 2.92902 41.5244 3.22309Z" fill="white" stroke="black" stroke-width="1.73595" stroke-miterlimit="10"/>
</svg>
