<?xml version="1.0" standalone="no"?>
<!DOCTYPE svg PUBLIC "-//W3C//DTD SVG 20010904//EN"
 "http://www.w3.org/TR/2001/REC-SVG-20010904/DTD/svg10.dtd">
<svg version="1.0" xmlns="http://www.w3.org/2000/svg"
 width="25.000000pt" height="24.000000pt" viewBox="0 0 25.000000 24.000000"
 preserveAspectRatio="xMidYMid meet">

<g transform="translate(0.000000,24.000000) scale(0.100000,-0.100000)"
fill="#000000" stroke="none">
<path d="M61 226 c-30 -17 -50 -53 -51 -91 0 -66 72 -116 137 -94 30 10 37 9
57 -10 23 -21 46 -28 46 -13 0 5 -11 19 -25 32 -19 17 -22 27 -15 41 20 37 11
80 -24 115 -37 37 -81 44 -125 20z m109 -36 c30 -30 27 -83 -6 -109 -35 -27
-66 -26 -100 2 -35 31 -38 82 -5 109 31 24 86 23 111 -2z"/>
</g>
</svg>
