<svg width="210" height="166" viewBox="0 0 210 166" fill="none" xmlns="http://www.w3.org/2000/svg">
<path d="M175.702 85.9779C163.953 79.2665 150.104 79.9556 139.238 86.3514C139.228 73.7433 132.787 61.4639 121.037 54.7525C111.402 49.2487 100.402 48.7875 90.7596 52.2319C88.8414 42.1501 82.8407 32.9339 73.2058 27.4303C55.752 17.4604 33.4983 23.5334 23.5283 40.9873C13.5584 58.4411 19.6315 80.6948 37.0853 90.6647C46.7206 96.1686 57.7202 96.6297 67.3631 93.1853C69.2813 103.267 75.282 112.483 84.9169 117.987C96.6661 124.698 110.515 124.009 121.381 117.613C121.391 130.222 127.832 142.501 139.582 149.212C157.035 159.182 179.289 153.109 189.259 135.655C199.229 118.202 193.156 95.9478 175.702 85.9779Z" fill="black" stroke="white" stroke-width="2"/>
<path d="M172.276 76.1118C160.291 69.2658 146.05 70.3371 135.264 77.4463C135.908 64.5443 129.597 51.7325 117.612 44.8865C107.877 39.326 96.7028 39.0566 87.0512 42.8579C85.4499 32.6288 79.5146 23.1247 69.7801 17.5643C52.8059 7.86829 31.163 13.7746 21.467 30.7489C11.771 47.7231 17.6773 69.3661 34.6516 79.062C44.386 84.6225 55.5605 84.8918 65.2121 81.0906C66.825 91.3623 72.7488 100.824 82.4832 106.384C94.4682 113.23 108.71 112.159 119.496 105.05C118.851 117.952 125.163 130.764 137.148 137.61C154.122 147.306 175.765 141.399 185.461 124.425C195.157 107.451 189.278 85.8233 172.276 76.1118Z" fill="white" stroke="white" stroke-miterlimit="10"/>
</svg>
