<?xml version="1.0" encoding="UTF-8"?><svg id="_레이어_2" xmlns="http://www.w3.org/2000/svg" viewBox="0 0 94 117"><defs><style>.cls-1{fill:#000;}.cls-1,.cls-2{stroke:#000;stroke-linecap:round;stroke-miterlimit:10;stroke-width:2px;}.cls-2{fill:#fff;}</style></defs><polygon class="cls-1" points="44.93 4.69 53.88 36.24 78.03 26.56 65.22 55.77 85.79 75.08 60.88 79.96 62.39 113.72 44.13 90.58 25.44 113.37 27.58 79.65 2.76 74.3 23.7 55.39 11.44 25.94 35.4 36.07 44.93 4.69"/><polygon class="cls-2" points="50.56 4.14 59.51 35.69 83.66 26.01 70.85 55.23 91.42 74.53 66.51 79.41 68.02 113.17 49.76 90.03 31.07 112.82 33.21 79.1 8.39 73.76 29.33 54.84 17.07 25.39 41.03 35.52 50.56 4.14"/></svg>