<?xml version="1.0" encoding="UTF-8"?><svg id="_레이어_2" xmlns="http://www.w3.org/2000/svg" viewBox="0 0 191 160"><defs><style>.cls-1{fill:#fff;}.cls-1,.cls-2{stroke:#000;stroke-width:2px;}.cls-2{fill:#000;}</style></defs><path class="cls-2" d="M131.07,40.69c0-22.51-18.1-13.89-18.1-26.09,0-13.05,24.41-12.62,33.04-12.62,8,0,31.14,0,31.14,12.2s-15.78,4.63-15.78,23.78v56.81c0,9.47.21,59.97-72.6,59.97C5.87,154.74,15.13,90.77,15.13,88.24v-48.61c.84-13.26-13.47-13.26-13.47-22.94C1.66,13.75-.65,1.97,42.69,1.97c34.3,0,41.24,6.31,41.24,14.52,0,15.15-15.36,1.05-16.41,26.72v38.72c0,25.04,9.47,41.03,31.77,41.03,33.25,0,31.77-27.57,31.77-29.88v-52.39Z"/><path class="cls-1" d="M143.07,43.69c0-22.51-18.1-13.89-18.1-26.09,0-13.05,24.41-12.62,33.04-12.62,8,0,31.14,0,31.14,12.2s-15.78,4.63-15.78,23.78v56.81c0,9.47.21,59.97-72.6,59.97-82.9,0-73.65-63.97-73.65-66.49v-48.61c.84-13.26-13.47-13.26-13.47-22.94,0-2.95-2.32-14.73,41.03-14.73,34.3,0,41.24,6.31,41.24,14.52,0,15.15-15.36,1.05-16.41,26.72v38.72c0,25.04,9.47,41.03,31.77,41.03,33.25,0,31.77-27.57,31.77-29.88v-52.39Z"/></svg>