<?xml version="1.0" encoding="UTF-8"?><svg id="_레이어_2" xmlns="http://www.w3.org/2000/svg" viewBox="0 0 187 159"><defs><style>.cls-1{fill:#fff;}.cls-1,.cls-2{stroke:#000;stroke-width:2px;}.cls-2{fill:#000;}</style></defs><path class="cls-2" d="M123.22,62.46c-9.23,11.6-9.84,17.91-9.81,32.64.05,19.36,1.12,27.77,3.02,31.77,2.96,6.1,14.11,4.8,14.13,14.69.04,15.15-33.21,15.23-43.52,15.26-41.24.1-46.74-9.35-46.75-15.04-.03-11.36,11.98-7.18,15.74-15.82,2.09-4.84,3.33-14.53,3.28-34.94-.03-11.99-1.93-15.99-9.32-25.44l-23.85-27.51C15.81,26.11,2.14,29.51,2.12,19.2c-.01-4.84-1.51-14.3,47.52-14.43,43.77-.11,43.37,8.1,43.38,12.73.01,5.47-5.87,7.59-5.86,12.01s8.46,17.86,13.72,17.85,14.28-11.19,14.27-16.03c-.01-5.89-6.12-6.3-6.14-14.29-.03-12.41,24.38-12.48,32.37-12.5,26.3-.07,33.25,3.07,33.28,12.33.03,13.47-15.14,5.72-25.63,17.11l-25.81,28.47Z"/><path class="cls-1" d="M134,60.04c-9.23,11.6-9.84,17.91-9.81,32.64.05,19.36,1.12,27.77,3.02,31.77,2.96,6.1,14.11,4.8,14.13,14.69.04,15.15-33.21,15.23-43.52,15.26-41.24.1-46.74-9.35-46.75-15.04-.03-11.36,11.98-7.18,15.74-15.82,2.09-4.84,3.33-14.53,3.28-34.94-.03-11.99-1.93-15.99-9.32-25.44l-23.85-27.51c-10.34-11.97-24.01-8.57-24.03-18.88-.01-4.84-1.51-14.3,47.52-14.43,43.77-.11,43.37,8.1,43.38,12.73.01,5.47-5.87,7.59-5.86,12.01.01,4.63,8.46,17.86,13.72,17.85,5.47-.01,14.28-11.19,14.27-16.03-.01-5.89-6.12-6.3-6.14-14.29-.03-12.41,24.38-12.48,32.37-12.5,26.3-.07,33.25,3.07,33.28,12.33.03,13.47-15.14,5.72-25.63,17.11l-25.81,28.47Z"/></svg>